<svg width="429" height="81" viewBox="0 0 429 81" fill="none" xmlns="http://www.w3.org/2000/svg">
<path d="M125.364 47.0409C125.364 49.0833 124.749 50.9019 123.517 52.4967C122.314 54.0076 120.657 55.1826 118.544 56.022C116.432 56.8614 114.047 57.281 111.389 57.281C108.955 57.281 106.591 56.7145 104.296 55.5813C102.002 54.4482 100.072 52.8744 98.5048 50.86L101.778 47.7963C104.492 51.0698 107.696 52.7066 111.389 52.7066C113.012 52.7066 114.494 52.5107 115.837 52.119C117.32 51.6714 118.467 51.0418 119.279 50.2305C120.202 49.3352 120.664 48.272 120.664 47.0409C120.664 45.5581 120.202 44.4389 119.279 43.6835C118.495 43.04 117.334 42.6203 115.795 42.4245C114.9 42.3126 113.431 42.2566 111.389 42.2566C107.64 42.2566 104.779 41.5711 102.806 40.2002C100.834 38.8293 99.8477 36.8148 99.8477 34.1569C99.8477 32.4781 100.344 30.8834 101.338 29.3725C102.331 27.8617 103.695 26.6586 105.429 25.7633C107.22 24.8121 109.207 24.3364 111.389 24.3364C113.851 24.3364 116.075 24.7141 118.062 25.4696C120.188 26.2809 122.161 27.5539 123.979 29.2886L121.125 32.646C119.419 31.2751 117.866 30.3168 116.467 29.7712C115.068 29.2257 113.375 28.9529 111.389 28.9529C110.242 28.9529 109.172 29.1907 108.178 29.6663C107.185 30.142 106.395 30.7785 105.807 31.5758C105.22 32.3732 104.926 33.2196 104.926 34.1149C104.926 36.521 107.15 37.7241 111.599 37.7241C115.152 37.7241 117.964 38.0878 120.034 38.8153C121.993 39.5147 123.392 40.5779 124.231 42.0048C124.986 43.2638 125.364 44.9425 125.364 47.0409ZM136.611 42.7183V56.5676H132.079V25.2597H136.611V38.1018C137.731 37.5422 139.059 37.2625 140.598 37.2625C141.158 37.2625 142.515 37.3884 144.669 37.6402C147.691 38.0039 149.733 38.1858 150.796 38.1858C152.419 38.1858 153.832 37.92 155.035 37.3884V25.2597H159.61V56.5676H155.035V42.0048C153.832 42.5364 152.419 42.8022 150.796 42.8022C149.733 42.8022 147.691 42.6203 144.669 42.2566C142.515 42.0048 141.158 41.8789 140.598 41.8789C139.059 41.8789 137.731 42.1587 136.611 42.7183ZM173.417 44.0193V51.9931H192.722V56.5676H168.843V25.2597H190.876V29.8762H173.417V39.3608C174.284 38.8572 175.25 38.5215 176.313 38.3536C177.096 38.2137 178.103 38.1438 179.334 38.1438H186.175V42.8022H179.334C178.187 42.8022 177.18 42.8721 176.313 43.012C175.25 43.2079 174.284 43.5436 173.417 44.0193ZM222.016 56.5676H200.066V25.2597H204.641V51.9931H222.016V56.5676ZM232.046 44.0193V56.5676H227.471V25.2597H249.504V29.8762H232.046V39.3608C232.913 38.8572 233.878 38.5215 234.942 38.3536C235.725 38.2137 236.732 38.1438 237.963 38.1438H244.804V42.8022H237.963C236.816 42.8022 235.809 42.8721 234.942 43.012C233.878 43.2079 232.913 43.5436 232.046 44.0193ZM292.353 47.0409C292.353 49.0833 291.738 50.9019 290.507 52.4967C289.304 54.0076 287.646 55.1826 285.534 56.022C283.421 56.8614 281.036 57.281 278.378 57.281C275.944 57.281 273.58 56.7145 271.286 55.5813C268.991 54.4482 267.061 52.8744 265.494 50.86L268.768 47.7963C271.481 51.0698 274.685 52.7066 278.378 52.7066C280.001 52.7066 281.484 52.5107 282.827 52.119C284.31 51.6714 285.457 51.0418 286.268 50.2305C287.191 49.3352 287.653 48.272 287.653 47.0409C287.653 45.5581 287.191 44.4389 286.268 43.6835C285.485 43.04 284.324 42.6203 282.785 42.4245C281.889 42.3126 280.421 42.2566 278.378 42.2566C274.629 42.2566 271.768 41.5711 269.796 40.2002C267.823 38.8293 266.837 36.8148 266.837 34.1569C266.837 32.4781 267.334 30.8834 268.327 29.3725C269.32 27.8617 270.684 26.6586 272.419 25.7633C274.209 24.8121 276.196 24.3364 278.378 24.3364C280.84 24.3364 283.064 24.7141 285.051 25.4696C287.177 26.2809 289.15 27.5539 290.968 29.2886L288.115 32.646C286.408 31.2751 284.855 30.3168 283.456 29.7712C282.057 29.2257 280.365 28.9529 278.378 28.9529C277.231 28.9529 276.161 29.1907 275.168 29.6663C274.174 30.142 273.384 30.7785 272.796 31.5758C272.209 32.3732 271.915 33.2196 271.915 34.1149C271.915 36.521 274.139 37.7241 278.588 37.7241C282.141 37.7241 284.953 38.0878 287.023 38.8153C288.982 39.5147 290.381 40.5779 291.22 42.0048C291.976 43.2638 292.353 44.9425 292.353 47.0409ZM303.601 42.7183V56.5676H299.068V25.2597H303.601V38.1018C304.72 37.5422 306.049 37.2625 307.588 37.2625C308.147 37.2625 309.504 37.3884 311.658 37.6402C314.68 38.0039 316.723 38.1858 317.786 38.1858C319.408 38.1858 320.821 37.92 322.024 37.3884V25.2597H326.599V56.5676H322.024V42.0048C320.821 42.5364 319.408 42.8022 317.786 42.8022C316.723 42.8022 314.68 42.6203 311.658 42.2566C309.504 42.0048 308.147 41.8789 307.588 41.8789C306.049 41.8789 304.72 42.1587 303.601 42.7183ZM345.61 28.5752L343.89 24.7141H348.926L363.992 56.5676H358.872L356.816 51.9931H347.289C345.498 51.9931 343.89 52.161 342.463 52.4967C341.204 52.8045 340.154 53.2102 339.315 53.7138C338.56 54.1614 338.056 54.6231 337.804 55.0987L337.007 56.5676H332.055L345.61 28.5752ZM348.968 47.3767H354.759L347.919 34.1569L340.994 49.1393C341.609 48.6077 342.547 48.188 343.806 47.8803C345.233 47.5445 346.953 47.3767 348.968 47.3767ZM374.442 29.8342V40.2422C375.309 39.7386 376.275 39.4028 377.338 39.2349C378.121 39.095 379.128 39.0251 380.359 39.0251H386.319C387.97 39.0251 389.257 38.6474 390.18 37.892C391.159 37.0806 391.649 35.8635 391.649 34.2408C391.649 32.702 391.131 31.5549 390.096 30.7994C389.201 30.1559 387.942 29.8342 386.319 29.8342H374.442ZM387.83 51.6154L384.011 43.5996H380.359C379.212 43.5996 378.205 43.6695 377.338 43.8094C376.275 44.0053 375.309 44.341 374.442 44.8166V56.5676H369.868V25.2597H386.319C388.249 25.2597 389.956 25.6234 391.439 26.3509C392.922 27.0783 394.069 28.1135 394.88 29.4565C395.748 30.8834 396.181 32.5621 396.181 34.4926C396.181 36.8428 395.552 38.7733 394.293 40.2841C393.034 41.795 391.257 42.8442 388.963 43.4317L391.397 48.4259C392.096 49.4611 392.642 50.1885 393.034 50.6082C393.509 51.1398 393.964 51.4965 394.398 51.6784C394.831 51.8602 395.398 51.9511 396.097 51.9511H396.559L397.566 51.9092V56.5676C395.943 56.5676 394.74 56.5116 393.957 56.3997C392.642 56.1759 391.523 55.7422 390.6 55.0987C389.508 54.3153 388.585 53.1542 387.83 51.6154ZM409.695 44.0193V51.9931H429V56.5676H405.12V25.2597H427.153V29.8762H409.695V39.3608C410.562 38.8572 411.527 38.5215 412.591 38.3536C413.374 38.2137 414.381 38.1438 415.612 38.1438H422.453V42.8022H415.612C414.465 42.8022 413.458 42.8721 412.591 43.012C411.527 43.2079 410.562 43.5436 409.695 44.0193Z" fill="#0EA5E9"/>
<g clip-path="url(#clip0_13_2)">
<path d="M89.8837 19.1456V18.7621L89.7682 18.7074L89.2462 18.543H89.1877L87.1575 17.9405L85.1272 18.7621L71.4375 24.6782L69.1171 25.719L66.2748 26.8693H66.2168L66.0427 26.8145L64.4185 26.4311L61.2862 25.6094L60.126 25.226H60.0679L58.2117 24.733L57.7477 24.6234L57.6316 24.5686L57.3996 24.5139H57.3416L55.1953 23.9661L45.9141 21.5559L45.74 21.501L43.4197 20.8438C43.4197 20.8438 43.4197 20.7889 43.3618 20.7889C41.3314 19.0909 41.7955 16.078 42.7816 13.9417L52.701 16.6806H52.759H52.817L54.9633 17.2831H55.0213L55.2533 17.3379L57.5737 17.9952L57.8637 18.1048L58.5598 18.2691L60.9961 18.9264L61.3441 19.036L61.5181 19.0908L62.9104 19.5291L64.0125 19.8577L64.8246 20.0768H64.8826L65.5787 20.2411L65.9268 20.3507L66.1588 20.2411L67.609 19.5838L67.841 19.4742L67.957 19.4195L70.9734 18.1596L75.6142 16.1876L75.9622 16.078L77.9925 15.2563L86.5777 11.6409L86.8095 11.5315L89.0722 10.6002V10.4907L89.304 10.3811L89.1877 8.79251L64.5926 2L41.3314 11.8601C41.0414 12.0244 40.7514 12.2983 40.5774 12.5174C37.967 14.7634 38.983 20.2957 40.8392 22.6512L51.0901 25.6094L53.8237 26.4311L63.5485 29.3197C65.3048 29.6029 67.1024 29.4873 68.8079 28.9812L69.1172 28.8895L76.4842 26.0476L85.1272 22.3775L85.359 22.2679L87.6217 21.282L90 20.2411L89.8837 19.1456Z" fill="#0EA5E9"/>
<path d="M89.8837 19.1456V18.7621L89.7682 18.7074L89.2462 18.543H89.1877L87.1575 17.9405L85.1272 18.7621L71.4375 24.6782L69.1171 25.719L66.2748 26.8693H66.2168L66.0427 26.8145L64.4185 26.4311L61.2862 25.6094L60.126 25.226H60.0679L58.2117 24.733L57.7477 24.6234L57.6316 24.5686L57.3996 24.5139H57.3416L55.1953 23.9661L45.9141 21.5559L45.74 21.501L43.4197 20.8438C43.4197 20.8438 43.4197 20.7889 43.3618 20.7889C41.3314 19.0909 41.7955 16.078 42.7816 13.9417L52.701 16.6806H52.759H52.817L54.9633 17.2831H55.0213L55.2533 17.3379L57.5737 17.9952L57.8637 18.1048L58.5598 18.2691L60.9961 18.9264L61.3441 19.036L61.5181 19.0908L62.9104 19.5291L64.0125 19.8577L64.8246 20.0768H64.8826L65.5787 20.2411L65.9268 20.3507L66.1588 20.2411L67.609 19.5838L67.841 19.4742L67.957 19.4195L70.9734 18.1596L75.6142 16.1876L75.9622 16.078L77.9925 15.2563L86.5777 11.6409L86.8095 11.5315L89.0722 10.6002V10.4907L89.304 10.3811L89.1877 8.79251L64.5926 2L41.3314 11.8601C41.0414 12.0244 40.7514 12.2983 40.5774 12.5174C37.967 14.7634 38.983 20.2957 40.8392 22.6512L51.0901 25.6094L53.8237 26.4311L63.5485 29.3197C65.3048 29.6029 67.1024 29.4873 68.8079 28.9812L69.1172 28.8895L76.4842 26.0476L85.1272 22.3775L85.359 22.2679L87.6217 21.282L90 20.2411L89.8837 19.1456Z" fill="white"/>
<path d="M89.8837 19.1456V18.7621L89.7682 18.7074L89.2462 18.543H89.1877L87.1575 17.9405L85.1272 18.7621L71.4375 24.6782L69.1171 25.719L66.2748 26.8693H66.2168L66.0427 26.8145L64.4185 26.4311L61.2862 25.6094L60.126 25.226H60.0679L58.2117 24.733L57.7477 24.6234L57.6316 24.5686L57.3996 24.5139H57.3416L55.1953 23.9661L45.9141 21.5559L45.74 21.501L43.4197 20.8438C43.4197 20.8438 43.4197 20.7889 43.3618 20.7889C41.3314 19.0909 41.7955 16.078 42.7816 13.9417L52.701 16.6806H52.759H52.817L54.9633 17.2831H55.0213L55.2533 17.3379L57.5737 17.9952L57.8637 18.1048L58.5598 18.2691L60.9961 18.9264L61.3441 19.036L61.5181 19.0908L62.9104 19.5291L64.0125 19.8577L64.8246 20.0768H64.8826L65.5787 20.2411L65.9268 20.3507L66.1588 20.2411L67.609 19.5838L67.841 19.4742L67.957 19.4195L70.9734 18.1596L75.6142 16.1876L75.9622 16.078L77.9925 15.2563L86.5777 11.6409L86.8095 11.5315L89.0722 10.6002V10.4907L89.304 10.3811L89.1877 8.79251L64.5926 2L41.3314 11.8601C41.0414 12.0244 40.7514 12.2983 40.5774 12.5174C37.967 14.7634 38.983 20.2957 40.8392 22.6512L51.0901 25.6094L53.8237 26.4311L63.5485 29.3197C65.3048 29.6029 67.1024 29.4873 68.8079 28.9812L69.1172 28.8895L76.4842 26.0476L85.1272 22.3775L85.359 22.2679L87.6217 21.282L90 20.2411L89.8837 19.1456Z" fill="#0EA5E9"/>
<path d="M83.5027 9.24964L64.8246 3.93616L62.1562 5.25084L80.4285 10.4548L83.5027 9.24964Z" fill="white"/>
<path d="M83.5027 9.24964L64.8246 3.93616L62.1562 5.25084L80.4285 10.4548L83.5027 9.24964Z" fill="white"/>
<path d="M78.6885 11.2505L60.01 5.93701L57.3416 7.25169L75.6143 12.4556L78.6885 11.2505Z" fill="white"/>
<path d="M78.6885 11.2505L60.01 5.93701L57.3416 7.25169L75.6143 12.4556L78.6885 11.2505Z" fill="white"/>
<path d="M89.8837 19.1456V18.7621L89.7682 18.7074L89.2462 18.543H89.1877L87.1575 17.9405L85.1272 18.7621L71.4375 24.6782L69.1171 25.719L66.2748 26.8693H66.2168L66.0427 26.8145L64.4185 26.4311L61.2862 25.6094L60.126 25.226H60.0679L58.2117 24.733L57.7477 24.6234L57.6316 24.5686L57.3996 24.5139H57.3416L55.1953 23.9661L45.9141 21.5559L45.74 21.501L43.4197 20.8438C43.4197 20.8438 43.4197 20.7889 43.3618 20.7889C41.3314 19.0909 41.7955 16.078 42.7816 13.9417L52.701 16.6806H52.759H52.817L54.9633 17.2831H55.0213L55.2533 17.3379L57.5737 17.9952L57.8637 18.1048L58.5598 18.2691L60.9961 18.9264L61.3441 19.036L61.5181 19.0908L62.9104 19.5291L64.0125 19.8577L64.8246 20.0768H64.8826L65.5787 20.2411L65.9268 20.3507L66.1588 20.2411L67.609 19.5838L67.841 19.4742L67.957 19.4195L70.9734 18.1596L75.6142 16.1876L75.9622 16.078L77.9925 15.2563L86.5777 11.6409L86.8095 11.5315L89.0722 10.6002V10.4907L89.304 10.3811L89.1877 8.79251L64.5926 2L41.3314 11.8601C41.0414 12.0244 40.7514 12.2983 40.5774 12.5174C37.967 14.7634 38.983 20.2957 40.8392 22.6512L51.0901 25.6094L53.8237 26.4311L63.5485 29.3197C65.3048 29.6029 67.1024 29.4873 68.8079 28.9812L69.1172 28.8895L76.4842 26.0476L85.1272 22.3775L85.359 22.2679L87.6217 21.282L90 20.2411L89.8837 19.1456ZM64.8246 3.93621L83.5027 9.24969L80.4285 10.4548L62.1562 5.25089L64.8246 3.93621ZM60.01 5.93707L78.6885 11.2506L75.6142 12.4557L57.3415 7.25175L60.01 5.93707Z" stroke="#0EA5E9"/>
<path d="M50.8838 45.6822V45.3091L50.7681 45.2558L50.246 45.096H50.1877L48.1575 44.5096L46.1274 45.3091L32.4375 51.0653L30.1171 52.0779L27.2748 53.1972H27.2168L27.0427 53.1439L25.4185 52.7708L22.2862 51.9713L21.126 51.5982H21.0679L19.2117 51.1186L18.7477 51.012L18.6316 50.9586L18.3996 50.9054H18.3416L16.1953 50.3724L6.91409 48.0273L6.74005 47.974L4.41974 47.3344C4.41974 47.3344 4.41974 47.2812 4.36174 47.2812C2.33146 45.6289 2.79553 42.6975 3.78168 40.6189L13.701 43.2838H13.759H13.817L15.9633 43.87H16.0213L16.2533 43.9234L18.5737 44.5629L18.8637 44.6695L19.5598 44.8294L21.9961 45.469L22.3441 45.5756L22.5181 45.6289L23.9104 46.0553L25.0125 46.3751L25.8246 46.5883H25.8826L26.5787 46.7481L26.9268 46.8547L27.1588 46.7481L28.609 46.1086L28.841 46.002L28.957 45.9487L31.9734 44.7228L36.614 42.8041L36.9621 42.6975L38.9923 41.898L47.5775 38.3804L47.8094 38.2738L50.072 37.3678V37.2612L50.3039 37.1545L50.1877 35.6089L25.5926 29L2.33147 38.5936C2.04143 38.7535 1.75139 39.02 1.57737 39.2331C-1.03298 41.4183 -0.0170394 46.8012 1.83921 49.093L12.0901 51.9713L14.8237 52.7708L24.5485 55.5814C26.306 55.8571 28.1026 55.7443 29.8118 55.2509L30.1172 55.1628L37.4842 52.3977L46.1274 48.8268L46.3593 48.7202L48.6218 47.7608L51 46.7481L50.8838 45.6822Z" fill="#0EA5E9"/>
<path d="M50.8838 45.6822V45.3091L50.7681 45.2558L50.246 45.096H50.1877L48.1575 44.5096L46.1274 45.3091L32.4375 51.0653L30.1171 52.0779L27.2748 53.1972H27.2168L27.0427 53.1439L25.4185 52.7708L22.2862 51.9713L21.126 51.5982H21.0679L19.2117 51.1186L18.7477 51.012L18.6316 50.9586L18.3996 50.9054H18.3416L16.1953 50.3724L6.91409 48.0273L6.74005 47.974L4.41974 47.3344C4.41974 47.3344 4.41974 47.2812 4.36174 47.2812C2.33146 45.6289 2.79553 42.6975 3.78168 40.6189L13.701 43.2838H13.759H13.817L15.9633 43.87H16.0213L16.2533 43.9234L18.5737 44.5629L18.8637 44.6695L19.5598 44.8294L21.9961 45.469L22.3441 45.5756L22.5181 45.6289L23.9104 46.0553L25.0125 46.3751L25.8246 46.5883H25.8826L26.5787 46.7481L26.9268 46.8547L27.1588 46.7481L28.609 46.1086L28.841 46.002L28.957 45.9487L31.9734 44.7228L36.614 42.8041L36.9621 42.6975L38.9923 41.898L47.5775 38.3804L47.8094 38.2738L50.072 37.3678V37.2612L50.3039 37.1545L50.1877 35.6089L25.5926 29L2.33147 38.5936C2.04143 38.7535 1.75139 39.02 1.57737 39.2331C-1.03298 41.4183 -0.0170394 46.8012 1.83921 49.093L12.0901 51.9713L14.8237 52.7708L24.5485 55.5814C26.306 55.8571 28.1026 55.7443 29.8118 55.2509L30.1172 55.1628L37.4842 52.3977L46.1274 48.8268L46.3593 48.7202L48.6218 47.7608L51 46.7481L50.8838 45.6822Z" fill="white"/>
<path d="M50.8838 45.6822V45.3091L50.7681 45.2558L50.246 45.096H50.1877L48.1575 44.5096L46.1274 45.3091L32.4375 51.0653L30.1171 52.0779L27.2748 53.1972H27.2168L27.0427 53.1439L25.4185 52.7708L22.2862 51.9713L21.126 51.5982H21.0679L19.2117 51.1186L18.7477 51.012L18.6316 50.9586L18.3996 50.9054H18.3416L16.1953 50.3724L6.91409 48.0273L6.74005 47.974L4.41974 47.3344C4.41974 47.3344 4.41974 47.2812 4.36174 47.2812C2.33146 45.6289 2.79553 42.6975 3.78168 40.6189L13.701 43.2838H13.759H13.817L15.9633 43.87H16.0213L16.2533 43.9234L18.5737 44.5629L18.8637 44.6695L19.5598 44.8294L21.9961 45.469L22.3441 45.5756L22.5181 45.6289L23.9104 46.0553L25.0125 46.3751L25.8246 46.5883H25.8826L26.5787 46.7481L26.9268 46.8547L27.1588 46.7481L28.609 46.1086L28.841 46.002L28.957 45.9487L31.9734 44.7228L36.614 42.8041L36.9621 42.6975L38.9923 41.898L47.5775 38.3804L47.8094 38.2738L50.072 37.3678V37.2612L50.3039 37.1545L50.1877 35.6089L25.5926 29L2.33147 38.5936C2.04143 38.7535 1.75139 39.02 1.57737 39.2331C-1.03298 41.4183 -0.0170394 46.8012 1.83921 49.093L12.0901 51.9713L14.8237 52.7708L24.5485 55.5814C26.306 55.8571 28.1026 55.7443 29.8118 55.2509L30.1172 55.1628L37.4842 52.3977L46.1274 48.8268L46.3593 48.7202L48.6218 47.7608L51 46.7481L50.8838 45.6822Z" fill="#0EA5E9"/>
<path d="M44.5031 36.0537L25.8246 30.8838L23.1562 32.163L41.4287 37.2262L44.5031 36.0537Z" fill="white"/>
<path d="M44.5031 36.0537L25.8246 30.8838L23.1562 32.163L41.4287 37.2262L44.5031 36.0537Z" fill="white"/>
<path d="M39.6884 38.0005L21.01 32.8307L18.3416 34.1098L36.614 39.1731L39.6884 38.0005Z" fill="white"/>
<path d="M39.6884 38.0005L21.01 32.8307L18.3416 34.1098L36.614 39.1731L39.6884 38.0005Z" fill="white"/>
<path d="M50.8838 45.6822V45.3091L50.7681 45.2558L50.246 45.096H50.1877L48.1575 44.5096L46.1274 45.3091L32.4375 51.0653L30.1171 52.0779L27.2748 53.1972H27.2168L27.0427 53.1439L25.4185 52.7708L22.2862 51.9713L21.126 51.5982H21.0679L19.2117 51.1186L18.7477 51.012L18.6316 50.9586L18.3996 50.9054H18.3416L16.1953 50.3724L6.91409 48.0273L6.74005 47.974L4.41974 47.3344C4.41974 47.3344 4.41974 47.2812 4.36174 47.2812C2.33146 45.6289 2.79553 42.6975 3.78168 40.6189L13.701 43.2838H13.759H13.817L15.9633 43.87H16.0213L16.2533 43.9234L18.5737 44.5629L18.8637 44.6695L19.5598 44.8294L21.9961 45.469L22.3441 45.5756L22.5181 45.6289L23.9104 46.0553L25.0125 46.3751L25.8246 46.5883H25.8826L26.5787 46.7481L26.9268 46.8547L27.1588 46.7481L28.609 46.1086L28.841 46.002L28.957 45.9487L31.9734 44.7228L36.614 42.8041L36.9621 42.6975L38.9923 41.898L47.5775 38.3804L47.8094 38.2738L50.072 37.3678V37.2612L50.3039 37.1545L50.1877 35.6089L25.5926 29L2.33147 38.5936C2.04143 38.7535 1.75139 39.02 1.57737 39.2331C-1.03298 41.4183 -0.0170394 46.8012 1.83921 49.093L12.0901 51.9713L14.8237 52.7708L24.5485 55.5814C26.306 55.8571 28.1026 55.7443 29.8118 55.2509L30.1172 55.1628L37.4842 52.3977L46.1274 48.8268L46.3593 48.7202L48.6218 47.7608L51 46.7481L50.8838 45.6822ZM25.8246 30.8838L44.5031 36.0537L41.4287 37.2263L23.1562 32.163L25.8246 30.8838ZM21.01 32.8307L39.6884 38.0005L36.614 39.1731L18.3415 34.1098L21.01 32.8307Z" stroke="#0EA5E9"/>
<path d="M89.8837 69.3956V69.0121L89.7682 68.9574L89.2462 68.7931H89.1877L87.1575 68.1905L85.1272 69.0121L71.4375 74.9282L69.1171 75.969L66.2748 77.1192H66.2168L66.0427 77.0645L64.4185 76.6811L61.2862 75.8594L60.126 75.476H60.0679L58.2117 74.983L57.7477 74.8734L57.6316 74.8186L57.3996 74.7639H57.3416L55.1953 74.2161L45.9141 71.8059L45.74 71.7511L43.4197 71.0938C43.4197 71.0938 43.4197 71.0389 43.3618 71.0389C41.3314 69.3409 41.7955 66.328 42.7816 64.1917L52.701 66.9306H52.759H52.817L54.9633 67.5331H55.0213L55.2533 67.5879L57.5737 68.2453L57.8637 68.3548L58.5598 68.5191L60.9961 69.1765L61.3441 69.286L61.5181 69.3409L62.9104 69.7791L64.0125 70.1077L64.8246 70.3268H64.8826L65.5787 70.4911L65.9268 70.6007L66.1588 70.4911L67.609 69.8338L67.841 69.7243L67.957 69.6695L70.9734 68.4096L75.6142 66.4376L75.9622 66.328L77.9925 65.5063L86.5777 61.8909L86.8095 61.7815L89.0722 60.8502V60.7407L89.304 60.6311L89.1877 59.0425L64.5926 52.25L41.3314 62.1101C41.0414 62.2744 40.7514 62.5483 40.5774 62.7674C37.967 65.0134 38.983 70.5457 40.8392 72.9012L51.0901 75.8594L53.8237 76.6811L63.5485 79.5695C65.3048 79.853 67.1024 79.7375 68.8079 79.2312L69.1172 79.1397L76.4842 76.2976L85.1272 72.6275L85.359 72.5179L87.6217 71.532L90 70.4911L89.8837 69.3956Z" fill="#0EA5E9"/>
<path d="M89.8837 69.3956V69.0121L89.7682 68.9574L89.2462 68.7931H89.1877L87.1575 68.1905L85.1272 69.0121L71.4375 74.9282L69.1171 75.969L66.2748 77.1192H66.2168L66.0427 77.0645L64.4185 76.6811L61.2862 75.8594L60.126 75.476H60.0679L58.2117 74.983L57.7477 74.8734L57.6316 74.8186L57.3996 74.7639H57.3416L55.1953 74.2161L45.9141 71.8059L45.74 71.7511L43.4197 71.0938C43.4197 71.0938 43.4197 71.0389 43.3618 71.0389C41.3314 69.3409 41.7955 66.328 42.7816 64.1917L52.701 66.9306H52.759H52.817L54.9633 67.5331H55.0213L55.2533 67.5879L57.5737 68.2453L57.8637 68.3548L58.5598 68.5191L60.9961 69.1765L61.3441 69.286L61.5181 69.3409L62.9104 69.7791L64.0125 70.1077L64.8246 70.3268H64.8826L65.5787 70.4911L65.9268 70.6007L66.1588 70.4911L67.609 69.8338L67.841 69.7243L67.957 69.6695L70.9734 68.4096L75.6142 66.4376L75.9622 66.328L77.9925 65.5063L86.5777 61.8909L86.8095 61.7815L89.0722 60.8502V60.7407L89.304 60.6311L89.1877 59.0425L64.5926 52.25L41.3314 62.1101C41.0414 62.2744 40.7514 62.5483 40.5774 62.7674C37.967 65.0134 38.983 70.5457 40.8392 72.9012L51.0901 75.8594L53.8237 76.6811L63.5485 79.5695C65.3048 79.853 67.1024 79.7375 68.8079 79.2312L69.1172 79.1397L76.4842 76.2976L85.1272 72.6275L85.359 72.5179L87.6217 71.532L90 70.4911L89.8837 69.3956Z" fill="white"/>
<path d="M89.8837 69.3956V69.0121L89.7682 68.9574L89.2462 68.7931H89.1877L87.1575 68.1905L85.1272 69.0121L71.4375 74.9282L69.1171 75.969L66.2748 77.1192H66.2168L66.0427 77.0645L64.4185 76.6811L61.2862 75.8594L60.126 75.476H60.0679L58.2117 74.983L57.7477 74.8734L57.6316 74.8186L57.3996 74.7639H57.3416L55.1953 74.2161L45.9141 71.8059L45.74 71.7511L43.4197 71.0938C43.4197 71.0938 43.4197 71.0389 43.3618 71.0389C41.3314 69.3409 41.7955 66.328 42.7816 64.1917L52.701 66.9306H52.759H52.817L54.9633 67.5331H55.0213L55.2533 67.5879L57.5737 68.2453L57.8637 68.3548L58.5598 68.5191L60.9961 69.1765L61.3441 69.286L61.5181 69.3409L62.9104 69.7791L64.0125 70.1077L64.8246 70.3268H64.8826L65.5787 70.4911L65.9268 70.6007L66.1588 70.4911L67.609 69.8338L67.841 69.7243L67.957 69.6695L70.9734 68.4096L75.6142 66.4376L75.9622 66.328L77.9925 65.5063L86.5777 61.8909L86.8095 61.7815L89.0722 60.8502V60.7407L89.304 60.6311L89.1877 59.0425L64.5926 52.25L41.3314 62.1101C41.0414 62.2744 40.7514 62.5483 40.5774 62.7674C37.967 65.0134 38.983 70.5457 40.8392 72.9012L51.0901 75.8594L53.8237 76.6811L63.5485 79.5695C65.3048 79.853 67.1024 79.7375 68.8079 79.2312L69.1172 79.1397L76.4842 76.2976L85.1272 72.6275L85.359 72.5179L87.6217 71.532L90 70.4911L89.8837 69.3956Z" fill="#0EA5E9"/>
<path d="M83.5027 59.4997L64.8246 54.1862L62.1562 55.5008L80.4285 60.7048L83.5027 59.4997Z" fill="white"/>
<path d="M83.5027 59.4997L64.8246 54.1862L62.1562 55.5008L80.4285 60.7048L83.5027 59.4997Z" fill="white"/>
<path d="M78.6885 61.5005L60.01 56.187L57.3416 57.5017L75.6143 62.7056L78.6885 61.5005Z" fill="white"/>
<path d="M78.6885 61.5005L60.01 56.187L57.3416 57.5017L75.6143 62.7056L78.6885 61.5005Z" fill="white"/>
<path d="M89.8837 69.3956V69.0121L89.7682 68.9574L89.2462 68.7931H89.1877L87.1575 68.1905L85.1272 69.0121L71.4375 74.9282L69.1171 75.969L66.2748 77.1192H66.2168L66.0427 77.0645L64.4185 76.6811L61.2862 75.8594L60.126 75.476H60.0679L58.2117 74.983L57.7477 74.8734L57.6316 74.8186L57.3996 74.7639H57.3416L55.1953 74.2161L45.9141 71.8059L45.74 71.7511L43.4197 71.0938C43.4197 71.0938 43.4197 71.0389 43.3618 71.0389C41.3314 69.3409 41.7955 66.328 42.7816 64.1917L52.701 66.9306H52.759H52.817L54.9633 67.5331H55.0213L55.2533 67.5879L57.5737 68.2453L57.8637 68.3548L58.5598 68.5191L60.9961 69.1765L61.3441 69.286L61.5181 69.3409L62.9104 69.7791L64.0125 70.1077L64.8246 70.3268H64.8826L65.5787 70.4911L65.9268 70.6007L66.1588 70.4911L67.609 69.8338L67.841 69.7243L67.957 69.6695L70.9734 68.4096L75.6142 66.4376L75.9622 66.328L77.9925 65.5063L86.5777 61.8909L86.8095 61.7815L89.0722 60.8502V60.7407L89.304 60.6311L89.1877 59.0425L64.5926 52.25L41.3314 62.1101C41.0414 62.2744 40.7514 62.5483 40.5774 62.7674C37.967 65.0134 38.983 70.5457 40.8392 72.9012L51.0901 75.8594L53.8237 76.6811L63.5485 79.5695C65.3048 79.853 67.1024 79.7375 68.8079 79.2312L69.1172 79.1397L76.4842 76.2976L85.1272 72.6275L85.359 72.5179L87.6217 71.532L90 70.4911L89.8837 69.3956ZM64.8246 54.1862L83.5027 59.4997L80.4285 60.7048L62.1562 55.5009L64.8246 54.1862ZM60.01 56.187L78.6885 61.5006L75.6142 62.7057L57.3415 57.5017L60.01 56.187Z" stroke="#0EA5E9"/>
<path d="M55.875 25.25L36.75 33.125M34.875 52.25L45 54.9631L55.875 58.25" stroke="#0EA5E9" stroke-width="4"/>
</g>
<defs>
<clipPath id="clip0_13_2">
<rect width="90" height="78" fill="white" transform="translate(0 2)"/>
</clipPath>
</defs>
</svg>
