<svg width="0" height="0" class="hidden">
  <symbol version="1.1" xmlns="http://www.w3.org/2000/svg" viewBox="0 0 24 24" id="icon-bookmark">
    <path d="M17.016 3q0.797 0 1.383 0.609t0.586 1.406v15.984l-6.984-3-6.984 3v-15.984q0-0.797 0.586-1.406t1.383-0.609h10.031z"></path>
  </symbol>

  <symbol fill="none" xmlns="http://www.w3.org/2000/svg" viewBox="0 0 122 329" id="icon-center-facing">
    <path d="M76.9823 196.626L82.6118 196.625L85.2898 174.911L76.9811 174.912L76.9823 196.626Z" fill="#FFB6B6"></path>
    <path d="M96.2698 196.498C96.4451 196.793 96.5376 197.746 96.5376 198.089C96.5376 199.145 95.6821 200 94.6269 200H77.1929C76.473 200 75.8894 199.416 75.8894 198.697V197.971C75.8894 197.971 75.027 195.789 76.8026 193.1C76.8026 193.1 79.0095 195.206 82.3071 191.908L83.2795 190.147L90.3186 195.295L94.2203 195.775C95.0739 195.88 95.8307 195.759 96.2698 196.498Z" fill="#2F2E41"></path>
    <path d="M38.1032 196.626L43.7327 196.625L46.4107 174.911L38.1021 174.912L38.1032 196.626Z" fill="#FFB6B6"></path>
    <path d="M57.3907 196.498C57.566 196.793 57.6585 197.746 57.6585 198.089C57.6585 199.145 56.803 200 55.7478 200H38.3138C37.5939 200 37.0103 199.416 37.0103 198.697V197.971C37.0103 197.971 36.1479 195.789 37.9235 193.1C37.9235 193.1 40.1304 195.206 43.428 191.908L44.4004 190.147L51.4396 195.295L55.3412 195.775C56.1948 195.88 56.9516 195.759 57.3907 196.498Z" fill="#2F2E41"></path>
    <path d="M78.6651 94.073L80.7514 96.8172C80.7514 96.8172 80.9405 98.0985 84.1048 108.539L85.8408 187.013H75.3383L61.3027 124.224L46.7339 188.272L37.6307 188.809L38.0576 116.012C38.0576 116.012 37.099 113.479 37.9144 110.51C41.0353 99.1482 40.8554 102.144 40.9834 98.2542C41.1458 93.3227 78.6651 94.073 78.6651 94.073Z" fill="#2F2E41"></path>
    <path d="M62.1108 28.1291C68.1967 28.1291 73.1304 23.1954 73.1304 17.1095C73.1304 11.0235 68.1967 6.08986 62.1108 6.08986C56.0248 6.08986 51.0912 11.0235 51.0912 17.1095C51.0912 23.1954 56.0248 28.1291 62.1108 28.1291Z" fill="#FEB8B8"></path>
    <path d="M56.1861 30.2024L50.0885 33.5724C45.0011 33.9407 41.3526 35.2943 38.1107 36.9264L41.6859 68.2721L41.0353 99.1482C41.0353 99.1482 61.3107 113.038 80.7527 96.8166V54.8635L79.8399 38.1796C79.7335 36.2342 78.0131 34.725 76.0817 34.9806C74.9787 35.1265 73.7086 35.0983 72.4112 34.6658L68.3755 29.9824L56.1861 30.2024Z" fill="#0EA5E9"></path>
    <path d="M90.6616 4.3435C91.2765 5.73034 91.5272 7.14108 91.4457 8.36404L98.138 21.2055L91.9344 24.2112L85.8136 10.8612C84.8526 10.1005 83.9754 8.96751 83.3605 7.58068C81.9557 4.41244 82.4514 1.11942 84.4675 0.225499C86.4837 -0.668424 89.2568 1.17527 90.6616 4.3435Z" fill="#FFB6B6"></path>
    <path d="M72.4112 34.6658L74.2572 35.5101C75.951 33.6894 81.0531 33.9758 83.5286 34.2119L94.4072 35.2491L89.3272 19.3563L96.975 16.2787L106.113 33.8658C106.666 36.8493 105.426 39.8807 102.941 41.6214L79.6252 54.8622L76.915 36.7257L72.4112 34.6658Z" fill="#0EA5E9"></path>
    <path d="M16.0293 109.212C16.1454 107.699 16.5936 106.338 17.2452 105.3L17.4414 90.8207L24.3285 91.1156L23.3879 105.772C23.8734 106.897 24.1086 108.311 23.9924 109.823C23.7271 113.279 21.7294 115.943 19.5305 115.774C17.3315 115.605 15.764 112.667 16.0293 109.212Z" fill="#FFB6B6"></path>
    <path d="M43.2144 40.8871L40.0496 36.0799C40.0496 36.0799 34.888 37.0651 32.1454 40.957C29.4027 44.8488 19.0359 68.7169 19.0359 68.7169L17.0451 95.661L24.756 94.073L28.4766 73.6388L40.4401 57.2907L43.2144 40.8871Z" fill="#0EA5E9"></path>
    <path d="M73.1304 18.5711C73.5443 16.4706 67.1571 13.4132 67.1684 13.4167C68.1598 13.7332 66.6005 15.5497 65.582 15.3356C65.582 15.3356 64.0855 16.0969 64.9009 16.7517C62.09 16.5108 58.3342 13.8394 55.5232 13.5985C54.3926 13.4997 53.9547 16.226 53.2442 17.1094C52.1693 18.4624 51.0912 15.7717 51.489 19.3563H51.3284C50.7415 17.9416 50.1546 16.5021 49.9631 14.9824C49.7777 13.4626 50.0372 11.8254 51.0071 10.6393C51.3284 10.2377 50.0663 8.91572 50.4061 8.53269C51.4872 7.29092 53.5833 6.61124 54.5471 5.283C55.8228 3.52344 57.2743 4.76539 59.9306 3.2856C60.6255 2.89844 61.8334 2.7591 62.6031 2.96011L64.4009 3.42961C64.0504 3.95531 64.4841 4.64865 65.1102 4.56355L67.4528 4.24509C68.3363 4.52925 69.1765 4.94935 69.5719 5.75866C69.8128 6.24055 69.8561 6.80273 70.0414 7.30933C70.3812 8.2422 71.1843 8.91562 71.8268 9.66931C73.554 10.1723 73.6468 11.4635 73.6468 13.6287C75.2564 14.5316 73.5769 16.5507 73.1304 18.5711Z" fill="#2F2E41"></path>
    <path d="M111.615 295.036L17.9918 295.621C14.7116 295.641 11.7226 294.221 9.55011 291.917C7.37751 289.613 6.01793 286.421 5.99595 282.897L5.95332 276.069C5.93134 272.546 7.25102 269.338 9.39465 267.006C11.5383 264.675 14.5091 263.218 17.7896 263.197L111.413 262.613C104.31 275.841 104.837 281.463 111.615 295.036Z" fill="#6366F1"></path>
    <path fill-rule="evenodd" clip-rule="evenodd" d="M110.677 292.4C105.807 282 105.354 275.614 110.344 265.262L18.0994 265.838C15.5052 265.854 13.0524 266.943 11.2315 268.863C9.41063 270.784 8.39603 273.352 8.4129 276.054L8.4555 282.882C8.47237 285.584 9.51886 288.139 11.3636 290.037C13.2084 291.934 15.6745 292.993 18.2687 292.977L110.677 292.4Z" fill="#F0F9FF"></path>
    <path fill-rule="evenodd" clip-rule="evenodd" d="M108.242 270.306C108.42 269.785 108.615 269.255 108.826 268.716L10.8172 269.328C10.4009 269.825 10.0345 270.358 9.72125 270.92L108.242 270.306Z" fill="#D1D5DB"></path>
    <path fill-rule="evenodd" clip-rule="evenodd" d="M107.23 274.045C107.332 273.522 107.454 272.993 107.593 272.457L8.82464 273.073C8.67511 273.59 8.56509 274.121 8.49663 274.661L107.23 274.045Z" fill="#D1D5DB"></path>
    <path fill-rule="evenodd" clip-rule="evenodd" d="M106.815 277.78C106.828 277.253 106.861 276.725 106.914 276.194L8.41752 276.809L8.42741 278.394L106.815 277.78Z" fill="#D1D5DB"></path>
    <path fill-rule="evenodd" clip-rule="evenodd" d="M107.045 281.512C106.967 280.981 106.909 280.453 106.869 279.928L8.44158 280.542L8.45147 282.127L107.045 281.512Z" fill="#D1D5DB"></path>
    <path fill-rule="evenodd" clip-rule="evenodd" d="M107.873 285.24C107.717 284.705 107.577 284.178 107.455 283.657L8.5567 284.274C8.63177 284.813 8.74843 285.342 8.90439 285.857L107.873 285.24Z" fill="#D1D5DB"></path>
    <path fill-rule="evenodd" clip-rule="evenodd" d="M109.177 288.964C108.962 288.428 108.76 287.901 108.574 287.383L9.82795 287.999C10.1482 288.557 10.5213 289.086 10.9438 289.577L109.177 288.964Z" fill="#D1D5DB"></path>
    <path d="M108.562 231.486L19.617 231.155C16.5008 231.143 13.6747 229.766 11.6328 227.556C9.59066 225.347 8.3293 222.301 8.3418 218.954L8.36597 212.468C8.37843 209.121 9.66246 206.085 11.721 203.89C13.7793 201.696 16.6154 200.34 19.732 200.351L108.677 200.683C101.804 213.181 102.252 218.527 108.562 231.486Z" fill="#0EA5E9"></path>
    <path fill-rule="evenodd" clip-rule="evenodd" d="M107.696 228.973C103.169 219.047 102.798 212.976 107.637 203.189L20.0012 202.863C17.5367 202.854 15.1963 203.865 13.4483 205.672C11.7004 207.479 10.7122 209.909 10.7026 212.476L10.6784 218.963C10.6689 221.53 11.6388 223.967 13.3733 225.787C15.1078 227.608 17.4406 228.636 19.9052 228.646L107.696 228.973Z" fill="#F0F9FF"></path>
    <path fill-rule="evenodd" clip-rule="evenodd" d="M105.592 207.96C105.766 207.467 105.956 206.966 106.162 206.456L13.0504 206.109C12.6502 206.577 12.2971 207.08 11.9942 207.612L105.592 207.96Z" fill="#D1D5DB"></path>
    <path fill-rule="evenodd" clip-rule="evenodd" d="M104.595 211.503C104.697 211.007 104.818 210.506 104.956 209.998L11.122 209.649C10.9751 210.138 10.8655 210.641 10.7954 211.154L104.595 211.503Z" fill="#D1D5DB"></path>
    <path fill-rule="evenodd" clip-rule="evenodd" d="M104.166 215.048C104.183 214.548 104.219 214.046 104.274 213.542L10.7 213.193L10.6943 214.7L104.166 215.048Z" fill="#D1D5DB"></path>
    <path fill-rule="evenodd" clip-rule="evenodd" d="M104.349 218.595C104.28 218.09 104.229 217.588 104.197 217.088L10.6874 216.74L10.6818 218.246L104.349 218.595Z" fill="#D1D5DB"></path>
    <path fill-rule="evenodd" clip-rule="evenodd" d="M105.1 222.144C104.957 221.635 104.83 221.133 104.718 220.636L10.7615 220.286C10.8278 220.799 10.9335 221.303 11.0768 221.793L105.1 222.144Z" fill="#D1D5DB"></path>
    <path fill-rule="evenodd" clip-rule="evenodd" d="M106.304 225.695C106.104 225.184 105.918 224.681 105.746 224.187L11.9339 223.837C12.2328 224.371 12.5823 224.876 12.9789 225.347L106.304 225.695Z" fill="#D1D5DB"></path>
    <path d="M109.505 264.108L17.023 263.645C13.7828 263.629 10.8462 262.193 8.72597 259.893C6.60564 257.593 5.29817 254.425 5.3156 250.945L5.34936 244.2C5.36677 240.72 6.70591 237.565 8.84915 235.286C10.9923 233.008 13.9429 231.601 17.1834 231.617L109.665 232.08C102.502 245.067 102.96 250.626 109.505 264.108Z" fill="#EC4899"></path>
    <path fill-rule="evenodd" clip-rule="evenodd" d="M108.608 261.494C103.913 251.167 103.536 244.854 108.58 234.685L17.4601 234.229C14.8976 234.216 12.4628 235.264 10.6429 237.141C8.82301 239.018 7.79231 241.543 7.77895 244.212L7.7452 250.957C7.73183 253.626 8.73708 256.161 10.5381 258.056C12.3392 259.951 14.7634 261.024 17.3259 261.037L108.608 261.494Z" fill="#F0F9FF"></path>
    <path fill-rule="evenodd" clip-rule="evenodd" d="M106.448 239.643C106.629 239.131 106.828 238.61 107.043 238.08L10.2285 237.595C9.81175 238.081 9.44391 238.604 9.12826 239.156L106.448 239.643Z" fill="#D1D5DB"></path>
    <path fill-rule="evenodd" clip-rule="evenodd" d="M105.407 243.325C105.513 242.81 105.639 242.289 105.783 241.761L8.21871 241.273C8.06528 241.782 7.95071 242.304 7.87709 242.837L105.407 243.325Z" fill="#D1D5DB"></path>
    <path fill-rule="evenodd" clip-rule="evenodd" d="M104.955 247.011C104.974 246.49 105.012 245.969 105.07 245.445L7.77518 244.958L7.76735 246.524L104.955 247.011Z" fill="#D1D5DB"></path>
    <path fill-rule="evenodd" clip-rule="evenodd" d="M105.141 250.699C105.07 250.174 105.018 249.652 104.985 249.132L7.75748 248.645L7.74964 250.211L105.141 250.699Z" fill="#D1D5DB"></path>
    <path fill-rule="evenodd" clip-rule="evenodd" d="M105.917 254.39C105.769 253.861 105.637 253.338 105.522 252.822L7.8297 252.333C7.8979 252.866 8.0072 253.39 8.15554 253.901L105.917 254.39Z" fill="#D1D5DB"></path>
    <path fill-rule="evenodd" clip-rule="evenodd" d="M107.164 258.084C106.957 257.552 106.764 257.029 106.586 256.515L9.04401 256.026C9.35413 256.582 9.71679 257.108 10.1287 257.598L107.164 258.084Z" fill="#D1D5DB"></path>
  </symbol>
  <symbol version="1.1" xmlns="http://www.w3.org/2000/svg" viewBox="0 0 24 24" id="icon-circle-with-minus">
    <path d="M23 12c0-3.037-1.232-5.789-3.222-7.778s-4.741-3.222-7.778-3.222-5.789 1.232-7.778 3.222-3.222 4.741-3.222 7.778 1.232 5.789 3.222 7.778 4.741 3.222 7.778 3.222 5.789-1.232 7.778-3.222 3.222-4.741 3.222-7.778zM21 12c0 2.486-1.006 4.734-2.636 6.364s-3.878 2.636-6.364 2.636-4.734-1.006-6.364-2.636-2.636-3.878-2.636-6.364 1.006-4.734 2.636-6.364 3.878-2.636 6.364-2.636 4.734 1.006 6.364 2.636 2.636 3.878 2.636 6.364zM8 13h8c0.552 0 1-0.448 1-1s-0.448-1-1-1h-8c-0.552 0-1 0.448-1 1s0.448 1 1 1z"></path>
  </symbol>
  <symbol version="1.1" xmlns="http://www.w3.org/2000/svg" viewBox="0 0 24 24" id="icon-circle-with-plus">
    <path d="M23 12c0-3.037-1.232-5.789-3.222-7.778s-4.741-3.222-7.778-3.222-5.789 1.232-7.778 3.222-3.222 4.741-3.222 7.778 1.232 5.789 3.222 7.778 4.741 3.222 7.778 3.222 5.789-1.232 7.778-3.222 3.222-4.741 3.222-7.778zM21 12c0 2.486-1.006 4.734-2.636 6.364s-3.878 2.636-6.364 2.636-4.734-1.006-6.364-2.636-2.636-3.878-2.636-6.364 1.006-4.734 2.636-6.364 3.878-2.636 6.364-2.636 4.734 1.006 6.364 2.636 2.636 3.878 2.636 6.364zM8 13h3v3c0 0.552 0.448 1 1 1s1-0.448 1-1v-3h3c0.552 0 1-0.448 1-1s-0.448-1-1-1h-3v-3c0-0.552-0.448-1-1-1s-1 0.448-1 1v3h-3c-0.552 0-1 0.448-1 1s0.448 1 1 1z"></path>
  </symbol>
  <symbol version="1.1" xmlns="http://www.w3.org/2000/svg" viewBox="0 0 20 20" id="icon-funnel">
    <path d="M10 1c-4.908 0-8 1.512-8 3.001v2c0 0.918 6 6 6 6v6c-0.001 0.684 1 1 2 1s2.001-0.316 2-1v-6c0 0 6-5.082 6-6v-2c0-1.489-3.092-3.001-8-3.001zM10 6.123c-3.591-0.001-6.138-1.333-6.138-1.831-0.002-0.495 2.548-1.831 6.138-1.829 3.59-0.002 6.14 1.334 6.138 1.828 0 0.499-2.547 1.831-6.138 1.832z"></path>
  </symbol>
  <symbol version="1.1" xmlns="http://www.w3.org/2000/svg" viewBox="0 0 32 32" id="icon-github">
    <path d="M16 0.396c-8.84 0-16 7.164-16 16 0 7.071 4.584 13.067 10.94 15.18 0.8 0.151 1.093-0.344 1.093-0.769 0-0.38-0.013-1.387-0.020-2.72-4.451 0.965-5.389-2.147-5.389-2.147-0.728-1.847-1.78-2.34-1.78-2.34-1.449-0.992 0.112-0.972 0.112-0.972 1.607 0.112 2.451 1.648 2.451 1.648 1.427 2.447 3.745 1.74 4.66 1.331 0.144-1.035 0.556-1.74 1.013-2.14-3.553-0.4-7.288-1.776-7.288-7.907 0-1.747 0.62-3.173 1.647-4.293-0.18-0.404-0.72-2.031 0.14-4.235 0 0 1.34-0.429 4.4 1.64 1.28-0.356 2.64-0.532 4-0.54 1.36 0.008 2.72 0.184 4 0.54 3.040-2.069 4.38-1.64 4.38-1.64 0.86 2.204 0.32 3.831 0.16 4.235 1.020 1.12 1.64 2.547 1.64 4.293 0 6.147-3.74 7.5-7.3 7.893 0.56 0.48 1.080 1.461 1.080 2.96 0 2.141-0.020 3.861-0.020 4.381 0 0.42 0.28 0.92 1.1 0.76 6.401-2.099 10.981-8.099 10.981-15.159 0-8.836-7.164-16-16-16z"></path>
  </symbol>
  <symbol fill="none" xmlns="http://www.w3.org/2000/svg" viewBox="0 0 643 496" id="icon-hero">
    <g clip-path="url(#clip0_12_110)">
      <path d="M409.684 371.304V490.698H128.246C96.1802 490.698 70.091 463.917 70.091 431.001C70.091 398.085 96.1802 371.304 128.246 371.304H409.684Z" fill="#F0F9FF"></path>
      <path d="M416.596 489.78C416.596 490.997 416.141 492.165 415.33 493.026C414.52 493.887 413.422 494.371 412.276 494.372H123.233C107.535 494.372 92.4795 487.743 81.379 475.945C70.2785 464.147 64.0423 448.145 64.0423 431.46C64.0423 414.775 70.2785 398.773 81.379 386.975C92.4795 375.176 107.535 368.548 123.233 368.548H412.276C413.422 368.548 414.521 369.032 415.331 369.893C416.141 370.755 416.596 371.923 416.596 373.14C416.596 374.358 416.141 375.526 415.331 376.388C414.521 377.249 413.422 377.733 412.276 377.733H123.233C109.827 377.733 96.9691 383.393 87.4891 393.469C78.0091 403.545 72.6833 417.211 72.6833 431.46C72.6833 445.709 78.0091 459.375 87.4891 469.451C96.9691 479.527 109.827 485.187 123.233 485.187H412.276C413.422 485.188 414.52 485.672 415.33 486.533C416.141 487.394 416.596 488.562 416.596 489.78Z" fill="#0EA5E9"></path>
      <path d="M409.684 398.856H107.247C107.018 398.856 106.798 398.759 106.636 398.587C106.474 398.415 106.383 398.181 106.383 397.938C106.383 397.694 106.474 397.461 106.636 397.288C106.798 397.116 107.018 397.019 107.247 397.019H409.684C409.913 397.019 410.132 397.116 410.294 397.288C410.457 397.461 410.548 397.694 410.548 397.938C410.548 398.181 410.457 398.415 410.294 398.587C410.132 398.759 409.913 398.856 409.684 398.856Z" fill="#D1D5DB"></path>
      <path d="M409.684 420.898H107.247C107.018 420.898 106.798 420.801 106.636 420.629C106.474 420.457 106.383 420.223 106.383 419.98C106.383 419.736 106.474 419.503 106.636 419.33C106.798 419.158 107.018 419.061 107.247 419.061H409.684C409.913 419.061 410.132 419.158 410.295 419.33C410.457 419.503 410.548 419.736 410.548 419.98C410.548 420.223 410.457 420.457 410.295 420.629C410.132 420.801 409.913 420.898 409.684 420.898Z" fill="#D1D5DB"></path>
      <path d="M409.684 442.94H107.247C107.018 442.94 106.798 442.843 106.636 442.671C106.474 442.499 106.383 442.265 106.383 442.022C106.383 441.778 106.474 441.545 106.636 441.372C106.798 441.2 107.018 441.103 107.247 441.103H409.684C409.913 441.103 410.132 441.2 410.295 441.372C410.457 441.545 410.548 441.778 410.548 442.022C410.548 442.265 410.457 442.499 410.295 442.671C410.132 442.843 409.913 442.94 409.684 442.94Z" fill="#D1D5DB"></path>
      <path d="M409.684 464.982H107.247C107.018 464.982 106.798 464.885 106.636 464.713C106.474 464.541 106.383 464.307 106.383 464.064C106.383 463.82 106.474 463.587 106.636 463.414C106.798 463.242 107.018 463.145 107.247 463.145H409.684C409.913 463.145 410.132 463.242 410.295 463.414C410.457 463.587 410.548 463.82 410.548 464.064C410.548 464.307 410.457 464.541 410.295 464.713C410.132 464.885 409.913 464.982 409.684 464.982Z" fill="#D1D5DB"></path>
      <path d="M627.193 393.778L556.713 486.748L337.563 299.069C312.594 277.686 308.088 239.434 327.519 213.803C346.95 188.172 383.074 184.716 408.044 206.099L627.193 393.778Z" fill="#F0F9FF"></path>
      <path d="M562.638 490.643C561.919 491.591 560.875 492.196 559.736 492.327C558.597 492.457 557.455 492.101 556.563 491.337L331.491 298.587C319.267 288.118 311.456 272.917 309.777 256.328C308.098 239.738 312.689 223.119 322.538 210.127C332.388 197.134 346.69 188.833 362.298 187.048C377.906 185.264 393.543 190.142 405.767 200.611L630.838 393.361C631.281 393.74 631.648 394.207 631.921 394.736C632.193 395.265 632.364 395.847 632.425 396.446C632.486 397.046 632.435 397.653 632.275 398.232C632.116 398.811 631.85 399.35 631.494 399.82C631.138 400.29 630.698 400.68 630.2 400.969C629.702 401.258 629.155 401.44 628.59 401.505C628.026 401.569 627.455 401.515 626.911 401.344C626.366 401.174 625.859 400.892 625.417 400.513L400.345 207.762C395.176 203.332 389.237 200.028 382.866 198.038C376.496 196.048 369.819 195.412 363.217 196.165C356.615 196.919 350.217 199.047 344.389 202.429C338.561 205.811 333.417 210.38 329.251 215.876C325.085 221.371 321.978 227.685 320.109 234.457C318.239 241.229 317.643 248.326 318.354 255.343C319.066 262.359 321.071 269.158 324.255 275.351C327.44 281.544 331.741 287.01 336.913 291.435L561.984 484.186C562.876 484.95 563.446 486.06 563.569 487.271C563.691 488.481 563.356 489.694 562.638 490.643Z" fill="#38bdf8"></path>
      <path d="M610.929 415.233L375.428 213.551C375.339 213.475 375.266 213.381 375.211 213.276C375.157 213.17 375.123 213.054 375.111 212.934C375.098 212.814 375.109 212.692 375.141 212.577C375.173 212.461 375.226 212.353 375.297 212.259C375.368 212.165 375.456 212.087 375.556 212.029C375.655 211.972 375.765 211.935 375.877 211.922C375.99 211.909 376.104 211.92 376.213 211.954C376.322 211.988 376.424 212.045 376.512 212.12L612.013 413.802C612.101 413.878 612.175 413.971 612.23 414.077C612.284 414.183 612.318 414.3 612.331 414.42C612.343 414.54 612.333 414.661 612.301 414.777C612.269 414.893 612.216 415.001 612.144 415.095C612.073 415.189 611.985 415.267 611.886 415.325C611.786 415.382 611.676 415.419 611.564 415.432C611.451 415.444 611.336 415.433 611.227 415.399C611.119 415.365 611.017 415.309 610.929 415.233Z" fill="#D1D5DB"></path>
      <path d="M597.917 432.396L362.416 230.714C362.238 230.561 362.124 230.339 362.1 230.097C362.075 229.855 362.142 229.613 362.286 229.424C362.43 229.234 362.638 229.113 362.866 229.087C363.094 229.061 363.322 229.131 363.5 229.284L599.001 430.966C599.09 431.042 599.163 431.135 599.218 431.241C599.272 431.347 599.307 431.463 599.319 431.583C599.331 431.703 599.321 431.825 599.289 431.94C599.257 432.056 599.204 432.164 599.133 432.258C599.061 432.352 598.973 432.43 598.874 432.488C598.774 432.546 598.665 432.582 598.552 432.595C598.439 432.608 598.325 432.597 598.216 432.563C598.107 432.529 598.005 432.472 597.917 432.396Z" fill="#D1D5DB"></path>
      <path d="M584.905 449.56L349.404 247.878C349.226 247.725 349.112 247.503 349.087 247.261C349.063 247.019 349.13 246.776 349.273 246.587C349.417 246.397 349.626 246.276 349.854 246.25C350.082 246.224 350.31 246.295 350.488 246.448L585.989 448.13C586.078 448.206 586.151 448.299 586.206 448.405C586.26 448.511 586.294 448.627 586.306 448.747C586.319 448.867 586.308 448.988 586.276 449.104C586.244 449.219 586.191 449.327 586.12 449.421C586.049 449.515 585.961 449.593 585.861 449.651C585.762 449.709 585.653 449.745 585.54 449.758C585.427 449.771 585.313 449.76 585.204 449.726C585.095 449.692 584.993 449.636 584.905 449.56Z" fill="#D1D5DB"></path>
      <path d="M571.893 466.724L336.392 265.042C336.304 264.966 336.231 264.873 336.176 264.767C336.122 264.661 336.087 264.545 336.075 264.425C336.063 264.305 336.073 264.184 336.105 264.068C336.137 263.952 336.19 263.844 336.262 263.75C336.333 263.656 336.421 263.578 336.52 263.52C336.62 263.463 336.729 263.426 336.842 263.413C336.955 263.4 337.069 263.411 337.178 263.445C337.287 263.479 337.388 263.536 337.477 263.611L572.978 465.293C573.066 465.369 573.14 465.462 573.194 465.568C573.249 465.674 573.283 465.791 573.295 465.911C573.308 466.031 573.298 466.152 573.266 466.268C573.234 466.384 573.18 466.492 573.109 466.586C573.038 466.68 572.95 466.758 572.85 466.816C572.751 466.873 572.641 466.91 572.528 466.923C572.415 466.935 572.301 466.924 572.192 466.89C572.083 466.856 571.982 466.8 571.893 466.724Z" fill="#D1D5DB"></path>
      <path d="M642.029 495.29H0.864103C0.634929 495.29 0.41514 495.193 0.253089 495.021C0.0910385 494.849 0 494.615 0 494.372C0 494.128 0.0910385 493.894 0.253089 493.722C0.41514 493.55 0.634929 493.453 0.864103 493.453H642.029C642.258 493.453 642.478 493.55 642.64 493.722C642.802 493.894 642.893 494.128 642.893 494.372C642.893 494.615 642.802 494.849 642.64 495.021C642.478 495.193 642.258 495.29 642.029 495.29Z" fill="#D1D5DB"></path>
      <path d="M292.137 358.754L282.258 358.753L277.56 318.255L292.14 318.257L292.137 358.754Z" fill="#FFB8B8"></path>
      <path d="M275.202 355.753H294.253V368.503H263.206C263.206 366.829 263.516 365.171 264.119 363.624C264.722 362.077 265.606 360.672 266.72 359.488C267.833 358.304 269.156 357.365 270.611 356.724C272.067 356.083 273.626 355.753 275.202 355.753Z" fill="#075985"></path>
      <path d="M191.214 358.754L181.336 358.753L176.637 318.255L191.217 318.257L191.214 358.754Z" fill="#FFB8B8"></path>
      <path d="M174.279 355.753H193.331V368.503H162.284C162.284 366.829 162.594 365.171 163.197 363.624C163.8 362.077 164.683 360.672 165.797 359.488C166.911 358.304 168.233 357.365 169.689 356.724C171.144 356.083 172.704 355.753 174.279 355.753Z" fill="#075985"></path>
      <path d="M224.21 58.3498V53.7577C224.21 45.9022 227.146 38.3685 232.372 32.8139C237.598 27.2592 244.686 24.1387 252.077 24.1387C259.468 24.1387 266.556 27.2592 271.782 32.8139C277.008 38.3685 279.944 45.9022 279.944 53.7577V58.3498C279.944 64.013 277.828 69.4443 274.06 73.4488C270.292 77.4533 265.182 79.703 259.854 79.703H244.3C241.662 79.703 239.049 79.1507 236.612 78.0776C234.174 77.0045 231.96 75.4317 230.094 73.4488C228.228 71.466 226.749 69.112 225.739 66.5213C224.729 63.9306 224.21 61.154 224.21 58.3498Z" fill="#0C4A6E"></path>
      <path d="M252.077 81.2833C263.798 81.2833 273.3 71.184 273.3 58.726C273.3 46.2679 263.798 36.1687 252.077 36.1687C240.356 36.1687 230.854 46.2679 230.854 58.726C230.854 71.184 240.356 81.2833 252.077 81.2833Z" fill="#FFB8B8"></path>
      <path d="M136.636 136.252C137.497 135.388 138.526 134.735 139.651 134.339C140.775 133.943 141.968 133.814 143.144 133.961C144.321 134.108 145.452 134.527 146.46 135.189C147.468 135.851 148.326 136.74 148.976 137.793L167.169 134.135L171.957 145.344L146.196 150.126C144.459 151.168 142.423 151.497 140.474 151.051C138.524 150.604 136.797 149.413 135.618 147.702C134.44 145.992 133.893 143.882 134.08 141.772C134.268 139.662 135.177 137.698 136.636 136.252Z" fill="#FFB8B8"></path>
      <path d="M235.769 95.8723L205.935 116.761L155.594 133.847C154.926 134.075 154.354 134.541 153.974 135.167C153.594 135.793 153.43 136.54 153.509 137.28L154.608 147.334C154.656 147.779 154.792 148.208 155.006 148.594C155.22 148.98 155.507 149.314 155.85 149.575C156.192 149.836 156.582 150.018 156.995 150.109C157.408 150.201 157.834 150.2 158.246 150.106L205.624 139.312C207.917 138.793 210.085 137.778 211.994 136.331L245.511 110.986C246.726 110.062 247.695 108.82 248.325 107.38C248.955 105.94 249.223 104.351 249.104 102.768C248.981 101.183 248.472 99.6595 247.627 98.347C246.782 97.0345 245.63 95.9785 244.285 95.2827C242.939 94.5869 241.446 94.2754 239.953 94.3788C238.46 94.4821 237.018 94.9969 235.769 95.8723Z" fill="#D1D5DB"></path>
      <path d="M282.435 347.262C281.677 347.262 280.935 347.027 280.3 346.587C279.665 346.146 279.164 345.519 278.86 344.781L233.572 225.845C233.466 225.587 233.289 225.37 233.063 225.222C232.838 225.075 232.575 225.004 232.311 225.02C232.047 225.036 231.793 225.137 231.585 225.311C231.376 225.484 231.223 225.721 231.145 225.99L194.197 341.779C194.041 342.318 193.783 342.817 193.439 343.246C193.095 343.675 192.672 344.024 192.196 344.273C191.72 344.522 191.201 344.664 190.671 344.692C190.141 344.72 189.612 344.632 189.115 344.434L176.725 339.496C176.053 339.23 175.463 338.771 175.021 338.171C174.579 337.57 174.302 336.851 174.222 336.093C168.648 284.485 217.254 154.219 217.746 152.91L217.882 152.547L262.191 162.964L262.283 163.071C279.961 183.568 294.491 312.849 297.225 338.557C297.326 339.485 297.128 340.423 296.661 341.215C296.194 342.008 295.488 342.608 294.657 342.916L283.721 347.027C283.308 347.182 282.873 347.262 282.435 347.262Z" fill="#0C4A6E"></path>
      <path d="M244.258 167.157C233.523 167.157 221.554 164.882 217.87 155.493L217.786 155.277L217.9 155.077C220.808 150.006 224.651 141.356 222.586 139.732C218.516 136.534 216.542 131.273 216.717 124.095C217.098 108.514 227.087 94.6794 241.574 89.6708C245.617 88.2953 249.733 87.1692 253.899 86.298C256.936 85.6467 260.071 85.7183 263.079 86.5078C266.086 87.2973 268.893 88.785 271.295 90.8641C273.728 92.9568 275.695 95.5963 277.054 98.5928C278.413 101.589 279.13 104.869 279.155 108.195C279.307 124.847 276.895 148.039 264.541 163.962C263.962 164.7 263.156 165.198 262.266 165.368C256.323 166.511 250.298 167.109 244.258 167.157Z" fill="#D1D5DB"></path>
      <path d="M240.265 166.534C240.849 164.306 242.237 162.414 244.126 161.268C246.016 160.122 248.255 159.815 250.356 160.413C250.785 160.541 251.204 160.706 251.607 160.906L265.421 147.544L275.029 154.423L255.274 173.004C254.382 174.713 252.977 176.056 251.284 176.82C249.591 177.583 247.706 177.722 245.93 177.216C244.895 176.915 243.927 176.399 243.081 175.698C242.235 174.997 241.528 174.124 241.001 173.131C240.474 172.137 240.138 171.043 240.012 169.911C239.885 168.778 239.971 167.631 240.265 166.534Z" fill="#FFB8B8"></path>
      <path d="M263.233 166.703C262.337 166.704 261.468 166.375 260.774 165.771L255.327 161.04C254.873 160.645 254.508 160.147 254.261 159.581C254.014 159.016 253.89 158.399 253.899 157.775C253.908 157.152 254.05 156.539 254.314 155.982C254.577 155.426 254.956 154.939 255.421 154.56L278.269 135.935C278.54 135.713 278.718 135.386 278.764 135.026C278.81 134.666 278.72 134.301 278.514 134.011L264.412 114.195C262.773 111.9 261.952 109.063 262.092 106.187C262.232 103.31 263.326 100.579 265.179 98.4768C267.13 96.2366 269.803 94.8581 272.666 94.6147C275.529 94.3713 278.374 95.2808 280.636 97.1628L280.725 97.2628L295.451 119.674C297.043 121.001 298.325 122.702 299.197 124.643C300.069 126.583 300.507 128.712 300.477 130.863C300.447 133.013 299.95 135.127 299.024 137.039C298.098 138.952 296.769 140.611 295.14 141.887L265.548 165.893C264.878 166.419 264.066 166.703 263.233 166.703Z" fill="#D1D5DB"></path>
      <path d="M233.278 52.3801V41.1881L252.077 32.4631L270.002 41.1881V52.3801C270.002 52.8672 269.82 53.3344 269.496 53.6789C269.172 54.0234 268.732 54.2169 268.274 54.2169H235.006C234.548 54.2169 234.108 54.0234 233.784 53.6789C233.46 53.3344 233.278 52.8672 233.278 52.3801Z" fill="#0C4A6E"></path>
      <path d="M251.214 25.6235C248.45 16.2203 254.255 5.44372 262.837 1.72168C271.419 -2.00037 281.686 0.601455 288.927 6.75083C296.169 12.9002 300.661 22.1108 303.042 31.6319C305.423 41.1529 305.874 51.081 306.314 60.9215C316.858 62.98 324.031 76.2722 320.378 86.9846C316.725 97.6971 303.206 103.019 293.869 97.42C284.532 91.8209 281.828 76.7697 288.567 67.9078C291.755 63.7146 293.536 58.5105 293.628 53.1199C293.72 47.7293 292.116 42.4603 289.072 38.1474C286.029 33.8345 281.718 30.7243 276.823 29.3093C271.928 27.8943 266.729 28.2555 262.049 30.3356C256.853 32.6453 250.332 26.6441 251.214 25.6235Z" fill="#0C4A6E"></path>
      <path d="M174.303 88.9259H119.654C117.739 88.9259 115.999 88.0861 114.74 86.7331C113.48 85.3804 112.698 83.5122 112.698 81.4557V77.4702C112.698 75.4138 113.48 73.5456 114.74 72.1927C115.999 70.8399 117.739 70 119.654 70H174.303C170.108 77.6949 170.396 80.9784 174.303 88.9258V88.9259Z" fill="#38BDF8"></path>
      <path fill-rule="evenodd" clip-rule="evenodd" d="M173.765 87.3837C170.96 81.2957 170.719 77.5664 173.669 71.5425H119.825C118.311 71.5425 116.875 72.1691 115.805 73.2834C114.735 74.3978 114.134 75.893 114.134 77.4703V81.4558C114.134 83.033 114.735 84.5283 115.805 85.6426C116.875 86.7569 118.311 87.3837 119.825 87.3837L173.765 87.3837Z" fill="#D1D5DB"></path>
      <path fill-rule="evenodd" clip-rule="evenodd" d="M172.424 74.4784C172.529 74.1751 172.645 73.8667 172.771 73.553H115.562C115.317 73.8413 115.101 74.1513 114.916 74.4784H172.424Z" fill="#F0F9FF"></path>
      <path fill-rule="evenodd" clip-rule="evenodd" d="M171.819 76.6574C171.881 76.3524 171.954 76.0441 172.037 75.7319H114.385C114.296 76.0331 114.23 76.3424 114.188 76.6574H171.82H171.819Z" fill="#F0F9FF"></path>
      <path fill-rule="evenodd" clip-rule="evenodd" d="M171.564 78.8363C171.573 78.5289 171.594 78.2208 171.627 77.9109H114.134V78.8363H171.563H171.564Z" fill="#F0F9FF"></path>
      <path fill-rule="evenodd" clip-rule="evenodd" d="M171.684 81.015C171.641 80.7049 171.609 80.3968 171.587 80.0896H114.134V81.015H171.685H171.684Z" fill="#F0F9FF"></path>
      <path fill-rule="evenodd" clip-rule="evenodd" d="M172.154 83.1939C172.065 82.8815 171.985 82.5733 171.916 82.2686H114.188C114.23 82.5834 114.296 82.8928 114.385 83.1939H172.154H172.154Z" fill="#F0F9FF"></path>
      <path fill-rule="evenodd" clip-rule="evenodd" d="M172.902 85.373C172.778 85.0591 172.662 84.7507 172.555 84.4475H114.916C115.101 84.7746 115.317 85.0845 115.562 85.373H172.901H172.902Z" fill="#F0F9FF"></path>
      <path d="M112.698 107.868H167.347C169.261 107.868 171.001 107.028 172.261 105.675C173.52 104.323 174.302 102.455 174.302 100.398V96.4126C174.302 94.3561 173.52 92.488 172.261 91.135C171.001 89.7822 169.262 88.9424 167.347 88.9424H112.698C116.892 96.6373 116.605 99.9208 112.698 107.868Z" fill="#0EA5E9"></path>
      <path fill-rule="evenodd" clip-rule="evenodd" d="M113.236 106.326C116.04 100.238 116.282 96.5086 113.331 90.4846H167.176C168.69 90.4846 170.125 91.1113 171.195 92.2256C172.265 93.34 172.867 94.8352 172.867 96.4125V100.398C172.867 101.975 172.265 103.47 171.195 104.585C170.125 105.699 168.69 106.326 167.176 106.326L113.236 106.326Z" fill="#F0F9FF"></path>
      <path fill-rule="evenodd" clip-rule="evenodd" d="M114.576 93.4208C114.471 93.1175 114.355 92.8091 114.23 92.4954H171.439C171.683 92.7837 171.899 93.0937 172.084 93.4208H114.576Z" fill="#D1D5DB"></path>
      <path fill-rule="evenodd" clip-rule="evenodd" d="M115.181 95.5998C115.119 95.2947 115.047 94.9865 114.963 94.6743H172.615C172.705 94.9755 172.771 95.2848 172.813 95.5998H115.181Z" fill="#D1D5DB"></path>
      <path fill-rule="evenodd" clip-rule="evenodd" d="M115.437 97.7785C115.427 97.471 115.406 97.1629 115.373 96.853H172.867V97.7785H115.437H115.437Z" fill="#D1D5DB"></path>
      <path fill-rule="evenodd" clip-rule="evenodd" d="M115.316 99.9577C115.36 99.6475 115.392 99.3394 115.413 99.0322H172.866V99.9577H115.316H115.316Z" fill="#D1D5DB"></path>
      <path fill-rule="evenodd" clip-rule="evenodd" d="M114.847 102.136C114.936 101.824 115.015 101.516 115.085 101.211H172.813C172.771 101.526 172.705 101.835 172.616 102.136H114.846H114.847Z" fill="#D1D5DB"></path>
      <path fill-rule="evenodd" clip-rule="evenodd" d="M114.099 104.316C114.223 104.002 114.338 103.693 114.445 103.39H172.084C171.899 103.717 171.683 104.027 171.439 104.316H114.099H114.099Z" fill="#D1D5DB"></path>
      <path d="M181 107.868H114.468C112.137 107.868 110.019 108.891 108.486 110.538C106.952 112.185 106 114.459 106 116.963V121.815C106 124.319 106.952 126.593 108.486 128.24C110.019 129.887 112.137 130.91 114.468 130.91H181C175.894 121.541 176.244 117.544 181 107.868Z" fill="#0284C7"></path>
      <path fill-rule="evenodd" clip-rule="evenodd" d="M180.345 109.746C176.931 117.158 176.637 121.698 180.229 129.032H114.677C112.834 129.032 111.086 128.269 109.783 126.913C108.481 125.556 107.749 123.736 107.749 121.815V116.963C107.749 115.043 108.481 113.223 109.783 111.866C111.086 110.509 112.834 109.746 114.677 109.746H180.346H180.345Z" fill="#F0F9FF"></path>
      <path fill-rule="evenodd" clip-rule="evenodd" d="M178.714 125.457C178.842 125.827 178.983 126.202 179.136 126.584H109.487C109.189 126.233 108.926 125.856 108.701 125.457H178.714H178.714Z" fill="#D1D5DB"></path>
      <path fill-rule="evenodd" clip-rule="evenodd" d="M177.977 122.804C178.052 123.176 178.141 123.551 178.242 123.931H108.054C107.945 123.564 107.865 123.188 107.814 122.804H177.977H177.977Z" fill="#D1D5DB"></path>
      <path fill-rule="evenodd" clip-rule="evenodd" d="M177.666 120.152C177.677 120.526 177.703 120.901 177.743 121.279H107.749V120.152H177.666H177.666Z" fill="#D1D5DB"></path>
      <path fill-rule="evenodd" clip-rule="evenodd" d="M177.812 117.499C177.759 117.877 177.72 118.252 177.694 118.626H107.748V117.499H177.812H177.812Z" fill="#D1D5DB"></path>
      <path fill-rule="evenodd" clip-rule="evenodd" d="M178.384 114.846C178.275 115.227 178.179 115.602 178.094 115.973H107.814C107.865 115.59 107.945 115.213 108.054 114.846H178.384Z" fill="#D1D5DB"></path>
      <path fill-rule="evenodd" clip-rule="evenodd" d="M179.294 112.194C179.144 112.576 179.003 112.952 178.873 113.321H108.7C108.926 112.923 109.188 112.545 109.486 112.194H179.294H179.294Z" fill="#D1D5DB"></path>
      <path d="M135.422 359.932L83.6434 377.411C81.8293 378.023 79.9126 377.784 78.2864 376.905C76.6602 376.026 75.3218 374.506 74.664 372.558L73.3893 368.781C72.7315 366.833 72.8749 364.813 73.6357 363.128C74.3965 361.443 75.7759 360.091 77.5902 359.479L129.368 342C127.856 350.632 129.178 353.651 135.422 359.932L135.422 359.932Z" fill="#EC4899"></path>
      <path fill-rule="evenodd" clip-rule="evenodd" d="M134.419 358.642C129.814 353.771 128.393 350.315 129.262 343.664L78.2457 360.886C76.811 361.37 75.6512 362.423 74.994 363.821C74.3368 365.219 74.2451 366.828 74.7495 368.322L76.0243 372.098C76.5287 373.593 77.5769 374.817 78.9469 375.531C80.317 376.244 81.8777 376.379 83.3124 375.895L134.419 358.642Z" fill="#F0F9FF"></path>
      <path fill-rule="evenodd" clip-rule="evenodd" d="M129.021 346.844C129.024 346.523 129.035 346.194 129.053 345.856L74.8495 364.154C74.7098 364.506 74.6045 364.868 74.5339 365.237L129.021 346.844Z" fill="#D1D5DB"></path>
      <path fill-rule="evenodd" clip-rule="evenodd" d="M129.145 349.102C129.106 348.793 129.076 348.478 129.056 348.155L74.4316 366.595C74.4434 366.909 74.4797 367.223 74.5407 367.535L129.145 349.102L129.145 349.102Z" fill="#D1D5DB"></path>
      <path fill-rule="evenodd" clip-rule="evenodd" d="M129.6 351.248C129.51 350.954 129.432 350.655 129.364 350.351L74.8904 368.74L75.1864 369.616L129.599 351.248L129.6 351.248Z" fill="#D1D5DB"></path>
      <path fill-rule="evenodd" clip-rule="evenodd" d="M130.411 353.274C130.27 352.994 130.141 352.712 130.023 352.428L75.5878 370.804L75.8838 371.681L130.411 353.274L130.411 353.274Z" fill="#D1D5DB"></path>
      <path fill-rule="evenodd" clip-rule="evenodd" d="M131.553 355.188C131.368 354.921 131.194 354.654 131.031 354.387L76.3354 372.851C76.4758 373.136 76.6374 373.408 76.8182 373.665L131.553 355.188L131.553 355.188Z" fill="#D1D5DB"></path>
      <path fill-rule="evenodd" clip-rule="evenodd" d="M132.958 357.014C132.74 356.756 132.532 356.5 132.334 356.247L77.7225 374.683C78.0023 374.934 78.306 375.158 78.6302 375.353L132.958 357.014L132.958 357.014Z" fill="#D1D5DB"></path>
      <path d="M486.265 487.281L431.917 481.551C430.013 481.35 428.371 480.333 427.26 478.855C426.149 477.378 425.568 475.438 425.783 473.393L426.201 469.429C426.417 467.384 427.39 465.608 428.785 464.395C430.18 463.181 431.997 462.529 433.902 462.729L488.249 468.46C483.271 475.672 483.213 478.968 486.265 487.281L486.265 487.281Z" fill="#EC4899"></path>
      <path fill-rule="evenodd" clip-rule="evenodd" d="M485.892 485.691C483.741 479.343 483.892 475.609 487.458 469.927L433.91 464.281C432.404 464.122 430.911 464.595 429.73 465.591C428.549 466.587 427.794 468.011 427.629 469.58L427.211 473.543C427.046 475.112 427.487 476.662 428.434 477.882C429.381 479.102 430.743 479.876 432.249 480.035L485.892 485.691Z" fill="#F0F9FF"></path>
      <path fill-rule="evenodd" clip-rule="evenodd" d="M485.912 472.717C486.048 472.426 486.196 472.131 486.353 471.833L429.46 465.834C429.186 466.095 428.939 466.38 428.721 466.686L485.912 472.717Z" fill="#D1D5DB"></path>
      <path fill-rule="evenodd" clip-rule="evenodd" d="M485.082 474.82C485.175 474.523 485.28 474.224 485.396 473.923L428.061 467.877C427.941 468.167 427.843 468.468 427.768 468.777L485.082 474.82L485.082 474.82Z" fill="#D1D5DB"></path>
      <path fill-rule="evenodd" clip-rule="evenodd" d="M484.599 476.96C484.641 476.655 484.694 476.351 484.759 476.046L427.583 470.018L427.486 470.938L484.599 476.96L484.599 476.96Z" fill="#D1D5DB"></path>
      <path fill-rule="evenodd" clip-rule="evenodd" d="M484.49 479.14C484.48 478.827 484.48 478.517 484.491 478.209L427.355 472.185L427.258 473.105L484.491 479.14L484.49 479.14Z" fill="#D1D5DB"></path>
      <path fill-rule="evenodd" clip-rule="evenodd" d="M484.729 481.356C484.673 481.036 484.627 480.721 484.589 480.41L427.18 474.357C427.188 474.675 427.222 474.989 427.279 475.298L484.729 481.356L484.729 481.356Z" fill="#D1D5DB"></path>
      <path fill-rule="evenodd" clip-rule="evenodd" d="M485.244 483.601C485.154 483.276 485.071 482.957 484.997 482.644L427.676 476.6C427.825 476.945 428.007 477.276 428.221 477.589L485.244 483.601L485.244 483.601Z" fill="#D1D5DB"></path>
      <path d="M428.591 41.5826L378.789 64.0824C377.044 64.8707 375.113 64.8216 373.408 64.1072C371.703 63.3931 370.221 62.0126 369.375 60.1384L367.734 56.5064C366.887 54.6324 366.831 52.608 367.422 50.8564C368.013 49.1049 369.252 47.6234 370.997 46.835L420.799 24.3352C420.145 33.0745 421.759 35.9485 428.591 41.5825L428.591 41.5826Z" fill="#3B82F6"></path>
      <path fill-rule="evenodd" clip-rule="evenodd" d="M427.466 40.3984C422.404 36.0051 420.648 32.7059 420.857 26.0015L371.788 48.1701C370.408 48.7935 369.358 49.9556 368.841 51.4116C368.325 52.8676 368.393 54.4779 369.042 55.9153L370.683 59.5473C371.332 60.9847 372.496 62.0996 373.93 62.6747C375.364 63.2497 376.93 63.2298 378.31 62.6063L427.466 40.3984Z" fill="#F0F9FF"></path>
      <path fill-rule="evenodd" clip-rule="evenodd" d="M420.931 29.1899C420.902 28.87 420.881 28.5413 420.866 28.2038L368.731 51.7577C368.626 52.1212 368.557 52.4926 368.523 52.8668L420.931 29.1899Z" fill="#D1D5DB"></path>
      <path fill-rule="evenodd" clip-rule="evenodd" d="M421.277 31.4243C421.208 31.121 421.147 30.8101 421.095 30.4913L368.555 54.2276C368.598 54.5388 368.665 54.8479 368.757 55.1522L421.277 31.4243L421.277 31.4243Z" fill="#D1D5DB"></path>
      <path fill-rule="evenodd" clip-rule="evenodd" d="M421.941 33.5155C421.823 33.2314 421.716 32.9419 421.618 32.6461L369.224 56.3169L369.605 57.1603L421.941 33.5156L421.941 33.5155Z" fill="#D1D5DB"></path>
      <path fill-rule="evenodd" clip-rule="evenodd" d="M422.948 35.4514C422.781 35.1866 422.625 34.9191 422.479 34.6479L370.121 58.3022L370.502 59.1456L422.948 35.4513L422.948 35.4514Z" fill="#D1D5DB"></path>
      <path fill-rule="evenodd" clip-rule="evenodd" d="M424.273 37.2436C424.063 36.9956 423.864 36.7475 423.675 36.4983L371.067 60.2659C371.235 60.5356 371.422 60.7903 371.628 61.028L424.273 37.2436L424.273 37.2436Z" fill="#D1D5DB"></path>
      <path fill-rule="evenodd" clip-rule="evenodd" d="M425.852 38.9216C425.61 38.6864 425.377 38.453 425.155 38.2207L372.628 61.9517C372.931 62.1736 373.255 62.3672 373.597 62.5292L425.851 38.9217L425.852 38.9216Z" fill="#D1D5DB"></path>
      <path d="M515.9 119.829L464.537 101.163C462.738 100.509 461.39 99.126 460.668 97.4242C459.946 95.7225 459.849 93.6997 460.551 91.7668L461.913 88.021C462.615 86.0882 463.988 84.5995 465.634 83.7582C467.28 82.9169 469.202 82.7217 471.001 83.3757L522.364 102.041C515.794 107.841 514.942 111.025 515.9 119.829L515.9 119.829Z" fill="#0EA5E9"></path>
      <path fill-rule="evenodd" clip-rule="evenodd" d="M515.921 118.196C515.364 111.516 516.411 107.928 521.242 103.274L470.636 84.8838C469.212 84.3665 467.649 84.4651 466.263 85.147C464.877 85.829 463.801 87.0288 463.262 88.5113L461.901 92.2571C461.362 93.7395 461.417 95.3503 462.042 96.763C462.667 98.1757 463.802 99.2551 465.225 99.7723L515.921 118.196Z" fill="#F0F9FF"></path>
      <path fill-rule="evenodd" clip-rule="evenodd" d="M519.069 105.609C519.271 105.36 519.486 105.109 519.711 104.857L465.942 85.3174C465.613 85.5048 465.305 85.7224 465.019 85.9667L519.069 105.609Z" fill="#D1D5DB"></path>
      <path fill-rule="evenodd" clip-rule="evenodd" d="M517.756 107.45C517.918 107.184 518.092 106.92 518.277 106.655L464.092 86.9634C463.905 87.216 463.737 87.4841 463.59 87.7658L517.756 107.45L517.756 107.45Z" fill="#D1D5DB"></path>
      <path fill-rule="evenodd" clip-rule="evenodd" d="M516.772 109.41C516.886 109.125 517.011 108.842 517.147 108.562L463.112 88.9253L462.795 89.7951L516.771 109.41L516.772 109.41Z" fill="#D1D5DB"></path>
      <path fill-rule="evenodd" clip-rule="evenodd" d="M516.141 111.5C516.206 111.193 516.281 110.893 516.366 110.597L462.368 90.9734L462.052 91.8432L516.141 111.5L516.141 111.5Z" fill="#D1D5DB"></path>
      <path fill-rule="evenodd" clip-rule="evenodd" d="M515.838 113.708C515.861 113.384 515.892 113.067 515.93 112.757L461.674 93.0396C461.606 93.3498 461.562 93.6631 461.543 93.9766L515.838 113.708L515.838 113.708Z" fill="#D1D5DB"></path>
      <path fill-rule="evenodd" clip-rule="evenodd" d="M515.796 116.011C515.788 115.674 515.784 115.345 515.787 115.023L461.614 95.3362C461.676 95.7068 461.773 96.0718 461.905 96.4265L515.796 116.011L515.796 116.011Z" fill="#D1D5DB"></path>
      <path d="M544.603 203.558L490.106 207.626C488.196 207.769 486.399 207.061 485.042 205.806C483.686 204.55 482.767 202.746 482.614 200.695L482.317 196.72C482.164 194.67 482.804 192.748 483.96 191.306C485.115 189.863 486.787 188.896 488.697 188.753L543.194 184.685C539.584 192.67 540.115 195.923 544.603 203.558L544.603 203.558Z" fill="#6366F1"></path>
      <path fill-rule="evenodd" clip-rule="evenodd" d="M543.952 202.06C540.702 196.198 540.184 192.497 542.677 186.27L488.983 190.278C487.472 190.391 486.087 191.123 485.104 192.314C484.12 193.505 483.631 195.041 483.749 196.614L484.045 200.588C484.163 202.161 484.874 203.607 486.024 204.639C487.173 205.67 488.652 206.188 490.162 206.076L543.952 202.06Z" fill="#F0F9FF"></path>
      <path fill-rule="evenodd" clip-rule="evenodd" d="M541.654 189.291C541.737 188.98 541.829 188.664 541.931 188.342L484.881 192.601C484.658 192.907 484.466 193.232 484.306 193.572L541.654 189.291Z" fill="#D1D5DB"></path>
      <path fill-rule="evenodd" clip-rule="evenodd" d="M541.214 191.508C541.252 191.2 541.302 190.887 541.362 190.569L483.87 194.861C483.803 195.168 483.76 195.482 483.742 195.799L541.214 191.508L541.214 191.508Z" fill="#D1D5DB"></path>
      <path fill-rule="evenodd" clip-rule="evenodd" d="M541.121 193.7C541.107 193.393 541.105 193.084 541.115 192.773L483.781 197.053L483.85 197.976L541.121 193.7L541.121 193.7Z" fill="#D1D5DB"></path>
      <path fill-rule="evenodd" clip-rule="evenodd" d="M541.403 195.864C541.337 195.558 541.282 195.253 541.238 194.949L483.944 199.226L484.013 200.149L541.403 195.864L541.403 195.864Z" fill="#D1D5DB"></path>
      <path fill-rule="evenodd" clip-rule="evenodd" d="M542.034 198.002C541.922 197.697 541.82 197.396 541.727 197.097L484.16 201.395C484.225 201.705 484.314 202.009 484.425 202.303L542.034 198.002L542.034 198.002Z" fill="#D1D5DB"></path>
      <path fill-rule="evenodd" clip-rule="evenodd" d="M542.942 200.119C542.795 199.816 542.657 199.517 542.527 199.222L485.048 203.513C485.257 203.826 485.495 204.119 485.761 204.388L542.941 200.119L542.942 200.119Z" fill="#D1D5DB"></path>
      <path d="M610.732 51.1193L557.171 40.2706C555.294 39.8905 553.756 38.7221 552.79 37.146C551.824 35.5701 551.428 33.5839 551.836 31.5683L552.628 27.6621C553.036 25.6466 554.173 23.9709 555.676 22.895C557.179 21.8191 559.051 21.3412 560.928 21.7214L614.489 32.5701C608.851 39.2792 608.48 42.5544 610.732 51.1193L610.732 51.1193Z" fill="#6366F1"></path>
      <path fill-rule="evenodd" clip-rule="evenodd" d="M610.511 49.5009C608.971 42.9773 609.475 39.2743 613.562 33.956L560.789 23.267C559.305 22.9664 557.774 23.2955 556.504 24.1753C555.234 25.0551 554.348 26.4012 554.035 27.9471L553.244 31.8532C552.93 33.3991 553.223 34.984 554.051 36.2885C554.878 37.593 556.16 38.4923 557.645 38.7929L610.511 49.5009Z" fill="#F0F9FF"></path>
      <path fill-rule="evenodd" clip-rule="evenodd" d="M611.759 36.5865C611.922 36.3101 612.097 36.0309 612.282 35.7483L556.212 24.3913C555.915 24.6253 555.642 24.8863 555.395 25.1702L611.759 36.5865Z" fill="#D1D5DB"></path>
      <path fill-rule="evenodd" clip-rule="evenodd" d="M610.734 38.6021C610.855 38.3153 610.987 38.0276 611.131 37.7383L554.626 26.2933C554.479 26.5708 554.353 26.8608 554.249 27.1612L610.734 38.6021L610.734 38.6021Z" fill="#D1D5DB"></path>
      <path fill-rule="evenodd" clip-rule="evenodd" d="M610.05 40.6867C610.121 40.3873 610.203 40.0895 610.296 39.7923L553.947 28.3789L553.764 29.2859L610.05 40.6867L610.05 40.6867Z" fill="#D1D5DB"></path>
      <path fill-rule="evenodd" clip-rule="evenodd" d="M609.736 42.8463C609.755 42.5337 609.785 42.2253 609.825 41.9201L553.515 30.5146L553.331 31.4217L609.736 42.8464L609.736 42.8463Z" fill="#D1D5DB"></path>
      <path fill-rule="evenodd" clip-rule="evenodd" d="M609.764 45.0751C609.738 44.7512 609.722 44.4334 609.714 44.1209L553.135 32.6609C553.114 32.9778 553.117 33.2941 553.145 33.607L609.764 45.0751L609.764 45.0751Z" fill="#D1D5DB"></path>
      <path fill-rule="evenodd" clip-rule="evenodd" d="M610.064 47.359C610.005 47.0269 609.953 46.7017 609.909 46.3833L553.417 34.9409C553.533 35.2982 553.683 35.6448 553.866 35.9761L610.064 47.3589L610.064 47.359Z" fill="#D1D5DB"></path>
      <path d="M615.565 308.726L561.867 298.577C559.986 298.222 558.432 297.074 557.446 295.51C556.459 293.947 556.038 291.966 556.42 289.945L557.16 286.029C557.542 284.009 558.657 282.318 560.146 281.223C561.635 280.127 563.5 279.625 565.382 279.981L619.08 290.13C613.53 296.912 613.202 300.191 615.565 308.726L615.565 308.726Z" fill="#0EA5E9"></path>
      <path fill-rule="evenodd" clip-rule="evenodd" d="M615.323 307.111C613.698 300.608 614.154 296.899 618.171 291.528L565.264 281.528C563.776 281.247 562.249 281.596 560.99 282.492C559.732 283.389 558.864 284.746 558.571 286.296L557.83 290.212C557.538 291.762 557.851 293.343 558.695 294.636C559.539 295.93 560.834 296.813 562.322 297.094L615.323 307.111Z" fill="#F0F9FF"></path>
      <path fill-rule="evenodd" clip-rule="evenodd" d="M616.402 294.181C616.562 293.903 616.733 293.621 616.915 293.336L560.701 282.712C560.407 282.95 560.137 283.214 559.895 283.501L616.402 294.181Z" fill="#D1D5DB"></path>
      <path fill-rule="evenodd" clip-rule="evenodd" d="M615.404 296.21C615.521 295.922 615.65 295.632 615.79 295.341L559.14 284.634C558.997 284.914 558.874 285.205 558.775 285.507L615.404 296.21L615.404 296.21Z" fill="#D1D5DB"></path>
      <path fill-rule="evenodd" clip-rule="evenodd" d="M614.748 298.303C614.814 298.003 614.892 297.704 614.982 297.406L558.489 286.729L558.317 287.638L614.748 298.303L614.748 298.303Z" fill="#D1D5DB"></path>
      <path fill-rule="evenodd" clip-rule="evenodd" d="M614.462 300.467C614.477 300.154 614.502 299.845 614.538 299.54L558.085 288.87L557.913 289.779L614.462 300.467L614.462 300.467Z" fill="#D1D5DB"></path>
      <path fill-rule="evenodd" clip-rule="evenodd" d="M614.518 302.695C614.489 302.372 614.468 302.054 614.456 301.742L557.733 291.021C557.715 291.338 557.723 291.654 557.754 291.967L614.519 302.695L614.518 302.695Z" fill="#D1D5DB"></path>
      <path fill-rule="evenodd" clip-rule="evenodd" d="M614.848 304.975C614.785 304.644 614.729 304.319 614.68 304.001L558.044 293.297C558.165 293.653 558.319 293.998 558.506 294.326L614.848 304.975L614.848 304.975Z" fill="#D1D5DB"></path>
    </g>
  </symbol>
  <symbol fill="none" xmlns="http://www.w3.org/2000/svg" viewBox="0 0 125 303" id="icon-left-facing">
    <path d="M83.9226 23.6607H52.8723C51.4918 21.0909 49.4056 18.8985 52.8723 13.7359C52.8723 10.3089 54.2021 7.01556 56.5817 4.54943C58.9614 2.0833 62.2051 0.636777 65.6299 0.514461C72.3465 -1.49306 77.1838 2.58332 78.4983 9.1136L83.9226 23.6607Z" fill="#2F2E41"></path>
    <path d="M22.3588 29.0536C22.9234 29.1157 23.4675 29.3009 23.9528 29.5961C24.4381 29.8912 24.8528 30.2892 25.1676 30.762C25.4825 31.2347 25.6899 31.7708 25.7751 32.3324C25.8604 32.894 25.8215 33.4674 25.6611 34.0123L49.7586 54.0547L43.0632 56.6337L20.5583 36.6001C19.6607 36.2701 18.9154 35.6223 18.4636 34.7795C18.0117 33.9366 17.8847 32.9573 18.1067 32.0271C18.3286 31.0969 18.884 30.2805 19.6677 29.7324C20.4514 29.1844 21.4089 28.9428 22.3588 29.0536Z" fill="#FFB6B6"></path>
    <path d="M50.2723 62.7095C44.9325 62.7109 24.0993 40.88 23.1902 39.9244L22.9591 39.6814L30.6709 37.6183L49.1718 51.0328L55.9155 39.6192C56.6612 38.3607 57.7778 37.3634 59.1123 36.7641C60.4468 36.1647 61.934 35.9926 63.3701 36.2713C64.6413 36.5196 65.82 37.1117 66.7781 37.9831C67.7361 38.8546 68.4369 39.9722 68.8041 41.2142C69.1713 42.4562 69.1909 43.7751 68.8607 45.0274C68.5305 46.2798 67.8633 47.4176 66.9315 48.3171L54.1758 60.631C53.1953 61.5756 52.0012 62.2696 50.6951 62.6541C50.5575 62.6925 50.4152 62.7112 50.2723 62.7095Z" fill="#0EA5E9"></path>
    <path d="M50.6829 59.687L53.2704 69.44L74.7668 74.2014L73.3735 69.241L77.3806 64.9735L72.9755 57.6966L50.6829 59.687Z" fill="#FFB8B8"></path>
    <path d="M48.7813 192.723H44.5816L42.5828 176.524H48.7813V192.723Z" fill="#FFB8B8"></path>
    <path d="M50.998 200H47.9861L47.4485 197.156L46.0716 200H38.0834C37.7005 200 37.3276 199.878 37.0192 199.651C36.7108 199.424 36.4829 199.104 36.369 198.739C36.255 198.373 36.2609 197.981 36.3858 197.619C36.5107 197.257 36.7479 196.944 37.063 196.727L43.4422 192.321V189.446L50.1519 189.847L50.998 200Z" fill="#2F2E41"></path>
    <path d="M101.42 189.155L97.5172 190.709L89.669 176.397L95.428 174.105L101.42 189.155Z" fill="#FFB8B8"></path>
    <path d="M106.17 195.096L103.372 196.21L101.821 193.767L101.593 196.918L94.1713 199.873C93.8156 200.014 93.4239 200.038 93.0534 199.942C92.6829 199.845 92.353 199.632 92.112 199.335C91.8709 199.037 91.7312 198.671 91.7134 198.288C91.6955 197.906 91.8004 197.527 92.0127 197.209L96.3101 190.756L95.2469 188.085L101.629 185.976L106.17 195.096Z" fill="#2F2E41"></path>
    <path d="M77.2936 66.106L76.8948 65.7602C76.7774 65.6592 64.9936 55.7188 50.2984 64.9998L49.8222 65.3003L46.8124 52.0575C46.4621 50.5349 46.5418 48.9448 47.0426 47.4648C47.5434 45.9849 48.4457 44.6731 49.6486 43.6761L60.2578 34.8491L63.9789 32.9885L63.5066 29.9176C63.4158 29.3137 63.5346 28.697 63.8431 28.17C64.1516 27.643 64.6313 27.2376 65.2023 27.0212L70.9842 24.8531C71.6306 24.6076 72.3474 24.6245 72.9815 24.9002C73.6156 25.1759 74.1168 25.6886 74.378 26.3288L74.9907 27.8115L76.3027 27.3499C77.0984 27.0597 77.9435 26.9298 78.7896 26.9676C79.6357 27.0054 80.4659 27.2103 81.2325 27.5703C82.0013 27.9431 82.6834 28.4731 83.2346 29.126C83.7857 29.779 84.1938 30.5403 84.4323 31.3608C86.6879 38.9893 86.0832 47.1787 82.7315 54.3932L77.2936 66.106Z" fill="#0EA5E9"></path>
    <path d="M50.4014 185.282H41.714L44.1149 144.467L42.3597 116.802L42.3634 116.779L48.9096 77.1227C49.4244 73.9955 50.816 71.0786 52.9227 68.7109L53.0023 68.6211L74.9098 74.0317L77.1125 79.0542C84.6337 83.5275 87.0089 108.753 87.1065 109.827L90.2908 141.273L98.0798 179.814L92.5945 182.767L92.5028 182.584L75.1862 148.15L64.2503 111.838L57.2469 144.52L50.4014 185.282Z" fill="#2F2E41"></path>
    <path d="M85.4427 98.9818C85.0421 98.5791 84.7347 98.0935 84.542 97.5592C84.3494 97.0248 84.2762 96.4547 84.3277 95.8891C84.3793 95.3234 84.5542 94.7759 84.8402 94.2851C85.1262 93.7944 85.5163 93.3723 85.9831 93.0486L79.7968 62.3221L86.6283 64.5155L91.5801 94.2357C92.0719 95.0559 92.2457 96.028 92.0686 96.9678C91.8916 97.9076 91.376 98.7497 90.6195 99.3347C89.863 99.9198 88.9181 100.207 87.964 100.142C87.0099 100.077 86.1128 99.6641 85.4427 98.9818Z" fill="#FFB6B6"></path>
    <path d="M76.3085 33.9725L80.5471 30.773C80.5471 30.773 84.2862 30.5082 84.9485 37.2513C85.6107 43.9943 86.9705 57.1355 86.9705 57.1355L93.4564 87.1758L84.4781 89.1465L77.5312 56.7277L73.3637 47.1005L76.3085 33.9725Z" fill="#0EA5E9"></path>
    <path d="M63.6299 23.3065C69.3409 23.3065 73.9706 18.6768 73.9706 12.9658C73.9706 7.25481 69.3409 2.62511 63.6299 2.62511C57.9188 2.62511 53.2892 7.25481 53.2892 12.9658C53.2892 18.6768 57.9188 23.3065 63.6299 23.3065Z" fill="#FFB8B8"></path>
    <path d="M69.5345 2.92888C67.7488 1.16121 65.3369 0.170966 62.8243 0.173949H60.8339C58.3 0.173949 55.87 1.18051 54.0782 2.97222C52.2865 4.76393 51.2799 7.19401 51.2799 9.72787C53.0182 11.2349 61.4345 10.9254 66.407 10.5241C66.0507 15.7045 61.6497 20.7949 62.8243 23.6607H82.7283V21.6703C84.4323 12.9245 78.0696 5.62923 69.5345 2.92888Z" fill="#2F2E41"></path>
    <path d="M111.943 264.716L19.4611 265.019C16.2208 265.03 13.2724 263.618 11.1331 261.335C8.99384 259.053 7.66014 255.896 7.64875 252.416L7.62662 245.671C7.6152 242.191 8.92816 239.025 11.0525 236.729C13.1766 234.432 16.1154 233.001 19.356 232.991L111.838 232.687C104.783 245.733 105.287 251.288 111.943 264.716Z" fill="#3B82F6"></path>
    <path fill-rule="evenodd" clip-rule="evenodd" d="M111.025 262.109C106.245 251.821 105.816 245.512 110.775 235.301L19.6542 235.6C17.0917 235.608 14.6656 236.677 12.8614 238.568C11.0571 240.46 10.0474 242.994 10.0561 245.663L10.0783 252.408C10.087 255.077 11.1133 257.604 12.93 259.484C14.7467 261.364 17.1796 262.416 19.7422 262.408L111.025 262.109Z" fill="#F0F9FF"></path>
    <path fill-rule="evenodd" clip-rule="evenodd" d="M108.684 240.277C108.861 239.763 109.055 239.24 109.266 238.709L12.4509 239.026C12.0382 239.516 11.6747 240.041 11.3637 240.596L108.684 240.277Z" fill="#D1D5DB"></path>
    <path fill-rule="evenodd" clip-rule="evenodd" d="M107.673 243.967C107.776 243.451 107.897 242.929 108.037 242.4L10.4717 242.72C10.3225 243.23 10.2122 243.754 10.143 244.287L107.673 243.967Z" fill="#D1D5DB"></path>
    <path fill-rule="evenodd" clip-rule="evenodd" d="M107.252 247.656C107.267 247.136 107.301 246.614 107.354 246.09L10.0586 246.409L10.0637 247.975L107.252 247.656Z" fill="#D1D5DB"></path>
    <path fill-rule="evenodd" clip-rule="evenodd" d="M107.468 251.343C107.393 250.818 107.337 250.297 107.299 249.777L10.0715 250.096L10.0766 251.662L107.468 251.343Z" fill="#D1D5DB"></path>
    <path fill-rule="evenodd" clip-rule="evenodd" d="M108.275 255.027C108.123 254.499 107.987 253.978 107.867 253.463L10.1742 253.783C10.2469 254.316 10.3605 254.839 10.5131 255.348L108.275 255.027Z" fill="#D1D5DB"></path>
    <path fill-rule="evenodd" clip-rule="evenodd" d="M109.553 258.711C109.342 258.18 109.144 257.659 108.962 257.146L11.4191 257.466C11.7337 258.019 12.1008 258.542 12.5166 259.029L109.553 258.711Z" fill="#D1D5DB"></path>
    <path d="M113.615 232.036L19.9918 232.621C16.7116 232.641 13.7226 231.221 11.5501 228.917C9.37751 226.613 8.01793 223.421 7.99595 219.897L7.95332 213.069C7.93134 209.546 9.25102 206.338 11.3947 204.006C13.5383 201.675 16.5091 200.218 19.7896 200.197L113.413 199.613C106.31 212.841 106.837 218.463 113.615 232.036Z" fill="#6366F1"></path>
    <path fill-rule="evenodd" clip-rule="evenodd" d="M112.677 229.4C107.807 219 107.354 212.614 112.344 202.262L20.0994 202.838C17.5052 202.854 15.0524 203.943 13.2315 205.863C11.4106 207.784 10.396 210.352 10.4129 213.054L10.4555 219.882C10.4724 222.584 11.5189 225.139 13.3636 227.037C15.2084 228.934 17.6745 229.993 20.2687 229.977L112.677 229.4Z" fill="#F0F9FF"></path>
    <path fill-rule="evenodd" clip-rule="evenodd" d="M110.242 207.306C110.42 206.785 110.615 206.255 110.826 205.716L12.8172 206.328C12.4009 206.825 12.0345 207.358 11.7212 207.92L110.242 207.306Z" fill="#D1D5DB"></path>
    <path fill-rule="evenodd" clip-rule="evenodd" d="M109.23 211.045C109.332 210.522 109.454 209.993 109.593 209.457L10.8246 210.073C10.6751 210.59 10.5651 211.121 10.4966 211.661L109.23 211.045Z" fill="#D1D5DB"></path>
    <path fill-rule="evenodd" clip-rule="evenodd" d="M108.815 214.78C108.828 214.253 108.861 213.725 108.914 213.194L10.4175 213.809L10.4274 215.394L108.815 214.78Z" fill="#D1D5DB"></path>
    <path fill-rule="evenodd" clip-rule="evenodd" d="M109.045 218.512C108.967 217.981 108.909 217.453 108.869 216.928L10.4416 217.542L10.4515 219.127L109.045 218.512Z" fill="#D1D5DB"></path>
    <path fill-rule="evenodd" clip-rule="evenodd" d="M109.873 222.24C109.717 221.705 109.577 221.178 109.455 220.657L10.5567 221.274C10.6318 221.813 10.7484 222.342 10.9044 222.857L109.873 222.24Z" fill="#D1D5DB"></path>
    <path fill-rule="evenodd" clip-rule="evenodd" d="M111.177 225.964C110.962 225.428 110.76 224.901 110.574 224.383L11.8279 224.999C12.1482 225.557 12.5213 226.086 12.9438 226.577L111.177 225.964Z" fill="#D1D5DB"></path>
  </symbol>
  <symbol version="1.1" xmlns="http://www.w3.org/2000/svg" viewBox="0 0 20 20" id="icon-linkedin">
    <path d="M5 3c0 1.062-0.71 1.976-2.001 1.976-1.215 0-1.999-0.862-1.999-1.924 0-1.090 0.76-2.052 2-2.052s1.976 0.91 2 2zM1 19v-13h4v13h-4z"></path>
    <path d="M7 10.444c0-1.545-0.051-2.836-0.102-3.951h3.594l0.178 1.723h0.076c0.506-0.811 1.746-2 3.822-2 2.532 0 4.432 1.695 4.432 5.342v7.442h-4v-6.861c0-1.594-0.607-2.81-2-2.81-1.062 0-1.594 0.86-1.873 1.569-0.102 0.254-0.127 0.608-0.127 0.963v7.139h-4v-8.556z"></path>
  </symbol>
  <symbol version="1.1" xmlns="http://www.w3.org/2000/svg" viewBox="0 0 20 20" id="icon-magnifying-glass">
    <path d="M17.545 15.467l-3.779-3.779c0.57-0.935 0.898-2.035 0.898-3.21 0-3.417-2.961-6.377-6.378-6.377s-6.186 2.769-6.186 6.186c0 3.416 2.961 6.377 6.377 6.377 1.137 0 2.2-0.309 3.115-0.844l3.799 3.801c0.372 0.371 0.975 0.371 1.346 0l0.943-0.943c0.371-0.371 0.236-0.84-0.135-1.211zM4.004 8.287c0-2.366 1.917-4.283 4.282-4.283s4.474 2.107 4.474 4.474c0 2.365-1.918 4.283-4.283 4.283s-4.473-2.109-4.473-4.474z"></path>
  </symbol>
  <symbol fill="none" xmlns="http://www.w3.org/2000/svg" viewBox="0 0 125 284" id="icon-right-facing">
    <path d="M51.197 27.9652C51.6817 25.7299 51.8241 27.3766 52.8783 25.349C52.1547 27.9691 53.49 27.1111 55.2638 29.1655C67.7288 31.12 68.5143 26.8508 73.1273 26.9816L73.1509 26.9814C74.166 26.965 74.6874 25.7495 74.0755 24.9395C72.5645 22.9394 70.8988 19.8531 72.4752 17.9101C75.2679 14.468 72.8068 7.4093 71.6032 8.93535C71.6032 3.04904 64.3542 -0.81111 61.5423 0.145286C56.3465 1.91249 51.5348 4.29596 50.952 9.62905C50.861 10.4618 50.7433 11.2897 50.5937 12.1139C50.2899 13.7878 49.0386 14.2323 49.4693 15.8761L50.8158 17.2459C51.4478 19.6583 51.2482 22.1909 50.3824 24.5295C49.9039 25.8223 49.8376 26.9307 51.197 27.9652Z" fill="#2F2E41"></path>
    <path d="M64.1741 20.0667C68.4893 20.0667 71.9875 16.5685 71.9875 12.2533C71.9875 7.93807 68.4893 4.4399 64.1741 4.4399C59.8589 4.4399 56.3607 7.93807 56.3607 12.2533C56.3607 16.5685 59.8589 20.0667 64.1741 20.0667Z" fill="#A0616A"></path>
    <path d="M52.0027 190.374L56.0265 190.469L58.2694 172.392L52.3314 172.252L52.0027 190.374Z" fill="#A0616A"></path>
    <path d="M65.8078 198.769C65.8078 199.449 65.3254 200 64.7303 200H56.7435C56.7435 200 55.9575 196.841 52.753 195.481L52.5318 200H48.4117L48.9109 192.734C48.9109 192.734 47.8088 188.846 50.0977 186.859C52.3867 184.872 50.5327 185.148 50.5327 185.148L51.4331 180.651L57.6591 181.383L57.7049 188.443L60.7263 195.45L65.1579 197.639C65.5524 197.834 65.8078 198.278 65.8078 198.769Z" fill="#2F2E41"></path>
    <path d="M56.428 173.974L59.6241 176.42L72.0828 163.131L67.3665 159.52L56.428 173.974Z" fill="#A0616A"></path>
    <path d="M62.6413 188.888C62.2409 189.438 61.5266 189.599 61.0456 189.249L54.5907 184.545C54.5907 184.545 55.8162 181.529 54.027 178.543L51.1869 182.065L47.8571 179.638L52.5398 174.059C52.5398 174.059 53.9385 170.269 56.9588 170.01C59.979 169.752 58.3177 168.884 58.3177 168.884L61.694 165.78L66.2946 170.038L62.174 175.771L60.489 183.213L62.7814 187.593C62.9854 187.982 62.9303 188.492 62.6413 188.888Z" fill="#2F2E41"></path>
    <path d="M44.9141 97.9423C45.1567 98.9371 44.7099 103.566 44.9597 105.159C45.595 109.209 51.3995 131.29 50.3982 137.585C46.7294 160.649 51.8035 175.444 51.8035 175.444H59.9888L64.3542 105.597L68.6148 111.213L76.9517 136.114L62.2042 162.629L69.9046 168.989L92.8963 132.433L76.5584 71.2815L75.5713 67.5894L53.4968 66.9734L54.725 68.8139L51.9309 71.5746C51.9309 71.5746 51.9272 71.582 51.9124 71.5969C51.4819 72.198 41.9159 85.6565 44.9141 97.9423Z" fill="#2F2E41"></path>
    <path d="M51.9124 71.5968C54.469 72.5097 71.7457 71.5672 76.5584 71.2815L75.5713 67.5894L53.4968 66.9734L54.725 68.8139L51.9309 71.5746C51.9309 71.5746 51.9272 71.582 51.9124 71.5968Z" fill="#A0616A"></path>
    <path d="M80.4849 42.0285L79.6898 46.2475L79.4971 47.2594L75.2679 55.9398L75.8237 68.6655C76.1795 70.1548 61.1629 66.775 53.3619 70.2666L47.2896 41.2253L53.4468 27.8402L58.2655 25.1631L59.0686 21.9507H69.2761C69.8198 24.4966 69.2305 25.751 68.174 26.473L70.731 33.2922L80.4849 42.0285Z" fill="#0EA5E9"></path>
    <path d="M88.469 17.1431C88.3427 18.2356 87.9801 19.2091 87.479 19.943L86.9329 30.4272L81.9517 30.0214L83.042 19.4299C82.7217 18.601 82.5908 17.5705 82.7171 16.4779C83.0057 13.9819 84.5273 12.1074 86.1157 12.2911C87.704 12.4748 88.7577 14.6471 88.469 17.1431Z" fill="#A0616A"></path>
    <path d="M68.6155 28.161L69.2654 29.7471C69.2654 29.7471 59.7704 28.7958 59.9731 33.7534C60.1461 37.9832 78.0184 54.7466 78.8725 55.138C81.4018 56.2972 84.3414 54.7371 84.7991 51.9928C88.8234 41.61 89.6574 32.2492 87.8186 23.7446H82.3618L80.5848 30.4537L80.4849 35.5571L77.6075 41.6952L68.174 29.7471L68.6155 28.161Z" fill="#0EA5E9"></path>
    <path d="M36.9807 86.4366C37.3315 85.3676 37.4118 84.3079 37.2609 83.4115L41.2464 73.4389L36.4455 71.6813L32.9196 81.9868C32.2669 82.6195 31.7037 83.5206 31.3528 84.5896C30.5514 87.0318 31.1615 89.425 32.7156 89.935C34.2697 90.445 36.1792 88.8787 36.9807 86.4366Z" fill="#A0616A"></path>
    <path d="M59.9699 28.1665C59.9699 28.1665 54.0751 25.9313 50.7287 28.6625C49.3487 29.7889 43.2454 37.5503 42.3052 47.9992C42.2315 48.8182 41.6736 49.5227 41.3594 50.2886C39.4211 55.012 36.0843 57.1876 34.6654 61.2273C34.111 62.8059 35.1279 66.8887 34.7776 68.2507C32.9431 75.3822 33.6051 79.4484 33.6051 79.4484L38.559 81.0975L41.2464 79.1982L45.6603 63.0801L59.9699 28.1665Z" fill="#0EA5E9"></path>
    <path d="M66.2922 3.00867H64.7015C60.0479 3.0139 52.0937 9.59606 55.1716 14.2128C52.5434 21.2233 52.4476 24.8708 53.5633 26.7798C53.9739 27.4825 54.7894 27.8027 55.6013 27.7457C55.7096 27.7381 55.8186 27.7358 55.9283 27.7394C56.715 27.7654 57.7701 31.4631 58.5022 31.7474L60.4458 31.1566L63.6339 27.971L62.0162 23.1123L58.8861 20.6633L59.3125 14.9916C57.2175 10.1764 59.4968 9.94071 60.7795 8.38746L60.9092 13.3706L62.7463 11.5978C64.2426 11.6366 65.9913 12.2853 67.1537 10.9359C69.2654 8.46549 71.4544 11.4482 73.9485 12.0511L74.7222 11.4387C74.7487 10.0494 74.5432 8.70793 74.1442 7.50675C73.9565 6.94131 73.4765 6.47536 73.4563 5.9133C73.3806 3.80401 69.3941 1.75808 66.2922 3.00867Z" fill="#2F2E41"></path>
    <path d="M112.505 265.108L20.023 264.645C16.7828 264.629 13.8462 263.193 11.726 260.893C9.60564 258.593 8.29817 255.425 8.3156 251.945L8.34936 245.2C8.36677 241.72 9.70591 238.565 11.8492 236.286C13.9923 234.008 16.9429 232.601 20.1834 232.617L112.665 233.08C105.502 246.067 105.96 251.626 112.505 265.108Z" fill="#EC4899"></path>
    <path fill-rule="evenodd" clip-rule="evenodd" d="M111.608 262.494C106.913 252.167 106.536 245.854 111.58 235.685L20.4601 235.229C17.8976 235.216 15.4628 236.264 13.6429 238.141C11.823 240.018 10.7923 242.543 10.779 245.212L10.7452 251.957C10.7318 254.626 11.7371 257.161 13.5381 259.056C15.3392 260.951 17.7634 262.024 20.3259 262.037L111.608 262.494Z" fill="#F0F9FF"></path>
    <path fill-rule="evenodd" clip-rule="evenodd" d="M109.448 240.643C109.629 240.131 109.828 239.61 110.043 239.08L13.2285 238.595C12.8117 239.081 12.4439 239.604 12.1283 240.156L109.448 240.643Z" fill="#D1D5DB"></path>
    <path fill-rule="evenodd" clip-rule="evenodd" d="M108.407 244.325C108.513 243.81 108.639 243.289 108.783 242.761L11.2187 242.273C11.0653 242.782 10.9507 243.304 10.8771 243.837L108.407 244.325Z" fill="#D1D5DB"></path>
    <path fill-rule="evenodd" clip-rule="evenodd" d="M107.955 248.011C107.974 247.49 108.012 246.969 108.07 246.445L10.7752 245.958L10.7674 247.524L107.955 248.011Z" fill="#D1D5DB"></path>
    <path fill-rule="evenodd" clip-rule="evenodd" d="M108.141 251.699C108.07 251.174 108.018 250.652 107.985 250.132L10.7575 249.645L10.7496 251.211L108.141 251.699Z" fill="#D1D5DB"></path>
    <path fill-rule="evenodd" clip-rule="evenodd" d="M108.917 255.39C108.769 254.861 108.637 254.338 108.522 253.822L10.8297 253.333C10.8979 253.866 11.0072 254.39 11.1555 254.901L108.917 255.39Z" fill="#D1D5DB"></path>
    <path fill-rule="evenodd" clip-rule="evenodd" d="M110.164 259.084C109.957 258.552 109.764 258.029 109.586 257.515L12.044 257.026C12.3541 257.582 12.7168 258.108 13.1287 258.598L110.164 259.084Z" fill="#D1D5DB"></path>
    <path d="M111.943 231.716L19.4611 232.019C16.2208 232.03 13.2724 230.618 11.1331 228.335C8.99384 226.053 7.66014 222.896 7.64875 219.416L7.62662 212.671C7.6152 209.191 8.92816 206.025 11.0525 203.729C13.1766 201.432 16.1154 200.001 19.356 199.991L111.838 199.687C104.783 212.733 105.287 218.288 111.943 231.716Z" fill="#3B82F6"></path>
    <path fill-rule="evenodd" clip-rule="evenodd" d="M111.025 229.109C106.245 218.821 105.816 212.512 110.775 202.301L19.6542 202.6C17.0917 202.608 14.6656 203.677 12.8614 205.568C11.0571 207.46 10.0474 209.994 10.0561 212.663L10.0783 219.408C10.087 222.077 11.1133 224.604 12.93 226.484C14.7467 228.364 17.1796 229.416 19.7422 229.408L111.025 229.109Z" fill="#F0F9FF"></path>
    <path fill-rule="evenodd" clip-rule="evenodd" d="M108.684 207.277C108.861 206.763 109.055 206.24 109.266 205.709L12.4509 206.026C12.0382 206.516 11.6747 207.041 11.3637 207.596L108.684 207.277Z" fill="#D1D5DB"></path>
    <path fill-rule="evenodd" clip-rule="evenodd" d="M107.673 210.967C107.776 210.451 107.897 209.929 108.037 209.4L10.4717 209.72C10.3225 210.23 10.2122 210.754 10.143 211.287L107.673 210.967Z" fill="#D1D5DB"></path>
    <path fill-rule="evenodd" clip-rule="evenodd" d="M107.252 214.656C107.267 214.136 107.301 213.614 107.354 213.09L10.0586 213.409L10.0637 214.975L107.252 214.656Z" fill="#D1D5DB"></path>
    <path fill-rule="evenodd" clip-rule="evenodd" d="M107.468 218.343C107.393 217.818 107.337 217.297 107.299 216.777L10.0715 217.096L10.0766 218.662L107.468 218.343Z" fill="#D1D5DB"></path>
    <path fill-rule="evenodd" clip-rule="evenodd" d="M108.275 222.027C108.123 221.499 107.987 220.978 107.867 220.463L10.1742 220.783C10.2469 221.316 10.3605 221.839 10.5131 222.348L108.275 222.027Z" fill="#D1D5DB"></path>
    <path fill-rule="evenodd" clip-rule="evenodd" d="M109.553 225.711C109.342 225.18 109.144 224.659 108.962 224.146L11.4191 224.466C11.7337 225.019 12.1008 225.542 12.5166 226.029L109.553 225.711Z" fill="#D1D5DB"></path>
  </symbol>
  <symbol version="1.1" xmlns="http://www.w3.org/2000/svg" viewBox="0 0 20 20" id="icon-share">
    <path d="M15 13.442c-0.633 0-1.204 0.246-1.637 0.642l-5.938-3.463c0.046-0.188 0.075-0.384 0.075-0.584s-0.029-0.395-0.075-0.583l5.875-3.429c0.446 0.417 1.042 0.675 1.7 0.675 1.379 0 2.5-1.121 2.5-2.5s-1.121-2.5-2.5-2.5-2.5 1.121-2.5 2.5c0 0.2 0.029 0.396 0.075 0.583l-5.875 3.429c-0.446-0.416-1.042-0.675-1.7-0.675-1.379 0-2.5 1.121-2.5 2.5s1.121 2.5 2.5 2.5c0.658 0 1.254-0.258 1.7-0.675l5.938 3.463c-0.042 0.175-0.067 0.358-0.067 0.546 0 1.342 1.087 2.429 2.429 2.429s2.429-1.088 2.429-2.429-1.087-2.429-2.429-2.429z"></path>
  </symbol>
  <symbol version="1.1" xmlns="http://www.w3.org/2000/svg" viewBox="0 0 20 20" id="icon-cross">
    <path d="M14.348 14.849c-0.469 0.469-1.229 0.469-1.697 0l-2.651-3.030-2.651 3.029c-0.469 0.469-1.229 0.469-1.697 0-0.469-0.469-0.469-1.229 0-1.697l2.758-3.15-2.759-3.152c-0.469-0.469-0.469-1.228 0-1.697s1.228-0.469 1.697 0l2.652 3.031 2.651-3.031c0.469-0.469 1.228-0.469 1.697 0s0.469 1.229 0 1.697l-2.758 3.152 2.758 3.15c0.469 0.469 0.469 1.229 0 1.698z"></path>
  </symbol>
  <symbol fill="none" xmlns="http://www.w3.org/2000/svg" viewBox="0 0 63 20" id="icon-loader-book-1">
    <path d="M1.04957 0.295365L55.6981 0.499336C57.6128 0.506482 59.3492 1.35277 60.6038 2.71043C61.8584 4.06786 62.6334 5.9389 62.6257 7.99546L62.6109 11.9809C62.6032 14.0373 61.8143 15.9025 60.5495 17.2507C59.2848 18.5989 57.5423 19.4322 55.6275 19.4251L0.978936 19.2211C5.20193 11.542 4.92693 8.25741 1.04957 0.295419L1.04957 0.295365Z" fill="#0EA5E9"></path>
    <path fill-rule="evenodd" clip-rule="evenodd" d="M1.58159 1.83965C4.3635 7.93812 4.59082 11.6682 1.61814 17.6811L55.462 17.8821C56.9763 17.8877 58.4142 17.2665 59.4882 16.1562C60.5622 15.0458 61.1693 13.5528 61.1752 11.9755L61.1901 7.99008C61.1959 6.41284 60.6 4.91537 59.5343 3.79707C58.4686 2.67876 57.0354 2.04664 55.5211 2.04099L1.58159 1.83965Z" fill="#F0F9FF"></path>
    <path fill-rule="evenodd" clip-rule="evenodd" d="M2.87423 14.7497C2.76761 15.0526 2.6506 15.3606 2.52411 15.6738L59.7327 15.8874C59.9786 15.5999 60.1956 15.2908 60.3817 14.9643L2.87423 14.7497Z" fill="#D1D5DB"></path>
    <path fill-rule="evenodd" clip-rule="evenodd" d="M3.48686 12.5731C3.42418 12.8779 3.35031 13.1858 3.26558 13.4977L60.9175 13.7129C61.0078 13.412 61.0751 13.103 61.1182 12.7882L3.48677 12.5731L3.48686 12.5731Z" fill="#D1D5DB"></path>
    <path fill-rule="evenodd" clip-rule="evenodd" d="M3.75084 10.3951C3.74012 10.7025 3.71786 11.0105 3.68407 11.3203L61.1768 11.5349L61.1803 10.6095L3.751 10.3951L3.75084 10.3951Z" fill="#D1D5DB"></path>
    <path fill-rule="evenodd" clip-rule="evenodd" d="M3.63836 8.21584C3.68057 8.52615 3.71178 8.83441 3.7318 9.14164L61.1845 9.35608L61.188 8.43064L3.63809 8.21584L3.63836 8.21584Z" fill="#D1D5DB"></path>
    <path fill-rule="evenodd" clip-rule="evenodd" d="M3.17677 6.03514C3.26488 6.34794 3.34302 6.65637 3.41144 6.96142L61.1391 7.17688C61.0984 6.86184 61.0334 6.55225 60.9453 6.25076L3.1767 6.03514L3.17677 6.03514Z" fill="#D1D5DB"></path>
    <path fill-rule="evenodd" clip-rule="evenodd" d="M2.43736 3.85349C2.55972 4.1678 2.67419 4.4766 2.77998 4.78023L60.4187 4.99536C60.2351 4.66756 60.0204 4.35683 59.7766 4.06751L2.43767 3.85349L2.43736 3.85349Z" fill="#D1D5DB"></path>
  </symbol>
  <symbol fill="none" xmlns="http://www.w3.org/2000/svg" viewBox="0 0 63 20" id="icon-loader-book-2">
    <path d="M1.04957 0.295365L55.6981 0.499336C57.6128 0.506482 59.3492 1.35277 60.6038 2.71043C61.8584 4.06786 62.6334 5.9389 62.6257 7.99546L62.6109 11.9809C62.6032 14.0373 61.8143 15.9025 60.5495 17.2507C59.2848 18.5989 57.5423 19.4322 55.6275 19.4251L0.978936 19.2211C5.20193 11.542 4.92693 8.25741 1.04957 0.295419L1.04957 0.295365Z" fill="#ec4899"></path>
    <path fill-rule="evenodd" clip-rule="evenodd" d="M1.58159 1.83965C4.3635 7.93812 4.59082 11.6682 1.61814 17.6811L55.462 17.8821C56.9763 17.8877 58.4142 17.2665 59.4882 16.1562C60.5622 15.0458 61.1693 13.5528 61.1752 11.9755L61.1901 7.99008C61.1959 6.41284 60.6 4.91537 59.5343 3.79707C58.4686 2.67876 57.0354 2.04664 55.5211 2.04099L1.58159 1.83965Z" fill="#F0F9FF"></path>
    <path fill-rule="evenodd" clip-rule="evenodd" d="M2.87423 14.7497C2.76761 15.0526 2.6506 15.3606 2.52411 15.6738L59.7327 15.8874C59.9786 15.5999 60.1956 15.2908 60.3817 14.9643L2.87423 14.7497Z" fill="#D1D5DB"></path>
    <path fill-rule="evenodd" clip-rule="evenodd" d="M3.48686 12.5731C3.42418 12.8779 3.35031 13.1858 3.26558 13.4977L60.9175 13.7129C61.0078 13.412 61.0751 13.103 61.1182 12.7882L3.48677 12.5731L3.48686 12.5731Z" fill="#D1D5DB"></path>
    <path fill-rule="evenodd" clip-rule="evenodd" d="M3.75084 10.3951C3.74012 10.7025 3.71786 11.0105 3.68407 11.3203L61.1768 11.5349L61.1803 10.6095L3.751 10.3951L3.75084 10.3951Z" fill="#D1D5DB"></path>
    <path fill-rule="evenodd" clip-rule="evenodd" d="M3.63836 8.21584C3.68057 8.52615 3.71178 8.83441 3.7318 9.14164L61.1845 9.35608L61.188 8.43064L3.63809 8.21584L3.63836 8.21584Z" fill="#D1D5DB"></path>
    <path fill-rule="evenodd" clip-rule="evenodd" d="M3.17677 6.03514C3.26488 6.34794 3.34302 6.65637 3.41144 6.96142L61.1391 7.17688C61.0984 6.86184 61.0334 6.55225 60.9453 6.25076L3.1767 6.03514L3.17677 6.03514Z" fill="#D1D5DB"></path>
    <path fill-rule="evenodd" clip-rule="evenodd" d="M2.43736 3.85349C2.55972 4.1678 2.67419 4.4766 2.77998 4.78023L60.4187 4.99536C60.2351 4.66756 60.0204 4.35683 59.7766 4.06751L2.43767 3.85349L2.43736 3.85349Z" fill="#D1D5DB"></path>
  </symbol>
  <symbol fill="none" xmlns="http://www.w3.org/2000/svg" viewBox="0 0 63 20" id="icon-loader-book-3">
    <path d="M1.04957 0.295365L55.6981 0.499336C57.6128 0.506482 59.3492 1.35277 60.6038 2.71043C61.8584 4.06786 62.6334 5.9389 62.6257 7.99546L62.6109 11.9809C62.6032 14.0373 61.8143 15.9025 60.5495 17.2507C59.2848 18.5989 57.5423 19.4322 55.6275 19.4251L0.978936 19.2211C5.20193 11.542 4.92693 8.25741 1.04957 0.295419L1.04957 0.295365Z" fill="#6366f1"></path>
    <path fill-rule="evenodd" clip-rule="evenodd" d="M1.58159 1.83965C4.3635 7.93812 4.59082 11.6682 1.61814 17.6811L55.462 17.8821C56.9763 17.8877 58.4142 17.2665 59.4882 16.1562C60.5622 15.0458 61.1693 13.5528 61.1752 11.9755L61.1901 7.99008C61.1959 6.41284 60.6 4.91537 59.5343 3.79707C58.4686 2.67876 57.0354 2.04664 55.5211 2.04099L1.58159 1.83965Z" fill="#F0F9FF"></path>
    <path fill-rule="evenodd" clip-rule="evenodd" d="M2.87423 14.7497C2.76761 15.0526 2.6506 15.3606 2.52411 15.6738L59.7327 15.8874C59.9786 15.5999 60.1956 15.2908 60.3817 14.9643L2.87423 14.7497Z" fill="#D1D5DB"></path>
    <path fill-rule="evenodd" clip-rule="evenodd" d="M3.48686 12.5731C3.42418 12.8779 3.35031 13.1858 3.26558 13.4977L60.9175 13.7129C61.0078 13.412 61.0751 13.103 61.1182 12.7882L3.48677 12.5731L3.48686 12.5731Z" fill="#D1D5DB"></path>
    <path fill-rule="evenodd" clip-rule="evenodd" d="M3.75084 10.3951C3.74012 10.7025 3.71786 11.0105 3.68407 11.3203L61.1768 11.5349L61.1803 10.6095L3.751 10.3951L3.75084 10.3951Z" fill="#D1D5DB"></path>
    <path fill-rule="evenodd" clip-rule="evenodd" d="M3.63836 8.21584C3.68057 8.52615 3.71178 8.83441 3.7318 9.14164L61.1845 9.35608L61.188 8.43064L3.63809 8.21584L3.63836 8.21584Z" fill="#D1D5DB"></path>
    <path fill-rule="evenodd" clip-rule="evenodd" d="M3.17677 6.03514C3.26488 6.34794 3.34302 6.65637 3.41144 6.96142L61.1391 7.17688C61.0984 6.86184 61.0334 6.55225 60.9453 6.25076L3.1767 6.03514L3.17677 6.03514Z" fill="#D1D5DB"></path>
    <path fill-rule="evenodd" clip-rule="evenodd" d="M2.43736 3.85349C2.55972 4.1678 2.67419 4.4766 2.77998 4.78023L60.4187 4.99536C60.2351 4.66756 60.0204 4.35683 59.7766 4.06751L2.43767 3.85349L2.43736 3.85349Z" fill="#D1D5DB"></path>
  </symbol>
    <symbol fill="none" xmlns="http://www.w3.org/2000/svg" viewBox="0 0 63 20" id="icon-loader-book-4">
    <path d="M1.04957 0.295365L55.6981 0.499336C57.6128 0.506482 59.3492 1.35277 60.6038 2.71043C61.8584 4.06786 62.6334 5.9389 62.6257 7.99546L62.6109 11.9809C62.6032 14.0373 61.8143 15.9025 60.5495 17.2507C59.2848 18.5989 57.5423 19.4322 55.6275 19.4251L0.978936 19.2211C5.20193 11.542 4.92693 8.25741 1.04957 0.295419L1.04957 0.295365Z" fill="#3b82f6"></path>
    <path fill-rule="evenodd" clip-rule="evenodd" d="M1.58159 1.83965C4.3635 7.93812 4.59082 11.6682 1.61814 17.6811L55.462 17.8821C56.9763 17.8877 58.4142 17.2665 59.4882 16.1562C60.5622 15.0458 61.1693 13.5528 61.1752 11.9755L61.1901 7.99008C61.1959 6.41284 60.6 4.91537 59.5343 3.79707C58.4686 2.67876 57.0354 2.04664 55.5211 2.04099L1.58159 1.83965Z" fill="#F0F9FF"></path>
    <path fill-rule="evenodd" clip-rule="evenodd" d="M2.87423 14.7497C2.76761 15.0526 2.6506 15.3606 2.52411 15.6738L59.7327 15.8874C59.9786 15.5999 60.1956 15.2908 60.3817 14.9643L2.87423 14.7497Z" fill="#D1D5DB"></path>
    <path fill-rule="evenodd" clip-rule="evenodd" d="M3.48686 12.5731C3.42418 12.8779 3.35031 13.1858 3.26558 13.4977L60.9175 13.7129C61.0078 13.412 61.0751 13.103 61.1182 12.7882L3.48677 12.5731L3.48686 12.5731Z" fill="#D1D5DB"></path>
    <path fill-rule="evenodd" clip-rule="evenodd" d="M3.75084 10.3951C3.74012 10.7025 3.71786 11.0105 3.68407 11.3203L61.1768 11.5349L61.1803 10.6095L3.751 10.3951L3.75084 10.3951Z" fill="#D1D5DB"></path>
    <path fill-rule="evenodd" clip-rule="evenodd" d="M3.63836 8.21584C3.68057 8.52615 3.71178 8.83441 3.7318 9.14164L61.1845 9.35608L61.188 8.43064L3.63809 8.21584L3.63836 8.21584Z" fill="#D1D5DB"></path>
    <path fill-rule="evenodd" clip-rule="evenodd" d="M3.17677 6.03514C3.26488 6.34794 3.34302 6.65637 3.41144 6.96142L61.1391 7.17688C61.0984 6.86184 61.0334 6.55225 60.9453 6.25076L3.1767 6.03514L3.17677 6.03514Z" fill="#D1D5DB"></path>
    <path fill-rule="evenodd" clip-rule="evenodd" d="M2.43736 3.85349C2.55972 4.1678 2.67419 4.4766 2.77998 4.78023L60.4187 4.99536C60.2351 4.66756 60.0204 4.35683 59.7766 4.06751L2.43767 3.85349L2.43736 3.85349Z" fill="#D1D5DB"></path>
  </symbol>

  <symbol fill="none" xmlns="http://www.w3.org/2000/svg" viewBox="0 0 515 91" id="icon-logo">
    <g clip-path="url(#clip0_7_14)">
      <path d="M115.649 39.8519V38.9606L115.395 38.8333L114.249 38.4514H114.121L109.665 37.0508L105.209 38.9606L104.318 39.2153L75.1608 52.7115L70.0679 55.1306L63.8291 57.8044H63.7018L63.3198 57.677L59.7548 56.7858L52.8794 54.8759L50.333 53.9847H50.2056L46.1313 52.8388L45.1127 52.5841L44.8581 52.4568L44.3488 52.3295H44.2215L39.5106 51.0563L19.139 45.4541L18.757 45.3268L13.6641 43.7989C13.6641 43.7989 13.6641 43.6716 13.5368 43.6716C9.08051 39.7246 10.0991 32.7218 12.2636 27.7563L34.0357 34.1224H34.163H34.2903L39.0013 35.5229H39.1286L39.6379 35.6503L44.7308 37.1781L45.3674 37.4328L46.8952 37.8147L52.2428 39.3426L53.0067 39.5973L53.3887 39.7246L56.4444 40.7432L58.8635 41.5071L60.6461 42.0164H60.7734L62.3013 42.3983L63.0652 42.653L63.5745 42.3983L66.7575 40.8705L67.2668 40.6158L67.5215 40.4885L74.1422 37.5601L84.328 32.9765L85.0919 32.7218L89.5482 30.812L108.392 22.4087L108.901 22.1541L113.867 19.9896V19.735L114.376 19.4803L114.121 15.788L60.1368 0L9.08051 22.918C8.4439 23.3 7.80729 23.9366 7.42532 24.4459C1.69581 29.6661 3.47833 41.1251 7.55264 46.6L5.26084 47.6186C4.62423 48.0005 3.98762 48.6371 3.60565 49.1464C-3.26976 55.6399 0.804558 71.0459 6.53406 73.847L61.1554 90.1442L112.084 67.3535V67.0989L111.957 64.4251V63.5339L111.702 63.4065L110.556 63.0246H110.429L105.845 61.624L60.0094 82.3776H59.8821L59.6275 82.2502L15.0647 70.1546L9.97177 68.6268C9.97177 68.6268 9.97177 68.6268 9.84445 68.4994C5.26084 64.6798 6.27942 57.5497 8.57122 52.4568L30.7253 59.0776L35.6909 60.6054L57.3357 67.0989H57.463L59.6275 67.7355L60.1368 67.4809L64.2111 65.6983L86.2379 55.8945L105.209 47.3639L105.718 47.1093L110.684 44.9448V44.8175L115.904 42.3983L115.649 39.8519ZM57.845 5.98415L98.8428 18.3344L92.0947 21.1355L51.9881 9.03989L57.845 5.98415ZM46.386 11.077L87.3838 23.4273L80.6357 26.2284L40.5291 14.1328L46.386 11.077Z" fill="#0EA5E9"></path>
      <path d="M172.838 47.5846H150.084V71.704H172.838C177.844 71.704 181.939 67.6083 181.939 62.6023V56.6863C181.939 51.6803 177.844 47.5846 172.838 47.5846ZM177.844 43.4888V43.9439C177.844 43.9439 188.766 45.7643 188.766 56.6863V62.6023C188.766 71.2489 182.394 77.6201 172.838 77.6201H143.257V13.9084H169.652C179.209 13.9084 185.58 20.2796 185.58 28.9262V32.5669C185.58 41.6685 177.844 43.4888 177.844 43.4888ZM169.652 19.8245H150.084V41.6685H169.652C174.658 41.6685 178.754 37.5728 178.754 32.5669V28.9262C178.754 23.9203 174.658 19.8245 169.652 19.8245ZM206.059 43.0338V65.7879C206.059 69.8837 209.244 73.0692 213.34 73.0692H224.717C228.813 73.0692 231.999 69.8837 231.999 65.7879V43.0338C231.999 38.938 228.813 35.7524 224.717 35.7524H213.34C209.244 35.7524 206.059 38.938 206.059 43.0338ZM199.688 65.7879V43.0338C199.688 35.7524 205.149 30.2914 213.34 30.2914H224.717C232.909 30.2914 238.37 35.7524 238.37 43.0338V65.7879C238.37 73.0692 232.909 78.5302 224.717 78.5302H213.34C204.694 78.5302 199.688 73.0692 199.688 65.7879ZM257.483 43.0338V65.7879C257.483 69.8837 260.669 73.0692 264.765 73.0692H276.142C280.237 73.0692 283.423 69.8837 283.423 65.7879V43.0338C283.423 38.938 280.237 35.7524 276.142 35.7524H264.765C260.669 35.7524 257.483 38.938 257.483 43.0338ZM251.112 65.7879V43.0338C251.112 35.7524 256.573 30.2914 264.765 30.2914H276.142C284.333 30.2914 289.794 35.7524 289.794 43.0338V65.7879C289.794 73.0692 284.333 78.5302 276.142 78.5302H264.765C256.118 78.5302 251.112 73.0692 251.112 65.7879ZM322.105 50.7702L333.027 31.2016H339.398V33.9321L327.566 53.5007L340.308 74.8896V77.6201H333.937L322.105 56.2312H309.818V77.6201H303.447V13.9084H309.818V50.7702H322.105ZM375.35 45.7643H374.895L364.428 77.6201H357.146L344.859 33.9321V31.2016H351.23L361.242 68.5184H361.697L371.254 37.5728H378.99L388.547 68.5184H389.002L399.014 31.2016H405.385V33.9321L393.098 77.6201H385.817L375.35 45.7643ZM420.858 31.2016V77.6201H414.487V31.2016H420.858ZM420.858 13.9084V24.8304H414.487V13.9084H420.858ZM438.151 43.9439C438.151 47.5846 439.971 49.4959 444.067 50.3151L457.265 53.0456C463.636 54.4108 467.276 58.0515 467.276 64.8778C467.276 72.1591 461.815 77.6201 453.624 77.6201H431.325V72.1591H453.624C457.72 72.1591 460.905 68.9735 460.905 64.8778C460.905 61.2371 459.085 59.3257 454.989 58.5066L441.792 55.7761C435.421 54.5019 431.78 50.7702 431.78 43.9439C431.78 36.5716 437.241 31.2016 445.432 31.2016H465.911V34.8423L464.091 36.6626H445.432C441.337 36.6626 438.151 39.8482 438.151 43.9439ZM512.33 77.6201H490.486C481.839 77.6201 476.833 72.1591 476.833 64.8778V43.0338C476.833 35.7524 482.294 30.2914 490.486 30.2914H500.498C508.689 30.2914 514.15 35.7524 514.15 43.0338V57.1413H483.204V64.8778C483.204 68.9735 486.39 72.1591 490.486 72.1591H512.33V77.6201ZM483.204 43.0338V51.6803H507.779V43.0338C507.779 38.938 504.593 35.7524 500.498 35.7524H490.486C486.39 35.7524 483.204 38.938 483.204 43.0338Z" fill="#0EA5E9"></path>
    </g>
    <defs>
      <clipPath id="clip0_7_14">
        <rect width="514.15" height="90.1442" fill="white"></rect>
      </clipPath>
    </defs>
  </symbol>

  <symbol fill="none" xmlns="http://www.w3.org/2000/svg" viewBox="0 0 116 91" id="icon-logo-book">
    <path d="M115.649 39.8519V38.9606L115.395 38.8333L114.249 38.4514H114.121L109.665 37.0508L105.209 38.9606L104.318 39.2153L75.1608 52.7115L70.0679 55.1306L63.8291 57.8044H63.7018L63.3198 57.677L59.7548 56.7858L52.8794 54.8759L50.333 53.9847H50.2056L46.1313 52.8388L45.1127 52.5841L44.8581 52.4568L44.3488 52.3295H44.2215L39.5106 51.0563L19.139 45.4541L18.757 45.3268L13.6641 43.7989C13.6641 43.7989 13.6641 43.6716 13.5368 43.6716C9.08051 39.7246 10.0991 32.7218 12.2636 27.7563L34.0357 34.1224H34.163H34.2903L39.0013 35.5229H39.1286L39.6379 35.6503L44.7308 37.1781L45.3674 37.4328L46.8952 37.8147L52.2428 39.3426L53.0067 39.5973L53.3887 39.7246L56.4444 40.7432L58.8635 41.5071L60.6461 42.0164H60.7734L62.3013 42.3983L63.0652 42.653L63.5745 42.3983L66.7575 40.8705L67.2668 40.6158L67.5215 40.4885L74.1422 37.5601L84.328 32.9765L85.0919 32.7218L89.5482 30.812L108.392 22.4087L108.901 22.1541L113.867 19.9896V19.735L114.376 19.4803L114.121 15.788L60.1368 0L9.08051 22.918C8.4439 23.3 7.80729 23.9366 7.42532 24.4459C1.69581 29.6661 3.47833 41.1251 7.55264 46.6L5.26084 47.6186C4.62423 48.0005 3.98762 48.6371 3.60565 49.1464C-3.26976 55.6399 0.804558 71.0459 6.53406 73.847L61.1554 90.1442L112.084 67.3535V67.0989L111.957 64.4251V63.5339L111.702 63.4065L110.556 63.0246H110.429L105.845 61.624L60.0094 82.3776H59.8821L59.6275 82.2502L15.0647 70.1546L9.97177 68.6268C9.97177 68.6268 9.97177 68.6268 9.84445 68.4994C5.26084 64.6798 6.27942 57.5497 8.57122 52.4568L30.7253 59.0776L35.6909 60.6054L57.3357 67.0989H57.463L59.6275 67.7355L60.1368 67.4809L64.2111 65.6983L86.2379 55.8945L105.209 47.3639L105.718 47.1093L110.684 44.9448V44.8175L115.904 42.3983L115.649 39.8519ZM57.845 5.98415L98.8428 18.3344L92.0947 21.1355L51.9881 9.03989L57.845 5.98415ZM46.386 11.077L87.3838 23.4273L80.6357 26.2284L40.5291 14.1328L46.386 11.077Z" fill="#0EA5E9"></path>
  </symbol>

  <symbol fill="none" xmlns="http://www.w3.org/2000/svg" viewBox="0 0 116 91" id="icon-logo-book--white">
    <path d="M115.649 39.8519V38.9606L115.395 38.8333L114.249 38.4514H114.121L109.665 37.0508L105.209 38.9606L104.318 39.2153L75.1608 52.7115L70.0679 55.1306L63.8291 57.8044H63.7018L63.3198 57.677L59.7548 56.7858L52.8794 54.8759L50.333 53.9847H50.2056L46.1313 52.8388L45.1127 52.5841L44.8581 52.4568L44.3488 52.3295H44.2215L39.5106 51.0563L19.139 45.4541L18.757 45.3268L13.6641 43.7989C13.6641 43.7989 13.6641 43.6716 13.5368 43.6716C9.08051 39.7246 10.0991 32.7218 12.2636 27.7563L34.0357 34.1224H34.163H34.2903L39.0013 35.5229H39.1286L39.6379 35.6503L44.7308 37.1781L45.3674 37.4328L46.8952 37.8147L52.2428 39.3426L53.0067 39.5973L53.3887 39.7246L56.4444 40.7432L58.8635 41.5071L60.6461 42.0164H60.7734L62.3013 42.3983L63.0652 42.653L63.5745 42.3983L66.7575 40.8705L67.2668 40.6158L67.5215 40.4885L74.1422 37.5601L84.328 32.9765L85.0919 32.7218L89.5482 30.812L108.392 22.4087L108.901 22.1541L113.867 19.9896V19.735L114.376 19.4803L114.121 15.788L60.1368 0L9.08051 22.918C8.4439 23.3 7.80729 23.9366 7.42532 24.4459C1.69581 29.6661 3.47833 41.1251 7.55264 46.6L5.26084 47.6186C4.62423 48.0005 3.98762 48.6371 3.60565 49.1464C-3.26976 55.6399 0.804558 71.0459 6.53406 73.847L61.1554 90.1442L112.084 67.3535V67.0989L111.957 64.4251V63.5339L111.702 63.4065L110.556 63.0246H110.429L105.845 61.624L60.0094 82.3776H59.8821L59.6275 82.2502L15.0647 70.1546L9.97177 68.6268C9.97177 68.6268 9.97177 68.6268 9.84445 68.4994C5.26084 64.6798 6.27942 57.5497 8.57122 52.4568L30.7253 59.0776L35.6909 60.6054L57.3357 67.0989H57.463L59.6275 67.7355L60.1368 67.4809L64.2111 65.6983L86.2379 55.8945L105.209 47.3639L105.718 47.1093L110.684 44.9448V44.8175L115.904 42.3983L115.649 39.8519ZM57.845 5.98415L98.8428 18.3344L92.0947 21.1355L51.9881 9.03989L57.845 5.98415ZM46.386 11.077L87.3838 23.4273L80.6357 26.2284L40.5291 14.1328L46.386 11.077Z" fill="#f0f9ff"></path>
  </symbol>

  <symbol fill="none" xmlns="http://www.w3.org/2000/svg" viewBox="0 0 372 66" id="icon-logo-text--white">
    <path d="M29.8377 34.5846H7.08357V58.704H29.8377C34.8436 58.704 38.9394 54.6083 38.9394 49.6023V43.6863C38.9394 38.6803 34.8436 34.5846 29.8377 34.5846ZM34.8436 30.4888V30.9439C34.8436 30.9439 45.7656 32.7643 45.7656 43.6863V49.6023C45.7656 58.2489 39.3945 64.6201 29.8377 64.6201H0.257324V0.908447H26.6521C36.2089 0.908447 42.5801 7.27961 42.5801 15.9262V19.5669C42.5801 28.6685 34.8436 30.4888 34.8436 30.4888ZM26.6521 6.82453H7.08357V28.6685H26.6521C31.6581 28.6685 35.7538 24.5728 35.7538 19.5669V15.9262C35.7538 10.9203 31.6581 6.82453 26.6521 6.82453ZM63.0588 30.0338V52.7879C63.0588 56.8837 66.2444 60.0692 70.3401 60.0692H81.7172C85.8129 60.0692 88.9985 56.8837 88.9985 52.7879V30.0338C88.9985 25.938 85.8129 22.7524 81.7172 22.7524H70.3401C66.2444 22.7524 63.0588 25.938 63.0588 30.0338ZM56.6876 52.7879V30.0338C56.6876 22.7524 62.1486 17.2914 70.3401 17.2914H81.7172C89.9087 17.2914 95.3697 22.7524 95.3697 30.0338V52.7879C95.3697 60.0692 89.9087 65.5302 81.7172 65.5302H70.3401C61.6935 65.5302 56.6876 60.0692 56.6876 52.7879ZM114.483 30.0338V52.7879C114.483 56.8837 117.669 60.0692 121.765 60.0692H133.142C137.237 60.0692 140.423 56.8837 140.423 52.7879V30.0338C140.423 25.938 137.237 22.7524 133.142 22.7524H121.765C117.669 22.7524 114.483 25.938 114.483 30.0338ZM108.112 52.7879V30.0338C108.112 22.7524 113.573 17.2914 121.765 17.2914H133.142C141.333 17.2914 146.794 22.7524 146.794 30.0338V52.7879C146.794 60.0692 141.333 65.5302 133.142 65.5302H121.765C113.118 65.5302 108.112 60.0692 108.112 52.7879ZM179.105 37.7702L190.027 18.2016H196.398V20.9321L184.566 40.5007L197.308 61.8896V64.6201H190.937L179.105 43.2312H166.818V64.6201H160.447V0.908447H166.818V37.7702H179.105ZM232.35 32.7643H231.895L221.428 64.6201H214.146L201.859 20.9321V18.2016H208.23L218.242 55.5184H218.697L228.254 24.5728H235.99L245.547 55.5184H246.002L256.014 18.2016H262.385V20.9321L250.098 64.6201H242.817L232.35 32.7643ZM277.858 18.2016V64.6201H271.487V18.2016H277.858ZM277.858 0.908447V11.8304H271.487V0.908447H277.858ZM295.151 30.9439C295.151 34.5846 296.971 36.4959 301.067 37.3151L314.265 40.0456C320.636 41.4108 324.276 45.0515 324.276 51.8778C324.276 59.1591 318.815 64.6201 310.624 64.6201H288.325V59.1591H310.624C314.72 59.1591 317.905 55.9735 317.905 51.8778C317.905 48.2371 316.085 46.3257 311.989 45.5066L298.792 42.7761C292.421 41.5019 288.78 37.7702 288.78 30.9439C288.78 23.5716 294.241 18.2016 302.432 18.2016H322.911V21.8423L321.091 23.6626H302.432C298.337 23.6626 295.151 26.8482 295.151 30.9439ZM369.33 64.6201H347.486C338.839 64.6201 333.833 59.1591 333.833 51.8778V30.0338C333.833 22.7524 339.294 17.2914 347.486 17.2914H357.498C365.689 17.2914 371.15 22.7524 371.15 30.0338V44.1413H340.204V51.8778C340.204 55.9735 343.39 59.1591 347.486 59.1591H369.33V64.6201ZM340.204 30.0338V38.6803H364.779V30.0338C364.779 25.938 361.593 22.7524 357.498 22.7524H347.486C343.39 22.7524 340.204 25.938 340.204 30.0338Z" fill="#f0f9ff"></path>
  </symbol>

  <symbol version="1.1" xmlns="http://www.w3.org/2000/svg" viewBox="0 0 768 768" id="icon-star">
    <g id="icomoon-ignore"></g>
    <path d="M384 552l-198 120 52.5-225-174-151.5 229.5-19.5 90-211.5 90 211.5 229.5 19.5-174 151.5 52.5 225z"></path>
  </symbol>

  <symbol id="icon-x" xmlns="http://www.w3.org/2000/svg" viewBox="0 0 32 32">
    <path d="M24.325 3h4.411l-9.636 11.013 11.336 14.987h-8.876l-6.952-9.089-7.955 9.089h-4.413l10.307-11.78-10.875-14.22h9.101l6.284 8.308zM22.777 26.36h2.444l-15.776-20.859h-2.623z"></path>
  </symbol>
</svg>