<svg width="0" height="0" class="hidden">
  <symbol fill="none" xmlns="http://www.w3.org/2000/svg" viewBox="0 0 65 42" id="icon-book-blue-1">
    <path d="M57.1097 41.4375L6.77186 20.1629C5.00817 19.4175 3.73285 17.9667 3.09927 16.2301C2.46555 14.4937 2.47253 12.4685 3.27315 10.5742L4.82468 6.90311C5.62524 5.0089 7.07278 3.59255 8.7598 2.83677C10.4467 2.08102 12.3758 1.98454 14.1396 2.72998L64.4775 24.0046C57.6184 29.4596 56.6048 32.5959 57.1097 41.4374L57.1097 41.4375Z" fill="#3B82F6"></path>
    <path fill-rule="evenodd" clip-rule="evenodd" d="M57.2147 39.8074C57.0014 33.1078 58.231 29.5788 63.2935 25.1786L13.6969 4.21723C12.3021 3.62773 10.7358 3.64603 9.31657 4.25595C7.89734 4.86595 6.76114 6.00904 6.1471 7.46192L4.59557 11.133C3.98155 12.5858 3.95352 14.1973 4.50518 15.6402C5.05684 17.0831 6.1352 18.2193 7.53001 18.8088L57.2147 39.8074Z" fill="#F0F9FF"></path>
    <path fill-rule="evenodd" clip-rule="evenodd" d="M61.0036 27.3985C61.2189 27.1601 61.4457 26.9212 61.6832 26.681L8.98731 4.40974C8.64955 4.58005 8.33009 4.78156 8.03244 5.01089L61.0036 27.3985Z" fill="#D1D5DB"></path>
    <path fill-rule="evenodd" clip-rule="evenodd" d="M59.5986 29.1701C59.774 28.9131 59.961 28.6575 60.1595 28.4025L7.0552 5.95862C6.85581 6.20136 6.67447 6.4605 6.51325 6.73428L59.5987 29.1702L59.5986 29.1701Z" fill="#D1D5DB"></path>
    <path fill-rule="evenodd" clip-rule="evenodd" d="M58.5147 31.0774C58.6432 30.7979 58.7825 30.5223 58.9333 30.2496L5.97559 7.86768L5.61531 8.72012L58.5145 31.0773L58.5147 31.0774Z" fill="#D1D5DB"></path>
    <path fill-rule="evenodd" clip-rule="evenodd" d="M57.7775 33.1315C57.8583 32.8289 57.9485 32.5325 58.0485 32.2413L5.12775 9.875L4.76747 10.7274L57.7778 33.1316L57.7775 33.1315Z" fill="#D1D5DB"></path>
    <path fill-rule="evenodd" clip-rule="evenodd" d="M57.362 35.3212C57.4014 34.9987 57.4483 34.684 57.5029 34.3762L4.32887 11.9028C4.24486 12.2092 4.18536 12.5199 4.15024 12.832L57.362 35.3213L57.362 35.3212Z" fill="#D1D5DB"></path>
    <path fill-rule="evenodd" clip-rule="evenodd" d="M57.2023 37.6193C57.2107 37.2821 57.2242 36.953 57.2438 36.6321L4.15163 14.1934C4.19459 14.5666 4.27277 14.9362 4.38599 15.2971L57.202 37.6191L57.2023 37.6193Z" fill="#D1D5DB"></path>
  </symbol>
  <symbol fill="none" xmlns="http://www.w3.org/2000/svg" viewBox="0 0 65 38" id="icon-book-gray-1">
    <path d="M64.4217 17.9317L12.6434 35.4107C10.8293 36.0231 8.91258 35.7838 7.28636 34.9047C5.66016 34.026 4.32177 32.5061 3.66399 30.5575L2.38928 26.7814C1.73154 24.833 1.87492 22.8129 2.63574 21.1281C3.39653 19.4435 4.7759 18.0914 6.59017 17.4789L58.3685 -2.17856e-05C56.8556 8.63216 58.178 11.6513 64.4217 17.9317L64.4217 17.9317Z" fill="#D1D5DB"></path>
    <path fill-rule="evenodd" clip-rule="evenodd" d="M63.4189 16.6425C58.8144 11.7713 57.393 8.31507 58.2616 1.66397L7.24573 18.8856C5.811 19.3699 4.65122 20.4227 3.99397 21.8207C3.33679 23.2187 3.24506 24.8278 3.74954 26.3223L5.02426 30.0984C5.52873 31.5928 6.57688 32.8171 7.94694 33.5307C9.317 34.2443 10.8777 34.379 12.3124 33.8946L63.4189 16.6425Z" fill="#F0F9FF"></path>
    <path fill-rule="evenodd" clip-rule="evenodd" d="M58.0209 4.84394C58.0239 4.52279 58.035 4.19356 58.0534 3.85623L3.84952 22.154C3.70979 22.5055 3.60447 22.8682 3.53391 23.2373L58.0209 4.84394Z" fill="#D1D5DB"></path>
    <path fill-rule="evenodd" clip-rule="evenodd" d="M58.1451 7.1018C58.1059 6.79311 58.0762 6.47779 58.0555 6.15529L3.43156 24.5949C3.44343 24.9088 3.47968 25.223 3.54069 25.5348L58.1452 7.10177L58.1451 7.1018Z" fill="#D1D5DB"></path>
    <path fill-rule="evenodd" clip-rule="evenodd" d="M58.5996 9.24804C58.5103 8.95368 58.4318 8.65504 58.3636 8.35095L3.89044 26.7396L4.18644 27.6165L58.5994 9.24809L58.5996 9.24804Z" fill="#D1D5DB"></path>
    <path fill-rule="evenodd" clip-rule="evenodd" d="M59.4107 11.2739C59.2705 10.9939 59.1412 10.7123 59.0229 10.4281L4.58777 28.804L4.88376 29.6808L59.411 11.2738L59.4107 11.2739Z" fill="#D1D5DB"></path>
    <path fill-rule="evenodd" clip-rule="evenodd" d="M60.5527 13.188C60.3682 12.9205 60.1945 12.6539 60.0311 12.3874L5.33545 30.8512C5.47583 31.1361 5.63745 31.4081 5.81825 31.6649L60.5528 13.188L60.5527 13.188Z" fill="#D1D5DB"></path>
    <path fill-rule="evenodd" clip-rule="evenodd" d="M61.9579 15.0135C61.7405 14.7557 61.5323 14.5005 61.334 14.2474L6.72253 32.6827C7.00234 32.9335 7.30599 33.1581 7.63019 33.3531L61.9576 15.0136L61.9579 15.0135Z" fill="#D1D5DB"></path>
  </symbol>
  <symbol fill="none" xmlns="http://www.w3.org/2000/svg" viewBox="0 0 64 26" id="icon-book-gray-2">
    <path d="M61.2648 25.2813L6.91718 19.5509C5.013 19.3501 3.37118 18.3325 2.26034 16.855C1.14942 15.3776 0.567656 13.4378 0.783305 11.3925L1.20121 7.42902C1.41685 5.38392 2.39039 3.60807 3.78502 2.39471C5.17959 1.18141 6.99742 0.528557 8.90172 0.729346L63.2494 6.45974C58.2713 13.6724 58.2127 16.9679 61.2648 25.2812L61.2648 25.2813Z" fill="#D1D5DB"></path>
    <path fill-rule="evenodd" clip-rule="evenodd" d="M60.8917 23.6911C58.7409 17.3426 58.8921 13.6086 62.4577 7.92723L8.91027 2.28121C7.40435 2.12242 5.91096 2.59503 4.73015 3.59103C3.5494 4.58709 2.79436 6.011 2.62897 7.57961L2.21106 11.5431C2.04567 13.1117 2.48707 14.6617 3.43419 15.8821C4.3813 17.1024 5.74327 17.8763 7.24919 18.0351L60.8917 23.6911Z" fill="#F0F9FF"></path>
    <path fill-rule="evenodd" clip-rule="evenodd" d="M60.9116 10.7165C61.0483 10.4259 61.1958 10.1314 61.3533 9.83252L4.45973 3.83368C4.18603 4.09477 3.93891 4.38041 3.72074 4.68634L60.9116 10.7165Z" fill="#D1D5DB"></path>
    <path fill-rule="evenodd" clip-rule="evenodd" d="M60.0819 12.8201C60.1751 12.5232 60.2797 12.2243 60.3956 11.9226L3.06105 5.87725C2.94079 6.16746 2.84258 6.46811 2.76786 6.77691L60.082 12.8201L60.0819 12.8201Z" fill="#D1D5DB"></path>
    <path fill-rule="evenodd" clip-rule="evenodd" d="M59.599 14.96C59.6408 14.6553 59.694 14.3511 59.759 14.0463L2.58279 8.0177L2.48575 8.93805L59.5988 14.96L59.599 14.96Z" fill="#D1D5DB"></path>
    <path fill-rule="evenodd" clip-rule="evenodd" d="M59.4904 17.1396C59.4798 16.8266 59.48 16.5168 59.4911 16.2091L2.35474 10.1847L2.2577 11.105L59.4907 17.1397L59.4904 17.1396Z" fill="#D1D5DB"></path>
    <path fill-rule="evenodd" clip-rule="evenodd" d="M59.7291 19.3557C59.6731 19.0356 59.6266 18.7208 59.5894 18.4104L2.17957 12.3572C2.18819 12.6747 2.22153 12.9893 2.27862 13.2981L59.7292 19.3557L59.7291 19.3557Z" fill="#D1D5DB"></path>
    <path fill-rule="evenodd" clip-rule="evenodd" d="M60.2441 21.6011C60.1541 21.276 60.0715 20.9572 59.9969 20.6444L2.67554 14.6005C2.82511 14.9452 3.00728 15.276 3.22051 15.5885L60.2438 21.601L60.2441 21.6011Z" fill="#D1D5DB"></path>
  </symbol>
  <symbol fill="none" xmlns="http://www.w3.org/2000/svg" viewBox="0 0 64 25" id="icon-book-gray-3">
    <path d="M63.6032 19.558L9.10591 23.6264C7.19648 23.769 5.39932 23.061 4.04243 21.8056C2.68551 20.5504 1.76665 18.7456 1.61354 16.6948L1.31684 12.7203C1.16375 10.6696 1.80446 8.74845 2.95996 7.30551C4.1154 5.86264 5.7874 4.89562 7.69695 4.75306L62.1942 0.684663C58.5844 8.67043 59.1153 11.9234 63.6032 19.558L63.6032 19.558Z" fill="#D1D5DB"></path>
    <path fill-rule="evenodd" clip-rule="evenodd" d="M62.9521 18.0601C59.702 12.1978 59.1838 8.49682 61.6773 2.26998L7.98253 6.27847C6.47246 6.3912 5.08749 7.12293 4.10355 8.31381C3.11969 9.50474 2.6311 11.0406 2.74852 12.6135L3.04523 16.588C3.16265 18.1608 3.8738 19.6071 5.02365 20.6387C6.17349 21.6703 7.65178 22.1884 9.16184 22.0757L62.9521 18.0601Z" fill="#F0F9FF"></path>
    <path fill-rule="evenodd" clip-rule="evenodd" d="M60.6543 5.29057C60.7369 4.98021 60.8294 4.66407 60.9311 4.34188L3.88081 8.60087C3.65814 8.90665 3.46602 9.23184 3.30599 9.57181L60.6543 5.29057Z" fill="#D1D5DB"></path>
    <path fill-rule="evenodd" clip-rule="evenodd" d="M60.2136 7.5084C60.2523 7.19964 60.3019 6.88683 60.362 6.5693L2.8696 10.8613C2.80311 11.1683 2.76017 11.4817 2.74181 11.7989L60.2137 7.50839L60.2136 7.5084Z" fill="#D1D5DB"></path>
    <path fill-rule="evenodd" clip-rule="evenodd" d="M60.1207 9.70031C60.1074 9.39301 60.1055 9.08421 60.115 8.77272L2.78134 13.0529L2.85024 13.9757L60.1206 9.70032L60.1207 9.70031Z" fill="#D1D5DB"></path>
    <path fill-rule="evenodd" clip-rule="evenodd" d="M60.4032 11.8642C60.3368 11.5582 60.2816 11.2533 60.2377 10.9485L2.94397 15.2257L3.01287 16.1486L60.4035 11.8642L60.4032 11.8642Z" fill="#D1D5DB"></path>
    <path fill-rule="evenodd" clip-rule="evenodd" d="M61.0338 14.002C60.9215 13.6971 60.8195 13.3957 60.7275 13.0969L3.15964 17.3945C3.22483 17.7054 3.31383 18.009 3.42516 18.3027L61.0339 14.002L61.0338 14.002Z" fill="#D1D5DB"></path>
    <path fill-rule="evenodd" clip-rule="evenodd" d="M61.9415 16.1193C61.795 15.8155 61.6567 15.5166 61.5275 15.2222L4.04828 19.5132C4.25701 19.8256 4.49535 20.1186 4.76095 20.388L61.9412 16.1193L61.9415 16.1193Z" fill="#D1D5DB"></path>
  </symbol>
  <symbol fill="none" xmlns="http://www.w3.org/2000/svg" viewBox="0 0 66 40" id="icon-book-indigo-1">
    <path d="M58.6843 39.72L7.32178 21.0545C5.52219 20.4005 4.17416 19.0171 3.45237 17.3153C2.73045 15.6136 2.63357 13.5908 3.336 11.6579L4.69725 7.91207C5.39963 5.97931 6.77264 4.4906 8.41868 3.6493C10.0647 2.80805 11.9863 2.61277 13.786 3.2668L65.1485 21.9323C58.5782 27.7318 57.7267 30.916 58.6843 39.72L58.6843 39.72Z" fill="#6366F1"></path>
    <path fill-rule="evenodd" clip-rule="evenodd" d="M58.7056 38.0868C58.149 31.4069 59.196 27.8195 64.0263 23.1655L13.4201 4.77487C11.9969 4.25766 10.4336 4.35624 9.0475 5.03814C7.66141 5.72011 6.58532 6.91996 6.04659 8.40241L4.68534 12.1482C4.14663 13.6306 4.20126 15.2414 4.82618 16.6541C5.4511 18.0668 6.5863 19.1462 8.0095 19.6634L58.7056 38.0868Z" fill="#F0F9FF"></path>
    <path fill-rule="evenodd" clip-rule="evenodd" d="M61.8532 25.4998C62.056 25.2507 62.2702 25.0005 62.4951 24.7484L8.72654 5.20851C8.39796 5.39591 8.08925 5.61354 7.80375 5.85783L61.8532 25.4998Z" fill="#D1D5DB"></path>
    <path fill-rule="evenodd" clip-rule="evenodd" d="M60.5409 27.3412C60.7029 27.0755 60.8765 26.8107 61.0617 26.5458L6.87638 6.85448C6.6897 7.10712 6.52189 7.37522 6.37492 7.6569L60.5409 27.3412L60.5409 27.3412Z" fill="#D1D5DB"></path>
    <path fill-rule="evenodd" clip-rule="evenodd" d="M59.5562 29.3015C59.6702 29.0158 59.7952 28.7335 59.9318 28.4534L5.89609 8.81641L5.58 9.6862L59.556 29.3015L59.5562 29.3015Z" fill="#D1D5DB"></path>
    <path fill-rule="evenodd" clip-rule="evenodd" d="M58.9253 31.3907C58.9905 31.0843 59.0653 30.7837 59.1503 30.4878L5.15228 10.8645L4.83619 11.7343L58.9256 31.3908L58.9253 31.3907Z" fill="#D1D5DB"></path>
    <path fill-rule="evenodd" clip-rule="evenodd" d="M58.6226 33.5989C58.6454 33.2747 58.6761 32.958 58.7149 32.6478L4.45844 12.9307C4.39024 13.2409 4.34675 13.5543 4.32768 13.8678L58.6227 33.5989L58.6226 33.5989Z" fill="#D1D5DB"></path>
    <path fill-rule="evenodd" clip-rule="evenodd" d="M58.581 35.9021C58.5721 35.5649 58.5687 35.2356 58.5718 34.9141L4.3989 15.2273C4.46094 15.5979 4.55797 15.9629 4.68955 16.3176L58.5807 35.902L58.581 35.9021Z" fill="#D1D5DB"></path>
  </symbol>
  <symbol version="1.1" xmlns="http://www.w3.org/2000/svg" viewBox="0 0 24 24" id="icon-bookmark">
    <path d="M17.016 3q0.797 0 1.383 0.609t0.586 1.406v15.984l-6.984-3-6.984 3v-15.984q0-0.797 0.586-1.406t1.383-0.609h10.031z"></path>
  </symbol>
  <symbol fill="none" xmlns="http://www.w3.org/2000/svg" viewBox="0 0 65 43" id="icon-book-pink-1">
    <path d="M64.5912 17.5826L14.789 40.0824C13.044 40.8707 11.1131 40.8216 9.40809 40.1072C7.70316 39.3931 6.22141 38.0126 5.37468 36.1384L3.7338 32.5064C2.88714 30.6324 2.83061 28.608 3.42158 26.8564C4.01253 25.1049 5.25184 23.6234 6.99687 22.835L56.7991 0.335199C56.1449 9.07449 57.7585 11.9485 64.5912 17.5825L64.5912 17.5826Z" fill="#EC4899"></path>
    <path fill-rule="evenodd" clip-rule="evenodd" d="M63.4662 16.3984C58.4037 12.0051 56.6485 8.70587 56.8569 2.00153L7.78796 24.1701C6.40799 24.7935 5.35769 25.9556 4.8415 27.4116C4.32538 28.8676 4.39278 30.4779 5.04218 31.9153L6.68306 35.5473C7.33244 36.9847 8.49621 38.0996 9.92997 38.6747C11.3637 39.2497 12.9301 39.2298 14.31 38.6063L63.4662 16.3984Z" fill="#F0F9FF"></path>
    <path fill-rule="evenodd" clip-rule="evenodd" d="M56.931 5.18992C56.9022 4.87005 56.8808 4.54133 56.8659 4.20382L4.73063 27.7577C4.62625 28.1212 4.5572 28.4926 4.52339 28.8668L56.931 5.18992Z" fill="#D1D5DB"></path>
    <path fill-rule="evenodd" clip-rule="evenodd" d="M57.2772 7.42431C57.2077 7.121 57.147 6.81014 57.0947 6.49125L4.55538 30.2276C4.59815 30.5388 4.6652 30.8479 4.75666 31.1522L57.2773 7.42427L57.2772 7.42431Z" fill="#D1D5DB"></path>
    <path fill-rule="evenodd" clip-rule="evenodd" d="M57.9411 9.5155C57.8233 9.23138 57.7157 8.94193 57.6178 8.64605L5.22357 32.3169L5.60459 33.1603L57.941 9.51556L57.9411 9.5155Z" fill="#D1D5DB"></path>
    <path fill-rule="evenodd" clip-rule="evenodd" d="M58.9481 11.4514C58.7809 11.1866 58.6246 10.9191 58.4788 10.6479L6.12106 34.3022L6.50209 35.1456L58.9484 11.4513L58.9481 11.4514Z" fill="#D1D5DB"></path>
    <path fill-rule="evenodd" clip-rule="evenodd" d="M60.2733 13.2436C60.0632 12.9956 59.8641 12.7475 59.6753 12.4983L7.06699 36.2659C7.23478 36.5356 7.42243 36.7903 7.62767 37.028L60.2733 13.2436L60.2733 13.2436Z" fill="#D1D5DB"></path>
    <path fill-rule="evenodd" clip-rule="evenodd" d="M61.8516 14.9216C61.6098 14.6864 61.3775 14.453 61.1552 14.2207L8.62793 37.9517C8.9311 38.1736 9.25542 38.3672 9.59727 38.5292L61.8513 14.9217L61.8516 14.9216Z" fill="#D1D5DB"></path>
  </symbol>
  <symbol fill="none" xmlns="http://www.w3.org/2000/svg" viewBox="0 0 65 31" id="icon-book-pink-2">
    <path d="M60.5652 30.7263L6.86697 20.5773C4.98554 20.2218 3.43229 19.0735 2.4458 17.5102C1.45923 15.947 1.0378 13.9662 1.41973 11.9454L2.15988 8.02922C2.54178 6.00855 3.65708 4.31813 5.14612 3.22269C6.6351 2.12731 8.50017 1.62508 10.3817 1.98069L64.08 12.1296C58.5296 18.9117 58.2021 22.1914 60.5653 30.7262L60.5652 30.7263Z" fill="#EC4899"></path>
    <path fill-rule="evenodd" clip-rule="evenodd" d="M60.3232 29.111C58.698 22.608 59.1535 18.8988 63.1711 13.5276L10.2635 3.52809C8.77562 3.24688 7.24862 3.59597 5.99043 4.49222C4.73229 5.38854 3.8635 6.74604 3.57058 8.29591L2.83043 12.2121C2.53752 13.7619 2.85088 15.3428 3.69519 16.6364C4.53949 17.93 5.83373 18.8125 7.32165 19.0937L60.3232 29.111Z" fill="#F0F9FF"></path>
    <path fill-rule="evenodd" clip-rule="evenodd" d="M61.4024 16.1813C61.5624 15.9028 61.7335 15.6213 61.9149 15.3363L5.70109 4.71192C5.40698 4.94979 5.13736 5.2143 4.89494 5.50139L61.4024 16.1813Z" fill="#D1D5DB"></path>
    <path fill-rule="evenodd" clip-rule="evenodd" d="M60.4038 18.21C60.5209 17.9217 60.6496 17.6323 60.7897 17.3411L4.14021 6.63441C3.99667 6.91383 3.87423 7.20545 3.77454 7.50713L60.4038 18.21L60.4038 18.21Z" fill="#D1D5DB"></path>
    <path fill-rule="evenodd" clip-rule="evenodd" d="M59.7477 20.3035C59.8142 20.0032 59.8922 19.7044 59.9818 19.4059L3.48875 8.72876L3.31689 9.63811L59.7475 20.3035L59.7477 20.3035Z" fill="#D1D5DB"></path>
    <path fill-rule="evenodd" clip-rule="evenodd" d="M59.4616 22.4669C59.4766 22.1541 59.502 21.8453 59.5382 21.5396L3.08453 10.8699L2.91267 11.7792L59.4618 22.467L59.4616 22.4669Z" fill="#D1D5DB"></path>
    <path fill-rule="evenodd" clip-rule="evenodd" d="M59.5185 24.6951C59.4888 24.3715 59.4681 24.054 59.4564 23.7416L2.73254 13.0209C2.71521 13.3381 2.72275 13.6543 2.75443 13.9668L59.5186 24.6952L59.5185 24.6951Z" fill="#D1D5DB"></path>
    <path fill-rule="evenodd" clip-rule="evenodd" d="M59.8484 26.975C59.7853 26.6437 59.7289 26.3192 59.6802 26.0014L3.04369 15.2971C3.16461 15.6529 3.31916 15.9975 3.50616 16.3264L59.8481 26.9749L59.8484 26.975Z" fill="#D1D5DB"></path>
  </symbol>
  <symbol fill="none" xmlns="http://www.w3.org/2000/svg" viewBox="0 0 95 211" id="icon-center-facing">
    <path d="M64.1967 206.99L70.123 206.99L72.9422 184.131L64.1955 184.131L64.1967 206.99Z" fill="#FFB6B6"></path>
    <path d="M84.5009 206.856C84.6854 207.166 84.7828 208.169 84.7828 208.531C84.7828 209.642 83.8823 210.542 82.7714 210.542H64.4184C63.6606 210.542 63.0463 209.928 63.0463 209.17V208.406C63.0463 208.406 62.1383 206.109 64.0076 203.279C64.0076 203.279 66.3308 205.495 69.8022 202.024L70.8259 200.169L78.2361 205.589L82.3434 206.094C83.242 206.205 84.0387 206.077 84.5009 206.856Z" fill="#2F2E41"></path>
    <path d="M23.2683 206.99L29.1946 206.99L32.0137 184.131L23.2671 184.131L23.2683 206.99Z" fill="#FFB6B6"></path>
    <path d="M43.5725 206.856C43.757 207.166 43.8544 208.169 43.8544 208.531C43.8544 209.642 42.9538 210.542 41.843 210.542H23.49C22.7322 210.542 22.1178 209.928 22.1178 209.17V208.406C22.1178 208.406 21.2099 206.109 23.0791 203.279C23.0791 203.279 25.4023 205.495 28.8738 202.024L29.8975 200.169L37.3076 205.589L41.415 206.094C42.3136 206.205 43.1102 206.077 43.5725 206.856Z" fill="#2F2E41"></path>
    <path d="M65.9683 99.0317L68.1646 101.921C68.1646 101.921 68.3636 103.269 71.6947 114.26L73.5222 196.87H62.4661L47.6906 130.772L32.3539 198.196L22.7709 198.761L23.2202 122.127C23.2202 122.127 22.2111 119.46 23.0695 116.335C26.355 104.374 26.1655 107.528 26.3004 103.433C26.4713 98.2419 65.9683 99.0317 65.9683 99.0317Z" fill="#2F2E41"></path>
    <path d="M48.5413 29.6118C54.9481 29.6118 60.1418 24.4181 60.1418 18.0113C60.1418 11.6046 54.9481 6.41086 48.5413 6.41086C42.1346 6.41086 36.9409 11.6046 36.9409 18.0113C36.9409 24.4181 42.1346 29.6118 48.5413 29.6118Z" fill="#FEB8B8"></path>
    <path d="M42.3044 31.7944L35.8853 35.3421C30.5298 35.7298 26.689 37.1547 23.2762 38.8729L27.0398 71.8708L26.355 104.374C26.355 104.374 47.6991 118.996 68.1659 101.92V57.7554L67.205 40.1921C67.093 38.1442 65.2819 36.5554 63.2487 36.8245C62.0875 36.9781 60.7505 36.9484 59.3847 36.4931L55.1363 31.5628L42.3044 31.7944Z" fill="#0EA5E9"></path>
    <path d="M78.5971 4.57245C79.2444 6.03239 79.5083 7.5175 79.4225 8.80492L86.4676 22.3233L79.937 25.4874L73.4936 11.4337C72.4819 10.6329 71.5585 9.4402 70.9111 7.98026C69.4323 4.64503 69.9541 1.17843 72.0765 0.237385C74.1989 -0.703658 77.1183 1.23722 78.5971 4.57245Z" fill="#FFB6B6"></path>
    <path d="M59.3847 36.4931L61.328 37.3819C63.1111 35.4652 68.4822 35.7668 71.0881 36.0152L82.5401 37.1072L77.1924 20.3766L85.2433 17.1368L94.8633 35.6509C95.4451 38.7916 94.1396 41.9829 91.5233 43.8154L66.979 57.7541L64.1259 38.6615L59.3847 36.4931Z" fill="#0EA5E9"></path>
    <path d="M0.0308679 114.968C0.153116 113.376 0.624892 111.943 1.31082 110.851L1.51735 95.608L8.7675 95.9184L7.77738 111.347C8.28845 112.532 8.53597 114.02 8.41371 115.612C8.13442 119.25 6.03141 122.055 3.71655 121.877C1.40168 121.699 -0.248422 118.606 0.0308679 114.968Z" fill="#FFB6B6"></path>
    <path d="M28.6489 43.0423L25.3173 37.9818C25.3173 37.9818 19.8836 39.0189 16.9964 43.1159C14.1092 47.2129 3.19588 72.339 3.19588 72.339L1.10015 100.703L9.21759 99.0317L13.1343 77.5203L25.7283 60.3105L28.6489 43.0423Z" fill="#0EA5E9"></path>
    <path d="M60.1418 19.55C60.5775 17.3388 53.8537 14.1202 53.8655 14.124C54.9092 14.4571 53.2677 16.3694 52.1955 16.144C52.1955 16.144 50.6201 16.9454 51.4786 17.6347C48.5194 17.3811 44.5657 14.5689 41.6065 14.3153C40.4164 14.2113 39.9553 17.0813 39.2074 18.0113C38.0758 19.4356 36.9409 16.6031 37.3597 20.3766H37.1906C36.5728 18.8873 35.9549 17.372 35.7533 15.7721C35.5582 14.1722 35.8313 12.4488 36.8524 11.2001C37.1906 10.7773 35.8619 9.38568 36.2197 8.98246C37.3578 7.67523 39.5644 6.95973 40.5789 5.56148C41.9219 3.70916 43.4499 5.01658 46.2462 3.45879C46.9778 3.05122 48.2494 2.90453 49.0597 3.11614L50.9522 3.61039C50.5832 4.16381 51.0398 4.89369 51.6988 4.8041L54.165 4.46886C55.095 4.768 55.9795 5.21024 56.3957 6.06221C56.6493 6.56951 56.6949 7.16131 56.89 7.69461C57.2477 8.67666 58.0931 9.38558 58.7695 10.179C60.5878 10.7085 60.6854 12.0677 60.6854 14.3471C62.3799 15.2976 60.6118 17.4231 60.1418 19.55Z" fill="#2F2E41"></path>
  </symbol>
  <symbol version="1.1" xmlns="http://www.w3.org/2000/svg" viewBox="0 0 24 24" id="icon-circle-with-minus">
    <path d="M23 12c0-3.037-1.232-5.789-3.222-7.778s-4.741-3.222-7.778-3.222-5.789 1.232-7.778 3.222-3.222 4.741-3.222 7.778 1.232 5.789 3.222 7.778 4.741 3.222 7.778 3.222 5.789-1.232 7.778-3.222 3.222-4.741 3.222-7.778zM21 12c0 2.486-1.006 4.734-2.636 6.364s-3.878 2.636-6.364 2.636-4.734-1.006-6.364-2.636-2.636-3.878-2.636-6.364 1.006-4.734 2.636-6.364 3.878-2.636 6.364-2.636 4.734 1.006 6.364 2.636 2.636 3.878 2.636 6.364zM8 13h8c0.552 0 1-0.448 1-1s-0.448-1-1-1h-8c-0.552 0-1 0.448-1 1s0.448 1 1 1z"></path>
  </symbol>
  <symbol version="1.1" xmlns="http://www.w3.org/2000/svg" viewBox="0 0 24 24" id="icon-circle-with-plus">
    <path d="M23 12c0-3.037-1.232-5.789-3.222-7.778s-4.741-3.222-7.778-3.222-5.789 1.232-7.778 3.222-3.222 4.741-3.222 7.778 1.232 5.789 3.222 7.778 4.741 3.222 7.778 3.222 5.789-1.232 7.778-3.222 3.222-4.741 3.222-7.778zM21 12c0 2.486-1.006 4.734-2.636 6.364s-3.878 2.636-6.364 2.636-4.734-1.006-6.364-2.636-2.636-3.878-2.636-6.364 1.006-4.734 2.636-6.364 3.878-2.636 6.364-2.636 4.734 1.006 6.364 2.636 2.636 3.878 2.636 6.364zM8 13h3v3c0 0.552 0.448 1 1 1s1-0.448 1-1v-3h3c0.552 0 1-0.448 1-1s-0.448-1-1-1h-3v-3c0-0.552-0.448-1-1-1s-1 0.448-1 1v3h-3c-0.552 0-1 0.448-1 1s0.448 1 1 1z"></path>
  </symbol>
  <symbol version="1.1" xmlns="http://www.w3.org/2000/svg" viewBox="0 0 20 20" id="icon-funnel">
    <path d="M10 1c-4.908 0-8 1.512-8 3.001v2c0 0.918 6 6 6 6v6c-0.001 0.684 1 1 2 1s2.001-0.316 2-1v-6c0 0 6-5.082 6-6v-2c0-1.489-3.092-3.001-8-3.001zM10 6.123c-3.591-0.001-6.138-1.333-6.138-1.831-0.002-0.495 2.548-1.831 6.138-1.829 3.59-0.002 6.14 1.334 6.138 1.828 0 0.499-2.547 1.831-6.138 1.832z"></path>
  </symbol>
  <symbol version="1.1" xmlns="http://www.w3.org/2000/svg" viewBox="0 0 32 32" id="icon-github">
    <path d="M16 0.396c-8.84 0-16 7.164-16 16 0 7.071 4.584 13.067 10.94 15.18 0.8 0.151 1.093-0.344 1.093-0.769 0-0.38-0.013-1.387-0.020-2.72-4.451 0.965-5.389-2.147-5.389-2.147-0.728-1.847-1.78-2.34-1.78-2.34-1.449-0.992 0.112-0.972 0.112-0.972 1.607 0.112 2.451 1.648 2.451 1.648 1.427 2.447 3.745 1.74 4.66 1.331 0.144-1.035 0.556-1.74 1.013-2.14-3.553-0.4-7.288-1.776-7.288-7.907 0-1.747 0.62-3.173 1.647-4.293-0.18-0.404-0.72-2.031 0.14-4.235 0 0 1.34-0.429 4.4 1.64 1.28-0.356 2.64-0.532 4-0.54 1.36 0.008 2.72 0.184 4 0.54 3.040-2.069 4.38-1.64 4.38-1.64 0.86 2.204 0.32 3.831 0.16 4.235 1.020 1.12 1.64 2.547 1.64 4.293 0 6.147-3.74 7.5-7.3 7.893 0.56 0.48 1.080 1.461 1.080 2.96 0 2.141-0.020 3.861-0.020 4.381 0 0.42 0.28 0.92 1.1 0.76 6.401-2.099 10.981-8.099 10.981-15.159 0-8.836-7.164-16-16-16z"></path>
  </symbol>
  <symbol fill="none" xmlns="http://www.w3.org/2000/svg" viewBox="0 0 643 496" id="icon-hero">
    <g clip-path="url(#clip0_12_110)">
      <path d="M409.684 371.304V490.698H128.246C96.1802 490.698 70.091 463.917 70.091 431.001C70.091 398.085 96.1802 371.304 128.246 371.304H409.684Z" fill="#F0F9FF"></path>
      <path d="M416.596 489.78C416.596 490.997 416.141 492.165 415.33 493.026C414.52 493.887 413.422 494.371 412.276 494.372H123.233C107.535 494.372 92.4795 487.743 81.379 475.945C70.2785 464.147 64.0423 448.145 64.0423 431.46C64.0423 414.775 70.2785 398.773 81.379 386.975C92.4795 375.176 107.535 368.548 123.233 368.548H412.276C413.422 368.548 414.521 369.032 415.331 369.893C416.141 370.755 416.596 371.923 416.596 373.14C416.596 374.358 416.141 375.526 415.331 376.388C414.521 377.249 413.422 377.733 412.276 377.733H123.233C109.827 377.733 96.9691 383.393 87.4891 393.469C78.0091 403.545 72.6833 417.211 72.6833 431.46C72.6833 445.709 78.0091 459.375 87.4891 469.451C96.9691 479.527 109.827 485.187 123.233 485.187H412.276C413.422 485.188 414.52 485.672 415.33 486.533C416.141 487.394 416.596 488.562 416.596 489.78Z" fill="#0EA5E9"></path>
      <path d="M409.684 398.856H107.247C107.018 398.856 106.798 398.759 106.636 398.587C106.474 398.415 106.383 398.181 106.383 397.938C106.383 397.694 106.474 397.461 106.636 397.288C106.798 397.116 107.018 397.019 107.247 397.019H409.684C409.913 397.019 410.132 397.116 410.294 397.288C410.457 397.461 410.548 397.694 410.548 397.938C410.548 398.181 410.457 398.415 410.294 398.587C410.132 398.759 409.913 398.856 409.684 398.856Z" fill="#D1D5DB"></path>
      <path d="M409.684 420.898H107.247C107.018 420.898 106.798 420.801 106.636 420.629C106.474 420.457 106.383 420.223 106.383 419.98C106.383 419.736 106.474 419.503 106.636 419.33C106.798 419.158 107.018 419.061 107.247 419.061H409.684C409.913 419.061 410.132 419.158 410.295 419.33C410.457 419.503 410.548 419.736 410.548 419.98C410.548 420.223 410.457 420.457 410.295 420.629C410.132 420.801 409.913 420.898 409.684 420.898Z" fill="#D1D5DB"></path>
      <path d="M409.684 442.94H107.247C107.018 442.94 106.798 442.843 106.636 442.671C106.474 442.499 106.383 442.265 106.383 442.022C106.383 441.778 106.474 441.545 106.636 441.372C106.798 441.2 107.018 441.103 107.247 441.103H409.684C409.913 441.103 410.132 441.2 410.295 441.372C410.457 441.545 410.548 441.778 410.548 442.022C410.548 442.265 410.457 442.499 410.295 442.671C410.132 442.843 409.913 442.94 409.684 442.94Z" fill="#D1D5DB"></path>
      <path d="M409.684 464.982H107.247C107.018 464.982 106.798 464.885 106.636 464.713C106.474 464.541 106.383 464.307 106.383 464.064C106.383 463.82 106.474 463.587 106.636 463.414C106.798 463.242 107.018 463.145 107.247 463.145H409.684C409.913 463.145 410.132 463.242 410.295 463.414C410.457 463.587 410.548 463.82 410.548 464.064C410.548 464.307 410.457 464.541 410.295 464.713C410.132 464.885 409.913 464.982 409.684 464.982Z" fill="#D1D5DB"></path>
      <path d="M627.193 393.778L556.713 486.748L337.563 299.069C312.594 277.686 308.088 239.434 327.519 213.803C346.95 188.172 383.074 184.716 408.044 206.099L627.193 393.778Z" fill="#F0F9FF"></path>
      <path d="M562.638 490.643C561.919 491.591 560.875 492.196 559.736 492.327C558.597 492.457 557.455 492.101 556.563 491.337L331.491 298.587C319.267 288.118 311.456 272.917 309.777 256.328C308.098 239.738 312.689 223.119 322.538 210.127C332.388 197.134 346.69 188.833 362.298 187.048C377.906 185.264 393.543 190.142 405.767 200.611L630.838 393.361C631.281 393.74 631.648 394.207 631.921 394.736C632.193 395.265 632.364 395.847 632.425 396.446C632.486 397.046 632.435 397.653 632.275 398.232C632.116 398.811 631.85 399.35 631.494 399.82C631.138 400.29 630.698 400.68 630.2 400.969C629.702 401.258 629.155 401.44 628.59 401.505C628.026 401.569 627.455 401.515 626.911 401.344C626.366 401.174 625.859 400.892 625.417 400.513L400.345 207.762C395.176 203.332 389.237 200.028 382.866 198.038C376.496 196.048 369.819 195.412 363.217 196.165C356.615 196.919 350.217 199.047 344.389 202.429C338.561 205.811 333.417 210.38 329.251 215.876C325.085 221.371 321.978 227.685 320.109 234.457C318.239 241.229 317.643 248.326 318.354 255.343C319.066 262.359 321.071 269.158 324.255 275.351C327.44 281.544 331.741 287.01 336.913 291.435L561.984 484.186C562.876 484.95 563.446 486.06 563.569 487.271C563.691 488.481 563.356 489.694 562.638 490.643Z" fill="#D1D5DB"></path>
      <path d="M610.929 415.233L375.428 213.551C375.339 213.475 375.266 213.381 375.211 213.276C375.157 213.17 375.123 213.054 375.111 212.934C375.098 212.814 375.109 212.692 375.141 212.577C375.173 212.461 375.226 212.353 375.297 212.259C375.368 212.165 375.456 212.087 375.556 212.029C375.655 211.972 375.765 211.935 375.877 211.922C375.99 211.909 376.104 211.92 376.213 211.954C376.322 211.988 376.424 212.045 376.512 212.12L612.013 413.802C612.101 413.878 612.175 413.971 612.23 414.077C612.284 414.183 612.318 414.3 612.331 414.42C612.343 414.54 612.333 414.661 612.301 414.777C612.269 414.893 612.216 415.001 612.144 415.095C612.073 415.189 611.985 415.267 611.886 415.325C611.786 415.382 611.676 415.419 611.564 415.432C611.451 415.444 611.336 415.433 611.227 415.399C611.119 415.365 611.017 415.309 610.929 415.233Z" fill="#D1D5DB"></path>
      <path d="M597.917 432.396L362.416 230.714C362.238 230.561 362.124 230.339 362.1 230.097C362.075 229.855 362.142 229.613 362.286 229.424C362.43 229.234 362.638 229.113 362.866 229.087C363.094 229.061 363.322 229.131 363.5 229.284L599.001 430.966C599.09 431.042 599.163 431.135 599.218 431.241C599.272 431.347 599.307 431.463 599.319 431.583C599.331 431.703 599.321 431.825 599.289 431.94C599.257 432.056 599.204 432.164 599.133 432.258C599.061 432.352 598.973 432.43 598.874 432.488C598.774 432.546 598.665 432.582 598.552 432.595C598.439 432.608 598.325 432.597 598.216 432.563C598.107 432.529 598.005 432.472 597.917 432.396Z" fill="#D1D5DB"></path>
      <path d="M584.905 449.56L349.404 247.878C349.226 247.725 349.112 247.503 349.087 247.261C349.063 247.019 349.13 246.776 349.273 246.587C349.417 246.397 349.626 246.276 349.854 246.25C350.082 246.224 350.31 246.295 350.488 246.448L585.989 448.13C586.078 448.206 586.151 448.299 586.206 448.405C586.26 448.511 586.294 448.627 586.306 448.747C586.319 448.867 586.308 448.988 586.276 449.104C586.244 449.219 586.191 449.327 586.12 449.421C586.049 449.515 585.961 449.593 585.861 449.651C585.762 449.709 585.653 449.745 585.54 449.758C585.427 449.771 585.313 449.76 585.204 449.726C585.095 449.692 584.993 449.636 584.905 449.56Z" fill="#D1D5DB"></path>
      <path d="M571.893 466.724L336.392 265.042C336.304 264.966 336.231 264.873 336.176 264.767C336.122 264.661 336.087 264.545 336.075 264.425C336.063 264.305 336.073 264.184 336.105 264.068C336.137 263.952 336.19 263.844 336.262 263.75C336.333 263.656 336.421 263.578 336.52 263.52C336.62 263.463 336.729 263.426 336.842 263.413C336.955 263.4 337.069 263.411 337.178 263.445C337.287 263.479 337.388 263.536 337.477 263.611L572.978 465.293C573.066 465.369 573.14 465.462 573.194 465.568C573.249 465.674 573.283 465.791 573.295 465.911C573.308 466.031 573.298 466.152 573.266 466.268C573.234 466.384 573.18 466.492 573.109 466.586C573.038 466.68 572.95 466.758 572.85 466.816C572.751 466.873 572.641 466.91 572.528 466.923C572.415 466.935 572.301 466.924 572.192 466.89C572.083 466.856 571.982 466.8 571.893 466.724Z" fill="#D1D5DB"></path>
      <path d="M642.029 495.29H0.864103C0.634929 495.29 0.41514 495.193 0.253089 495.021C0.0910385 494.849 0 494.615 0 494.372C0 494.128 0.0910385 493.894 0.253089 493.722C0.41514 493.55 0.634929 493.453 0.864103 493.453H642.029C642.258 493.453 642.478 493.55 642.64 493.722C642.802 493.894 642.893 494.128 642.893 494.372C642.893 494.615 642.802 494.849 642.64 495.021C642.478 495.193 642.258 495.29 642.029 495.29Z" fill="#D1D5DB"></path>
      <path d="M292.137 358.754L282.258 358.753L277.56 318.255L292.14 318.257L292.137 358.754Z" fill="#FFB8B8"></path>
      <path d="M275.202 355.753H294.253V368.503H263.206C263.206 366.829 263.516 365.171 264.119 363.624C264.722 362.077 265.606 360.672 266.72 359.488C267.833 358.304 269.156 357.365 270.611 356.724C272.067 356.083 273.626 355.753 275.202 355.753Z" fill="#075985"></path>
      <path d="M191.214 358.754L181.336 358.753L176.637 318.255L191.217 318.257L191.214 358.754Z" fill="#FFB8B8"></path>
      <path d="M174.279 355.753H193.331V368.503H162.284C162.284 366.829 162.594 365.171 163.197 363.624C163.8 362.077 164.683 360.672 165.797 359.488C166.911 358.304 168.233 357.365 169.689 356.724C171.144 356.083 172.704 355.753 174.279 355.753Z" fill="#075985"></path>
      <path d="M224.21 58.3498V53.7577C224.21 45.9022 227.146 38.3685 232.372 32.8139C237.598 27.2592 244.686 24.1387 252.077 24.1387C259.468 24.1387 266.556 27.2592 271.782 32.8139C277.008 38.3685 279.944 45.9022 279.944 53.7577V58.3498C279.944 64.013 277.828 69.4443 274.06 73.4488C270.292 77.4533 265.182 79.703 259.854 79.703H244.3C241.662 79.703 239.049 79.1507 236.612 78.0776C234.174 77.0045 231.96 75.4317 230.094 73.4488C228.228 71.466 226.749 69.112 225.739 66.5213C224.729 63.9306 224.21 61.154 224.21 58.3498Z" fill="#0C4A6E"></path>
      <path d="M252.077 81.2833C263.798 81.2833 273.3 71.184 273.3 58.726C273.3 46.2679 263.798 36.1687 252.077 36.1687C240.356 36.1687 230.854 46.2679 230.854 58.726C230.854 71.184 240.356 81.2833 252.077 81.2833Z" fill="#FFB8B8"></path>
      <path d="M136.636 136.252C137.497 135.388 138.526 134.735 139.651 134.339C140.775 133.943 141.968 133.814 143.144 133.961C144.321 134.108 145.452 134.527 146.46 135.189C147.468 135.851 148.326 136.74 148.976 137.793L167.169 134.135L171.957 145.344L146.196 150.126C144.459 151.168 142.423 151.497 140.474 151.051C138.524 150.604 136.797 149.413 135.618 147.702C134.44 145.992 133.893 143.882 134.08 141.772C134.268 139.662 135.177 137.698 136.636 136.252Z" fill="#FFB8B8"></path>
      <path d="M235.769 95.8723L205.935 116.761L155.594 133.847C154.926 134.075 154.354 134.541 153.974 135.167C153.594 135.793 153.43 136.54 153.509 137.28L154.608 147.334C154.656 147.779 154.792 148.208 155.006 148.594C155.22 148.98 155.507 149.314 155.85 149.575C156.192 149.836 156.582 150.018 156.995 150.109C157.408 150.201 157.834 150.2 158.246 150.106L205.624 139.312C207.917 138.793 210.085 137.778 211.994 136.331L245.511 110.986C246.726 110.062 247.695 108.82 248.325 107.38C248.955 105.94 249.223 104.351 249.104 102.768C248.981 101.183 248.472 99.6595 247.627 98.347C246.782 97.0345 245.63 95.9785 244.285 95.2827C242.939 94.5869 241.446 94.2754 239.953 94.3788C238.46 94.4821 237.018 94.9969 235.769 95.8723Z" fill="#D1D5DB"></path>
      <path d="M282.435 347.262C281.677 347.262 280.935 347.027 280.3 346.587C279.665 346.146 279.164 345.519 278.86 344.781L233.572 225.845C233.466 225.587 233.289 225.37 233.063 225.222C232.838 225.075 232.575 225.004 232.311 225.02C232.047 225.036 231.793 225.137 231.585 225.311C231.376 225.484 231.223 225.721 231.145 225.99L194.197 341.779C194.041 342.318 193.783 342.817 193.439 343.246C193.095 343.675 192.672 344.024 192.196 344.273C191.72 344.522 191.201 344.664 190.671 344.692C190.141 344.72 189.612 344.632 189.115 344.434L176.725 339.496C176.053 339.23 175.463 338.771 175.021 338.171C174.579 337.57 174.302 336.851 174.222 336.093C168.648 284.485 217.254 154.219 217.746 152.91L217.882 152.547L262.191 162.964L262.283 163.071C279.961 183.568 294.491 312.849 297.225 338.557C297.326 339.485 297.128 340.423 296.661 341.215C296.194 342.008 295.488 342.608 294.657 342.916L283.721 347.027C283.308 347.182 282.873 347.262 282.435 347.262Z" fill="#0C4A6E"></path>
      <path d="M244.258 167.157C233.523 167.157 221.554 164.882 217.87 155.493L217.786 155.277L217.9 155.077C220.808 150.006 224.651 141.356 222.586 139.732C218.516 136.534 216.542 131.273 216.717 124.095C217.098 108.514 227.087 94.6794 241.574 89.6708C245.617 88.2953 249.733 87.1692 253.899 86.298C256.936 85.6467 260.071 85.7183 263.079 86.5078C266.086 87.2973 268.893 88.785 271.295 90.8641C273.728 92.9568 275.695 95.5963 277.054 98.5928C278.413 101.589 279.13 104.869 279.155 108.195C279.307 124.847 276.895 148.039 264.541 163.962C263.962 164.7 263.156 165.198 262.266 165.368C256.323 166.511 250.298 167.109 244.258 167.157Z" fill="#D1D5DB"></path>
      <path d="M240.265 166.534C240.849 164.306 242.237 162.414 244.126 161.268C246.016 160.122 248.255 159.815 250.356 160.413C250.785 160.541 251.204 160.706 251.607 160.906L265.421 147.544L275.029 154.423L255.274 173.004C254.382 174.713 252.977 176.056 251.284 176.82C249.591 177.583 247.706 177.722 245.93 177.216C244.895 176.915 243.927 176.399 243.081 175.698C242.235 174.997 241.528 174.124 241.001 173.131C240.474 172.137 240.138 171.043 240.012 169.911C239.885 168.778 239.971 167.631 240.265 166.534Z" fill="#FFB8B8"></path>
      <path d="M263.233 166.703C262.337 166.704 261.468 166.375 260.774 165.771L255.327 161.04C254.873 160.645 254.508 160.147 254.261 159.581C254.014 159.016 253.89 158.399 253.899 157.775C253.908 157.152 254.05 156.539 254.314 155.982C254.577 155.426 254.956 154.939 255.421 154.56L278.269 135.935C278.54 135.713 278.718 135.386 278.764 135.026C278.81 134.666 278.72 134.301 278.514 134.011L264.412 114.195C262.773 111.9 261.952 109.063 262.092 106.187C262.232 103.31 263.326 100.579 265.179 98.4768C267.13 96.2366 269.803 94.8581 272.666 94.6147C275.529 94.3713 278.374 95.2808 280.636 97.1628L280.725 97.2628L295.451 119.674C297.043 121.001 298.325 122.702 299.197 124.643C300.069 126.583 300.507 128.712 300.477 130.863C300.447 133.013 299.95 135.127 299.024 137.039C298.098 138.952 296.769 140.611 295.14 141.887L265.548 165.893C264.878 166.419 264.066 166.703 263.233 166.703Z" fill="#D1D5DB"></path>
      <path d="M233.278 52.3801V41.1881L252.077 32.4631L270.002 41.1881V52.3801C270.002 52.8672 269.82 53.3344 269.496 53.6789C269.172 54.0234 268.732 54.2169 268.274 54.2169H235.006C234.548 54.2169 234.108 54.0234 233.784 53.6789C233.46 53.3344 233.278 52.8672 233.278 52.3801Z" fill="#0C4A6E"></path>
      <path d="M251.214 25.6235C248.45 16.2203 254.255 5.44372 262.837 1.72168C271.419 -2.00037 281.686 0.601455 288.927 6.75083C296.169 12.9002 300.661 22.1108 303.042 31.6319C305.423 41.1529 305.874 51.081 306.314 60.9215C316.858 62.98 324.031 76.2722 320.378 86.9846C316.725 97.6971 303.206 103.019 293.869 97.42C284.532 91.8209 281.828 76.7697 288.567 67.9078C291.755 63.7146 293.536 58.5105 293.628 53.1199C293.72 47.7293 292.116 42.4603 289.072 38.1474C286.029 33.8345 281.718 30.7243 276.823 29.3093C271.928 27.8943 266.729 28.2555 262.049 30.3356C256.853 32.6453 250.332 26.6441 251.214 25.6235Z" fill="#0C4A6E"></path>
      <path d="M174.303 88.9259H119.654C117.739 88.9259 115.999 88.0861 114.74 86.7331C113.48 85.3804 112.698 83.5122 112.698 81.4557V77.4702C112.698 75.4138 113.48 73.5456 114.74 72.1927C115.999 70.8399 117.739 70 119.654 70H174.303C170.108 77.6949 170.396 80.9784 174.303 88.9258V88.9259Z" fill="#38BDF8"></path>
      <path fill-rule="evenodd" clip-rule="evenodd" d="M173.765 87.3837C170.96 81.2957 170.719 77.5664 173.669 71.5425H119.825C118.311 71.5425 116.875 72.1691 115.805 73.2834C114.735 74.3978 114.134 75.893 114.134 77.4703V81.4558C114.134 83.033 114.735 84.5283 115.805 85.6426C116.875 86.7569 118.311 87.3837 119.825 87.3837L173.765 87.3837Z" fill="#D1D5DB"></path>
      <path fill-rule="evenodd" clip-rule="evenodd" d="M172.424 74.4784C172.529 74.1751 172.645 73.8667 172.771 73.553H115.562C115.317 73.8413 115.101 74.1513 114.916 74.4784H172.424Z" fill="#F0F9FF"></path>
      <path fill-rule="evenodd" clip-rule="evenodd" d="M171.819 76.6574C171.881 76.3524 171.954 76.0441 172.037 75.7319H114.385C114.296 76.0331 114.23 76.3424 114.188 76.6574H171.82H171.819Z" fill="#F0F9FF"></path>
      <path fill-rule="evenodd" clip-rule="evenodd" d="M171.564 78.8363C171.573 78.5289 171.594 78.2208 171.627 77.9109H114.134V78.8363H171.563H171.564Z" fill="#F0F9FF"></path>
      <path fill-rule="evenodd" clip-rule="evenodd" d="M171.684 81.015C171.641 80.7049 171.609 80.3968 171.587 80.0896H114.134V81.015H171.685H171.684Z" fill="#F0F9FF"></path>
      <path fill-rule="evenodd" clip-rule="evenodd" d="M172.154 83.1939C172.065 82.8815 171.985 82.5733 171.916 82.2686H114.188C114.23 82.5834 114.296 82.8928 114.385 83.1939H172.154H172.154Z" fill="#F0F9FF"></path>
      <path fill-rule="evenodd" clip-rule="evenodd" d="M172.902 85.373C172.778 85.0591 172.662 84.7507 172.555 84.4475H114.916C115.101 84.7746 115.317 85.0845 115.562 85.373H172.901H172.902Z" fill="#F0F9FF"></path>
      <path d="M112.698 107.868H167.347C169.261 107.868 171.001 107.028 172.261 105.675C173.52 104.323 174.302 102.455 174.302 100.398V96.4126C174.302 94.3561 173.52 92.488 172.261 91.135C171.001 89.7822 169.262 88.9424 167.347 88.9424H112.698C116.892 96.6373 116.605 99.9208 112.698 107.868Z" fill="#0EA5E9"></path>
      <path fill-rule="evenodd" clip-rule="evenodd" d="M113.236 106.326C116.04 100.238 116.282 96.5086 113.331 90.4846H167.176C168.69 90.4846 170.125 91.1113 171.195 92.2256C172.265 93.34 172.867 94.8352 172.867 96.4125V100.398C172.867 101.975 172.265 103.47 171.195 104.585C170.125 105.699 168.69 106.326 167.176 106.326L113.236 106.326Z" fill="#F0F9FF"></path>
      <path fill-rule="evenodd" clip-rule="evenodd" d="M114.576 93.4208C114.471 93.1175 114.355 92.8091 114.23 92.4954H171.439C171.683 92.7837 171.899 93.0937 172.084 93.4208H114.576Z" fill="#D1D5DB"></path>
      <path fill-rule="evenodd" clip-rule="evenodd" d="M115.181 95.5998C115.119 95.2947 115.047 94.9865 114.963 94.6743H172.615C172.705 94.9755 172.771 95.2848 172.813 95.5998H115.181Z" fill="#D1D5DB"></path>
      <path fill-rule="evenodd" clip-rule="evenodd" d="M115.437 97.7785C115.427 97.471 115.406 97.1629 115.373 96.853H172.867V97.7785H115.437H115.437Z" fill="#D1D5DB"></path>
      <path fill-rule="evenodd" clip-rule="evenodd" d="M115.316 99.9577C115.36 99.6475 115.392 99.3394 115.413 99.0322H172.866V99.9577H115.316H115.316Z" fill="#D1D5DB"></path>
      <path fill-rule="evenodd" clip-rule="evenodd" d="M114.847 102.136C114.936 101.824 115.015 101.516 115.085 101.211H172.813C172.771 101.526 172.705 101.835 172.616 102.136H114.846H114.847Z" fill="#D1D5DB"></path>
      <path fill-rule="evenodd" clip-rule="evenodd" d="M114.099 104.316C114.223 104.002 114.338 103.693 114.445 103.39H172.084C171.899 103.717 171.683 104.027 171.439 104.316H114.099H114.099Z" fill="#D1D5DB"></path>
      <path d="M181 107.868H114.468C112.137 107.868 110.019 108.891 108.486 110.538C106.952 112.185 106 114.459 106 116.963V121.815C106 124.319 106.952 126.593 108.486 128.24C110.019 129.887 112.137 130.91 114.468 130.91H181C175.894 121.541 176.244 117.544 181 107.868Z" fill="#0284C7"></path>
      <path fill-rule="evenodd" clip-rule="evenodd" d="M180.345 109.746C176.931 117.158 176.637 121.698 180.229 129.032H114.677C112.834 129.032 111.086 128.269 109.783 126.913C108.481 125.556 107.749 123.736 107.749 121.815V116.963C107.749 115.043 108.481 113.223 109.783 111.866C111.086 110.509 112.834 109.746 114.677 109.746H180.346H180.345Z" fill="#F0F9FF"></path>
      <path fill-rule="evenodd" clip-rule="evenodd" d="M178.714 125.457C178.842 125.827 178.983 126.202 179.136 126.584H109.487C109.189 126.233 108.926 125.856 108.701 125.457H178.714H178.714Z" fill="#D1D5DB"></path>
      <path fill-rule="evenodd" clip-rule="evenodd" d="M177.977 122.804C178.052 123.176 178.141 123.551 178.242 123.931H108.054C107.945 123.564 107.865 123.188 107.814 122.804H177.977H177.977Z" fill="#D1D5DB"></path>
      <path fill-rule="evenodd" clip-rule="evenodd" d="M177.666 120.152C177.677 120.526 177.703 120.901 177.743 121.279H107.749V120.152H177.666H177.666Z" fill="#D1D5DB"></path>
      <path fill-rule="evenodd" clip-rule="evenodd" d="M177.812 117.499C177.759 117.877 177.72 118.252 177.694 118.626H107.748V117.499H177.812H177.812Z" fill="#D1D5DB"></path>
      <path fill-rule="evenodd" clip-rule="evenodd" d="M178.384 114.846C178.275 115.227 178.179 115.602 178.094 115.973H107.814C107.865 115.59 107.945 115.213 108.054 114.846H178.384Z" fill="#D1D5DB"></path>
      <path fill-rule="evenodd" clip-rule="evenodd" d="M179.294 112.194C179.144 112.576 179.003 112.952 178.873 113.321H108.7C108.926 112.923 109.188 112.545 109.486 112.194H179.294H179.294Z" fill="#D1D5DB"></path>
      <path d="M135.422 359.932L83.6434 377.411C81.8293 378.023 79.9126 377.784 78.2864 376.905C76.6602 376.026 75.3218 374.506 74.664 372.558L73.3893 368.781C72.7315 366.833 72.8749 364.813 73.6357 363.128C74.3965 361.443 75.7759 360.091 77.5902 359.479L129.368 342C127.856 350.632 129.178 353.651 135.422 359.932L135.422 359.932Z" fill="#D1D5DB"></path>
      <path fill-rule="evenodd" clip-rule="evenodd" d="M134.419 358.642C129.814 353.771 128.393 350.315 129.262 343.664L78.2457 360.886C76.811 361.37 75.6512 362.423 74.994 363.821C74.3368 365.219 74.2451 366.828 74.7495 368.322L76.0243 372.098C76.5287 373.593 77.5769 374.817 78.9469 375.531C80.317 376.244 81.8777 376.379 83.3124 375.895L134.419 358.642Z" fill="#F0F9FF"></path>
      <path fill-rule="evenodd" clip-rule="evenodd" d="M129.021 346.844C129.024 346.523 129.035 346.194 129.053 345.856L74.8495 364.154C74.7098 364.506 74.6045 364.868 74.5339 365.237L129.021 346.844Z" fill="#D1D5DB"></path>
      <path fill-rule="evenodd" clip-rule="evenodd" d="M129.145 349.102C129.106 348.793 129.076 348.478 129.056 348.155L74.4316 366.595C74.4434 366.909 74.4797 367.223 74.5407 367.535L129.145 349.102L129.145 349.102Z" fill="#D1D5DB"></path>
      <path fill-rule="evenodd" clip-rule="evenodd" d="M129.6 351.248C129.51 350.954 129.432 350.655 129.364 350.351L74.8904 368.74L75.1864 369.616L129.599 351.248L129.6 351.248Z" fill="#D1D5DB"></path>
      <path fill-rule="evenodd" clip-rule="evenodd" d="M130.411 353.274C130.27 352.994 130.141 352.712 130.023 352.428L75.5878 370.804L75.8838 371.681L130.411 353.274L130.411 353.274Z" fill="#D1D5DB"></path>
      <path fill-rule="evenodd" clip-rule="evenodd" d="M131.553 355.188C131.368 354.921 131.194 354.654 131.031 354.387L76.3354 372.851C76.4758 373.136 76.6374 373.408 76.8182 373.665L131.553 355.188L131.553 355.188Z" fill="#D1D5DB"></path>
      <path fill-rule="evenodd" clip-rule="evenodd" d="M132.958 357.014C132.74 356.756 132.532 356.5 132.334 356.247L77.7225 374.683C78.0023 374.934 78.306 375.158 78.6302 375.353L132.958 357.014L132.958 357.014Z" fill="#D1D5DB"></path>
      <path d="M486.265 487.281L431.917 481.551C430.013 481.35 428.371 480.333 427.26 478.855C426.149 477.378 425.568 475.438 425.783 473.393L426.201 469.429C426.417 467.384 427.39 465.608 428.785 464.395C430.18 463.181 431.997 462.529 433.902 462.729L488.249 468.46C483.271 475.672 483.213 478.968 486.265 487.281L486.265 487.281Z" fill="#D1D5DB"></path>
      <path fill-rule="evenodd" clip-rule="evenodd" d="M485.892 485.691C483.741 479.343 483.892 475.609 487.458 469.927L433.91 464.281C432.404 464.122 430.911 464.595 429.73 465.591C428.549 466.587 427.794 468.011 427.629 469.58L427.211 473.543C427.046 475.112 427.487 476.662 428.434 477.882C429.381 479.102 430.743 479.876 432.249 480.035L485.892 485.691Z" fill="#F0F9FF"></path>
      <path fill-rule="evenodd" clip-rule="evenodd" d="M485.912 472.717C486.048 472.426 486.196 472.131 486.353 471.833L429.46 465.834C429.186 466.095 428.939 466.38 428.721 466.686L485.912 472.717Z" fill="#D1D5DB"></path>
      <path fill-rule="evenodd" clip-rule="evenodd" d="M485.082 474.82C485.175 474.523 485.28 474.224 485.396 473.923L428.061 467.877C427.941 468.167 427.843 468.468 427.768 468.777L485.082 474.82L485.082 474.82Z" fill="#D1D5DB"></path>
      <path fill-rule="evenodd" clip-rule="evenodd" d="M484.599 476.96C484.641 476.655 484.694 476.351 484.759 476.046L427.583 470.018L427.486 470.938L484.599 476.96L484.599 476.96Z" fill="#D1D5DB"></path>
      <path fill-rule="evenodd" clip-rule="evenodd" d="M484.49 479.14C484.48 478.827 484.48 478.517 484.491 478.209L427.355 472.185L427.258 473.105L484.491 479.14L484.49 479.14Z" fill="#D1D5DB"></path>
      <path fill-rule="evenodd" clip-rule="evenodd" d="M484.729 481.356C484.673 481.036 484.627 480.721 484.589 480.41L427.18 474.357C427.188 474.675 427.222 474.989 427.279 475.298L484.729 481.356L484.729 481.356Z" fill="#D1D5DB"></path>
      <path fill-rule="evenodd" clip-rule="evenodd" d="M485.244 483.601C485.154 483.276 485.071 482.957 484.997 482.644L427.676 476.6C427.825 476.945 428.007 477.276 428.221 477.589L485.244 483.601L485.244 483.601Z" fill="#D1D5DB"></path>
      <path d="M428.591 41.5826L378.789 64.0824C377.044 64.8707 375.113 64.8216 373.408 64.1072C371.703 63.3931 370.221 62.0126 369.375 60.1384L367.734 56.5064C366.887 54.6324 366.831 52.608 367.422 50.8564C368.013 49.1049 369.252 47.6234 370.997 46.835L420.799 24.3352C420.145 33.0745 421.759 35.9485 428.591 41.5825L428.591 41.5826Z" fill="#EC4899"></path>
      <path fill-rule="evenodd" clip-rule="evenodd" d="M427.466 40.3984C422.404 36.0051 420.648 32.7059 420.857 26.0015L371.788 48.1701C370.408 48.7935 369.358 49.9556 368.841 51.4116C368.325 52.8676 368.393 54.4779 369.042 55.9153L370.683 59.5473C371.332 60.9847 372.496 62.0996 373.93 62.6747C375.364 63.2497 376.93 63.2298 378.31 62.6063L427.466 40.3984Z" fill="#F0F9FF"></path>
      <path fill-rule="evenodd" clip-rule="evenodd" d="M420.931 29.1899C420.902 28.87 420.881 28.5413 420.866 28.2038L368.731 51.7577C368.626 52.1212 368.557 52.4926 368.523 52.8668L420.931 29.1899Z" fill="#D1D5DB"></path>
      <path fill-rule="evenodd" clip-rule="evenodd" d="M421.277 31.4243C421.208 31.121 421.147 30.8101 421.095 30.4913L368.555 54.2276C368.598 54.5388 368.665 54.8479 368.757 55.1522L421.277 31.4243L421.277 31.4243Z" fill="#D1D5DB"></path>
      <path fill-rule="evenodd" clip-rule="evenodd" d="M421.941 33.5155C421.823 33.2314 421.716 32.9419 421.618 32.6461L369.224 56.3169L369.605 57.1603L421.941 33.5156L421.941 33.5155Z" fill="#D1D5DB"></path>
      <path fill-rule="evenodd" clip-rule="evenodd" d="M422.948 35.4514C422.781 35.1866 422.625 34.9191 422.479 34.6479L370.121 58.3022L370.502 59.1456L422.948 35.4513L422.948 35.4514Z" fill="#D1D5DB"></path>
      <path fill-rule="evenodd" clip-rule="evenodd" d="M424.273 37.2436C424.063 36.9956 423.864 36.7475 423.675 36.4983L371.067 60.2659C371.235 60.5356 371.422 60.7903 371.628 61.028L424.273 37.2436L424.273 37.2436Z" fill="#D1D5DB"></path>
      <path fill-rule="evenodd" clip-rule="evenodd" d="M425.852 38.9216C425.61 38.6864 425.377 38.453 425.155 38.2207L372.628 61.9517C372.931 62.1736 373.255 62.3672 373.597 62.5292L425.851 38.9217L425.852 38.9216Z" fill="#D1D5DB"></path>
      <path d="M515.9 119.829L464.537 101.163C462.738 100.509 461.39 99.126 460.668 97.4242C459.946 95.7225 459.849 93.6997 460.551 91.7668L461.913 88.021C462.615 86.0882 463.988 84.5995 465.634 83.7582C467.28 82.9169 469.202 82.7217 471.001 83.3757L522.364 102.041C515.794 107.841 514.942 111.025 515.9 119.829L515.9 119.829Z" fill="#6366F1"></path>
      <path fill-rule="evenodd" clip-rule="evenodd" d="M515.921 118.196C515.364 111.516 516.411 107.928 521.242 103.274L470.636 84.8838C469.212 84.3665 467.649 84.4651 466.263 85.147C464.877 85.829 463.801 87.0288 463.262 88.5113L461.901 92.2571C461.362 93.7395 461.417 95.3503 462.042 96.763C462.667 98.1757 463.802 99.2551 465.225 99.7723L515.921 118.196Z" fill="#F0F9FF"></path>
      <path fill-rule="evenodd" clip-rule="evenodd" d="M519.069 105.609C519.271 105.36 519.486 105.109 519.711 104.857L465.942 85.3174C465.613 85.5048 465.305 85.7224 465.019 85.9667L519.069 105.609Z" fill="#D1D5DB"></path>
      <path fill-rule="evenodd" clip-rule="evenodd" d="M517.756 107.45C517.918 107.184 518.092 106.92 518.277 106.655L464.092 86.9634C463.905 87.216 463.737 87.4841 463.59 87.7658L517.756 107.45L517.756 107.45Z" fill="#D1D5DB"></path>
      <path fill-rule="evenodd" clip-rule="evenodd" d="M516.772 109.41C516.886 109.125 517.011 108.842 517.147 108.562L463.112 88.9253L462.795 89.7951L516.771 109.41L516.772 109.41Z" fill="#D1D5DB"></path>
      <path fill-rule="evenodd" clip-rule="evenodd" d="M516.141 111.5C516.206 111.193 516.281 110.893 516.366 110.597L462.368 90.9734L462.052 91.8432L516.141 111.5L516.141 111.5Z" fill="#D1D5DB"></path>
      <path fill-rule="evenodd" clip-rule="evenodd" d="M515.838 113.708C515.861 113.384 515.892 113.067 515.93 112.757L461.674 93.0396C461.606 93.3498 461.562 93.6631 461.543 93.9766L515.838 113.708L515.838 113.708Z" fill="#D1D5DB"></path>
      <path fill-rule="evenodd" clip-rule="evenodd" d="M515.796 116.011C515.788 115.674 515.784 115.345 515.787 115.023L461.614 95.3362C461.676 95.7068 461.773 96.0718 461.905 96.4265L515.796 116.011L515.796 116.011Z" fill="#D1D5DB"></path>
      <path d="M544.603 203.558L490.106 207.626C488.196 207.769 486.399 207.061 485.042 205.806C483.686 204.55 482.767 202.746 482.614 200.695L482.317 196.72C482.164 194.67 482.804 192.748 483.96 191.306C485.115 189.863 486.787 188.896 488.697 188.753L543.194 184.685C539.584 192.67 540.115 195.923 544.603 203.558L544.603 203.558Z" fill="#D1D5DB"></path>
      <path fill-rule="evenodd" clip-rule="evenodd" d="M543.952 202.06C540.702 196.198 540.184 192.497 542.677 186.27L488.983 190.278C487.472 190.391 486.087 191.123 485.104 192.314C484.12 193.505 483.631 195.041 483.749 196.614L484.045 200.588C484.163 202.161 484.874 203.607 486.024 204.639C487.173 205.67 488.652 206.188 490.162 206.076L543.952 202.06Z" fill="#F0F9FF"></path>
      <path fill-rule="evenodd" clip-rule="evenodd" d="M541.654 189.291C541.737 188.98 541.829 188.664 541.931 188.342L484.881 192.601C484.658 192.907 484.466 193.232 484.306 193.572L541.654 189.291Z" fill="#D1D5DB"></path>
      <path fill-rule="evenodd" clip-rule="evenodd" d="M541.214 191.508C541.252 191.2 541.302 190.887 541.362 190.569L483.87 194.861C483.803 195.168 483.76 195.482 483.742 195.799L541.214 191.508L541.214 191.508Z" fill="#D1D5DB"></path>
      <path fill-rule="evenodd" clip-rule="evenodd" d="M541.121 193.7C541.107 193.393 541.105 193.084 541.115 192.773L483.781 197.053L483.85 197.976L541.121 193.7L541.121 193.7Z" fill="#D1D5DB"></path>
      <path fill-rule="evenodd" clip-rule="evenodd" d="M541.403 195.864C541.337 195.558 541.282 195.253 541.238 194.949L483.944 199.226L484.013 200.149L541.403 195.864L541.403 195.864Z" fill="#D1D5DB"></path>
      <path fill-rule="evenodd" clip-rule="evenodd" d="M542.034 198.002C541.922 197.697 541.82 197.396 541.727 197.097L484.16 201.395C484.225 201.705 484.314 202.009 484.425 202.303L542.034 198.002L542.034 198.002Z" fill="#D1D5DB"></path>
      <path fill-rule="evenodd" clip-rule="evenodd" d="M542.942 200.119C542.795 199.816 542.657 199.517 542.527 199.222L485.048 203.513C485.257 203.826 485.495 204.119 485.761 204.388L542.941 200.119L542.942 200.119Z" fill="#D1D5DB"></path>
      <path d="M610.732 51.1193L557.171 40.2706C555.294 39.8905 553.756 38.7221 552.79 37.146C551.824 35.5701 551.428 33.5839 551.836 31.5683L552.628 27.6621C553.036 25.6466 554.173 23.9709 555.676 22.895C557.179 21.8191 559.051 21.3412 560.928 21.7214L614.489 32.5701C608.851 39.2792 608.48 42.5544 610.732 51.1193L610.732 51.1193Z" fill="#3B82F6"></path>
      <path fill-rule="evenodd" clip-rule="evenodd" d="M610.511 49.5009C608.971 42.9773 609.475 39.2743 613.562 33.956L560.789 23.267C559.305 22.9664 557.774 23.2955 556.504 24.1753C555.234 25.0551 554.348 26.4012 554.035 27.9471L553.244 31.8532C552.93 33.3991 553.223 34.984 554.051 36.2885C554.878 37.593 556.16 38.4923 557.645 38.7929L610.511 49.5009Z" fill="#F0F9FF"></path>
      <path fill-rule="evenodd" clip-rule="evenodd" d="M611.759 36.5865C611.922 36.3101 612.097 36.0309 612.282 35.7483L556.212 24.3913C555.915 24.6253 555.642 24.8863 555.395 25.1702L611.759 36.5865Z" fill="#D1D5DB"></path>
      <path fill-rule="evenodd" clip-rule="evenodd" d="M610.734 38.6021C610.855 38.3153 610.987 38.0276 611.131 37.7383L554.626 26.2933C554.479 26.5708 554.353 26.8608 554.249 27.1612L610.734 38.6021L610.734 38.6021Z" fill="#D1D5DB"></path>
      <path fill-rule="evenodd" clip-rule="evenodd" d="M610.05 40.6867C610.121 40.3873 610.203 40.0895 610.296 39.7923L553.947 28.3789L553.764 29.2859L610.05 40.6867L610.05 40.6867Z" fill="#D1D5DB"></path>
      <path fill-rule="evenodd" clip-rule="evenodd" d="M609.736 42.8463C609.755 42.5337 609.785 42.2253 609.825 41.9201L553.515 30.5146L553.331 31.4217L609.736 42.8464L609.736 42.8463Z" fill="#D1D5DB"></path>
      <path fill-rule="evenodd" clip-rule="evenodd" d="M609.764 45.0751C609.738 44.7512 609.722 44.4334 609.714 44.1209L553.135 32.6609C553.114 32.9778 553.117 33.2941 553.145 33.607L609.764 45.0751L609.764 45.0751Z" fill="#D1D5DB"></path>
      <path fill-rule="evenodd" clip-rule="evenodd" d="M610.064 47.359C610.005 47.0269 609.953 46.7017 609.909 46.3833L553.417 34.9409C553.533 35.2982 553.683 35.6448 553.866 35.9761L610.064 47.3589L610.064 47.359Z" fill="#D1D5DB"></path>
      <path d="M615.565 308.726L561.867 298.577C559.986 298.222 558.432 297.074 557.446 295.51C556.459 293.947 556.038 291.966 556.42 289.945L557.16 286.029C557.542 284.009 558.657 282.318 560.146 281.223C561.635 280.127 563.5 279.625 565.382 279.981L619.08 290.13C613.53 296.912 613.202 300.191 615.565 308.726L615.565 308.726Z" fill="#0EA5E9"></path>
      <path fill-rule="evenodd" clip-rule="evenodd" d="M615.323 307.111C613.698 300.608 614.154 296.899 618.171 291.528L565.264 281.528C563.776 281.247 562.249 281.596 560.99 282.492C559.732 283.389 558.864 284.746 558.571 286.296L557.83 290.212C557.538 291.762 557.851 293.343 558.695 294.636C559.539 295.93 560.834 296.813 562.322 297.094L615.323 307.111Z" fill="#F0F9FF"></path>
      <path fill-rule="evenodd" clip-rule="evenodd" d="M616.402 294.181C616.562 293.903 616.733 293.621 616.915 293.336L560.701 282.712C560.407 282.95 560.137 283.214 559.895 283.501L616.402 294.181Z" fill="#D1D5DB"></path>
      <path fill-rule="evenodd" clip-rule="evenodd" d="M615.404 296.21C615.521 295.922 615.65 295.632 615.79 295.341L559.14 284.634C558.997 284.914 558.874 285.205 558.775 285.507L615.404 296.21L615.404 296.21Z" fill="#D1D5DB"></path>
      <path fill-rule="evenodd" clip-rule="evenodd" d="M614.748 298.303C614.814 298.003 614.892 297.704 614.982 297.406L558.489 286.729L558.317 287.638L614.748 298.303L614.748 298.303Z" fill="#D1D5DB"></path>
      <path fill-rule="evenodd" clip-rule="evenodd" d="M614.462 300.467C614.477 300.154 614.502 299.845 614.538 299.54L558.085 288.87L557.913 289.779L614.462 300.467L614.462 300.467Z" fill="#D1D5DB"></path>
      <path fill-rule="evenodd" clip-rule="evenodd" d="M614.518 302.695C614.489 302.372 614.468 302.054 614.456 301.742L557.733 291.021C557.715 291.338 557.723 291.654 557.754 291.967L614.519 302.695L614.518 302.695Z" fill="#D1D5DB"></path>
      <path fill-rule="evenodd" clip-rule="evenodd" d="M614.848 304.975C614.785 304.644 614.729 304.319 614.68 304.001L558.044 293.297C558.165 293.653 558.319 293.998 558.506 294.326L614.848 304.975L614.848 304.975Z" fill="#D1D5DB"></path>
    </g>
    <defs>
      <clipPath id="icon-clip0_12_110">
        <rect width="642.893" height="495.29" fill="white"></rect>
      </clipPath>
    </defs>
  </symbol>
  <symbol fill="none" xmlns="http://www.w3.org/2000/svg" viewBox="0 0 90 205" id="icon-left-facing">
    <path d="M67.2907 24.1518H35.596C34.1869 21.5286 32.0574 19.2907 35.596 14.021C35.596 10.5228 36.9534 7.16116 39.3824 4.64385C41.8115 2.12653 45.1225 0.649993 48.6184 0.525138C55.4744 -1.52405 60.4121 2.63693 61.7538 9.30274L67.2907 24.1518Z" fill="#2F2E41"></path>
    <path d="M4.44926 29.6566C5.02558 29.72 5.58099 29.909 6.07636 30.2103C6.57173 30.5116 6.99502 30.9178 7.3164 31.4004C7.63778 31.883 7.84944 32.4302 7.93648 33.0034C8.02351 33.5766 7.9838 34.162 7.82014 34.7182L32.4177 55.1766L25.5833 57.809L2.61136 37.3597C1.69518 37.0228 0.934403 36.3616 0.473179 35.5013C0.0119538 34.6409 -0.117667 33.6413 0.108874 32.6918C0.335415 31.7423 0.90238 30.9089 1.70234 30.3495C2.5023 29.7901 3.47967 29.5435 4.44926 29.6566Z" fill="#FFB6B6"></path>
    <path d="M32.9421 64.011C27.4914 64.0123 6.2259 41.7284 5.29792 40.753L5.06201 40.505L12.9339 38.3991L31.8187 52.0919L38.7024 40.4415C39.4636 39.1568 40.6034 38.1388 41.9656 37.5271C43.3278 36.9153 44.8458 36.7396 46.3118 37.0241C47.6093 37.2775 48.8124 37.8819 49.7904 38.7714C50.7684 39.661 51.4836 40.8017 51.8584 42.0695C52.2333 43.3373 52.2533 44.6836 51.9163 45.9619C51.5792 47.2402 50.8981 48.4017 49.947 49.3199L36.9266 61.8894C35.9257 62.8536 34.7069 63.562 33.3736 63.9544C33.2332 63.9937 33.0879 64.0127 32.9421 64.011Z" fill="#0EA5E9"></path>
    <path d="M33.3612 60.9257L36.0025 70.8811L57.945 75.7414L56.5228 70.678L60.613 66.322L56.1164 58.894L33.3612 60.9257Z" fill="#FFB8B8"></path>
    <path d="M31.4201 196.723H27.1332L25.093 180.187H31.4201V196.723Z" fill="#FFB8B8"></path>
    <path d="M33.6828 204.151H30.6084L30.0597 201.248L28.6542 204.151H20.5002C20.1094 204.151 19.7287 204.026 19.4139 203.794C19.0991 203.563 18.8665 203.236 18.7502 202.863C18.6339 202.49 18.6399 202.09 18.7674 201.72C18.8948 201.351 19.1371 201.032 19.4587 200.809L25.9702 196.312V193.378L32.8192 193.787L33.6828 204.151Z" fill="#2F2E41"></path>
    <path d="M85.1508 193.081L81.1675 194.667L73.1564 180.058L79.035 177.718L85.1508 193.081Z" fill="#FFB8B8"></path>
    <path d="M90 199.145L87.1436 200.282L85.5603 197.788L85.328 201.005L77.7521 204.021C77.389 204.165 76.9892 204.19 76.611 204.091C76.2328 203.992 75.8961 203.775 75.6501 203.472C75.404 203.168 75.2614 202.794 75.2432 202.403C75.225 202.013 75.332 201.627 75.5487 201.302L79.9353 194.715L78.85 191.989L85.3646 189.835L90 199.145Z" fill="#2F2E41"></path>
    <path d="M60.5242 67.478L60.1171 67.125C59.9973 67.0218 47.9689 56.8752 32.9687 66.3488L32.4826 66.6556L29.4104 53.1379C29.0529 51.5837 29.1342 49.9606 29.6454 48.4499C30.1566 46.9392 31.0775 45.6003 32.3054 44.5825L43.1348 35.5723L46.9332 33.6732L46.451 30.5385C46.3584 29.9221 46.4796 29.2926 46.7945 28.7546C47.1095 28.2167 47.5991 27.8029 48.182 27.582L54.0839 25.3689C54.7437 25.1183 55.4753 25.1355 56.1226 25.417C56.7698 25.6984 57.2814 26.2217 57.5481 26.8752L58.1735 28.3887L59.5127 27.9175C60.3249 27.6213 61.1876 27.4887 62.0512 27.5273C62.9149 27.5659 63.7623 27.775 64.5448 28.1425C65.3296 28.523 66.0258 29.064 66.5884 29.7305C67.1511 30.397 67.5676 31.1741 67.811 32.0117C70.1135 39.7985 69.4962 48.1578 66.0749 55.522L60.5242 67.478Z" fill="#0EA5E9"></path>
    <path d="M33.0739 189.127H24.2061L26.6569 147.465L24.8653 119.226L24.869 119.203L31.5511 78.7232C32.0766 75.5312 33.4971 72.5538 35.6474 70.1369L35.7288 70.0452L58.0909 75.5681L60.3393 80.6948C68.0166 85.261 70.4411 111.01 70.5407 112.107L73.7911 144.205L81.7417 183.546L76.1426 186.56L76.049 186.374L58.3731 151.225L47.2101 114.159L40.0614 147.519L33.0739 189.127Z" fill="#2F2E41"></path>
    <path d="M68.8424 101.036C68.4335 100.625 68.1196 100.129 67.923 99.5839C67.7263 99.0384 67.6517 98.4565 67.7043 97.8791C67.7569 97.3017 67.9354 96.7428 68.2273 96.2419C68.5193 95.7409 68.9175 95.3101 69.394 94.9797L63.0793 63.6155L70.0526 65.8544L75.1072 96.1915C75.6091 97.0287 75.7866 98.0209 75.6058 98.9802C75.4251 99.9395 74.8988 100.799 74.1266 101.396C73.3544 101.993 72.3899 102.287 71.416 102.22C70.4421 102.154 69.5264 101.732 68.8424 101.036Z" fill="#FFB6B6"></path>
    <path d="M59.5186 34.6776L63.8452 31.4117C63.8452 31.4117 67.6619 31.1414 68.3379 38.0244C69.0139 44.9074 70.4019 58.3213 70.4019 58.3213L77.0224 88.985L67.8578 90.9966L60.7667 57.905L56.5128 48.078L59.5186 34.6776Z" fill="#0EA5E9"></path>
    <path d="M46.5769 23.7902C52.4064 23.7902 57.1322 19.0645 57.1322 13.2349C57.1322 7.40537 52.4064 2.6796 46.5769 2.6796C40.7473 2.6796 36.0215 7.40537 36.0215 13.2349C36.0215 19.0645 40.7473 23.7902 46.5769 23.7902Z" fill="#FFB8B8"></path>
    <path d="M52.604 2.98966C50.7813 1.1853 48.3193 0.174513 45.7546 0.177558H43.7228C41.1364 0.177558 38.6559 1.20501 36.827 3.03391C34.9981 4.8628 33.9706 7.34331 33.9706 9.92975C35.7449 11.468 44.3359 11.1522 49.4116 10.7425C49.0479 16.0304 44.5556 21.2265 45.7546 24.1518H66.0717V22.12C67.811 13.1927 61.3163 5.74606 52.604 2.98966Z" fill="#2F2E41"></path>
  </symbol>
  <symbol version="1.1" xmlns="http://www.w3.org/2000/svg" viewBox="0 0 20 20" id="icon-linkedin">
    <path d="M5 3c0 1.062-0.71 1.976-2.001 1.976-1.215 0-1.999-0.862-1.999-1.924 0-1.090 0.76-2.052 2-2.052s1.976 0.91 2 2zM1 19v-13h4v13h-4z"></path>
    <path d="M7 10.444c0-1.545-0.051-2.836-0.102-3.951h3.594l0.178 1.723h0.076c0.506-0.811 1.746-2 3.822-2 2.532 0 4.432 1.695 4.432 5.342v7.442h-4v-6.861c0-1.594-0.607-2.81-2-2.81-1.062 0-1.594 0.86-1.873 1.569-0.102 0.254-0.127 0.608-0.127 0.963v7.139h-4v-8.556z"></path>
  </symbol>
  <symbol version="1.1" xmlns="http://www.w3.org/2000/svg" viewBox="0 0 20 20" id="icon-magnifying-glass">
    <path d="M17.545 15.467l-3.779-3.779c0.57-0.935 0.898-2.035 0.898-3.21 0-3.417-2.961-6.377-6.378-6.377s-6.186 2.769-6.186 6.186c0 3.416 2.961 6.377 6.377 6.377 1.137 0 2.2-0.309 3.115-0.844l3.799 3.801c0.372 0.371 0.975 0.371 1.346 0l0.943-0.943c0.371-0.371 0.236-0.84-0.135-1.211zM4.004 8.287c0-2.366 1.917-4.283 4.282-4.283s4.474 2.107 4.474 4.474c0 2.365-1.918 4.283-4.283 4.283s-4.473-2.109-4.473-4.474z"></path>
  </symbol>
  <symbol fill="none" xmlns="http://www.w3.org/2000/svg" viewBox="0 0 69 220" id="icon-right-facing">
    <path d="M22.2167 30.7617C22.7499 28.3029 22.9065 30.1142 24.0662 27.8839C23.2702 30.766 24.739 29.8222 26.6901 32.0821C40.4017 34.232 41.2657 29.5359 46.34 29.6798L46.366 29.6796C47.4826 29.6615 48.0562 28.3245 47.383 27.4335C45.7209 25.2333 43.8887 21.8384 45.6227 19.7012C48.6947 15.9148 45.9875 8.15023 44.6635 9.82889C44.6635 3.35394 36.6897 -0.892221 33.5965 0.159814C27.8811 2.10374 22.5883 4.72556 21.9472 10.592C21.8471 11.508 21.7177 12.4187 21.5531 13.3253C21.2189 15.1666 19.8425 15.6555 20.3162 17.4638L21.7974 18.9705C22.4926 21.6241 22.273 24.41 21.3207 26.9825C20.7943 28.4046 20.7213 29.6238 22.2167 30.7617Z" fill="#2F2E41"></path>
    <path d="M36.4915 22.0733C41.2383 22.0733 45.0863 18.2253 45.0863 13.4786C45.0863 8.73187 41.2383 4.88389 36.4915 4.88389C31.7448 4.88389 27.8968 8.73187 27.8968 13.4786C27.8968 18.2253 31.7448 22.0733 36.4915 22.0733Z" fill="#A0616A"></path>
    <path d="M23.103 209.412L27.5292 209.516L29.9964 189.631L23.4645 189.477L23.103 209.412Z" fill="#A0616A"></path>
    <path d="M38.2886 218.646C38.2886 219.394 37.7579 220 37.1034 220H28.3179C28.3179 220 27.4533 216.525 23.9283 215.029L23.685 220H19.1529L19.702 212.007C19.702 212.007 18.4896 207.731 21.0075 205.545C23.5253 203.359 21.486 203.663 21.486 203.663L22.4764 198.716L29.325 199.521L29.3753 207.287L32.6989 214.995L37.5737 217.403C38.0076 217.618 38.2886 218.106 38.2886 218.646Z" fill="#2F2E41"></path>
    <path d="M27.9708 191.371L31.4865 194.062L45.1911 179.444L40.0031 175.473L27.9708 191.371Z" fill="#A0616A"></path>
    <path d="M34.8054 207.777C34.3651 208.381 33.5792 208.559 33.0502 208.173L25.9498 202.999C25.9498 202.999 27.2978 199.682 25.3297 196.397L22.2056 200.271L18.5428 197.602L23.6938 191.465C23.6938 191.465 25.2324 187.295 28.5547 187.012C31.8769 186.728 30.0495 185.773 30.0495 185.773L33.7634 182.358L38.8241 187.042L34.2914 193.348L32.4379 201.535L34.9595 206.352C35.184 206.781 35.1234 207.341 34.8054 207.777Z" fill="#2F2E41"></path>
    <path d="M15.3055 107.737C15.5724 108.831 15.0808 113.923 15.3557 115.675C16.0545 120.13 22.4395 144.419 21.338 151.343C17.3023 176.713 22.8839 192.989 22.8839 192.989H31.8877L36.6897 116.157L41.3763 122.335L50.5469 149.725L34.3246 178.892L42.795 185.888L68.0859 145.676L50.1142 78.4096L49.0285 74.3483L24.7465 73.6708L26.0975 75.6953L23.024 78.7321C23.024 78.7321 23.0199 78.7402 23.0036 78.7565C22.5301 79.4178 12.0075 94.2221 15.3055 107.737Z" fill="#2F2E41"></path>
    <path d="M23.0036 78.7565C25.8159 79.7606 44.8203 78.7239 50.1142 78.4096L49.0285 74.3483L24.7465 73.6708L26.0975 75.6953L23.024 78.7321C23.024 78.7321 23.0199 78.7402 23.0036 78.7565Z" fill="#A0616A"></path>
    <path d="M54.4334 46.2313L53.5588 50.8722L53.3468 51.9853L48.6947 61.5338L49.3061 75.532C49.6975 77.1702 33.1792 73.4525 24.5981 77.2932L17.9186 45.3479L24.6915 30.6242L29.992 27.6795L30.8755 24.1458H42.1038C42.7018 26.9462 42.0535 28.3261 40.8915 29.1203L43.7041 36.6214L54.4334 46.2313Z" fill="#0EA5E9"></path>
    <path d="M63.2159 18.8574C63.077 20.0592 62.6781 21.13 62.1269 21.9373L61.5262 33.47L56.0468 33.0236L57.2462 21.3729C56.8938 20.4611 56.7498 19.3275 56.8888 18.1257C57.2063 15.3801 58.8801 13.3182 60.6272 13.5202C62.3744 13.7223 63.5334 16.1118 63.2159 18.8574Z" fill="#A0616A"></path>
    <path d="M41.3771 30.9772L42.0919 32.7218C42.0919 32.7218 31.6474 31.6754 31.8704 37.1287C32.0607 41.7815 51.7203 60.2212 52.6597 60.6518C55.4419 61.9269 58.6756 60.2109 59.179 57.1921C63.6057 45.771 64.5231 35.4741 62.5004 26.119H56.4979L54.5433 33.4991L54.4334 39.1128L51.2682 45.8647L40.8914 32.7218L41.3771 30.9772Z" fill="#0EA5E9"></path>
    <path d="M6.57877 95.0802C6.96469 93.9043 7.05302 92.7387 6.88704 91.7527L11.271 80.7828L5.99008 78.8494L2.11156 90.1855C1.39355 90.8814 0.774042 91.8727 0.388122 93.0486C-0.493514 95.7349 0.177613 98.3675 1.88712 98.9285C3.59662 99.4895 5.69714 97.7666 6.57877 95.0802Z" fill="#A0616A"></path>
    <path d="M31.8669 30.9831C31.8669 30.9831 25.3826 28.5244 21.7016 31.5288C20.1835 32.7678 13.4699 41.3054 12.4357 52.7992C12.3547 53.7 11.741 54.475 11.3953 55.3174C9.26321 60.5132 5.59271 62.9064 4.03196 67.3501C3.42205 69.0865 4.54074 73.5776 4.15535 75.0758C2.13741 82.9205 2.86559 87.3932 2.86559 87.3932L8.31494 89.2073L11.271 87.1181L16.1263 69.3881L31.8669 30.9831Z" fill="#0EA5E9"></path>
    <path d="M38.8214 3.30953H37.0716C31.9527 3.31528 23.2031 10.5557 26.5888 15.6341C23.6977 23.3456 23.5924 27.3579 24.8196 29.4578C25.2713 30.2308 26.1683 30.5829 27.0615 30.5203C27.1805 30.5119 27.3004 30.5093 27.4212 30.5133C28.2865 30.5419 29.4471 34.6094 30.2525 34.9222L32.3904 34.2723L35.8973 30.7681L34.1178 25.4235L30.6747 22.7296L31.1438 16.4907C28.8393 11.194 31.3465 10.9348 32.7574 9.2262L32.9001 14.7077L34.9209 12.7575C36.5669 12.8002 38.4904 13.5138 39.7691 12.0295C42.0919 9.31204 44.4999 12.5931 47.2434 13.2562L48.0944 12.5825C48.1236 11.0543 47.8975 9.57873 47.4587 8.25742C47.2521 7.63544 46.7241 7.12289 46.702 6.50463C46.6187 4.18441 42.2335 1.93389 38.8214 3.30953Z" fill="#2F2E41"></path>
  </symbol>
  <symbol version="1.1" xmlns="http://www.w3.org/2000/svg" viewBox="0 0 20 20" id="icon-share">
    <path d="M15 13.442c-0.633 0-1.204 0.246-1.637 0.642l-5.938-3.463c0.046-0.188 0.075-0.384 0.075-0.584s-0.029-0.395-0.075-0.583l5.875-3.429c0.446 0.417 1.042 0.675 1.7 0.675 1.379 0 2.5-1.121 2.5-2.5s-1.121-2.5-2.5-2.5-2.5 1.121-2.5 2.5c0 0.2 0.029 0.396 0.075 0.583l-5.875 3.429c-0.446-0.416-1.042-0.675-1.7-0.675-1.379 0-2.5 1.121-2.5 2.5s1.121 2.5 2.5 2.5c0.658 0 1.254-0.258 1.7-0.675l5.938 3.463c-0.042 0.175-0.067 0.358-0.067 0.546 0 1.342 1.087 2.429 2.429 2.429s2.429-1.088 2.429-2.429-1.087-2.429-2.429-2.429z"></path>
  </symbol>
</svg>