<svg width="76" height="81" viewBox="0 0 76 81" fill="none" xmlns="http://www.w3.org/2000/svg">
<path d="M67.4087 50.7023C65.4828 50.7023 63.8609 52.2228 63.8609 54.2501C63.8609 56.1761 65.3814 57.7979 67.4087 57.7979C69.3347 57.7979 70.9566 56.2774 70.9566 54.2501C70.9566 52.2228 69.3347 50.7023 67.4087 50.7023ZM67.4087 55.6692C66.5978 55.6692 65.8882 54.9597 65.8882 54.1487C65.8882 53.3378 66.5978 52.6282 67.4087 52.6282C68.2197 52.6282 68.9292 53.3378 68.9292 54.1487C68.9292 54.9597 68.2197 55.6692 67.4087 55.6692Z" fill="#0EA5E9"/>
<path d="M49.7709 50.7023C47.845 50.7023 46.2231 52.2228 46.2231 54.2501C46.2231 56.1761 47.7436 57.7979 49.7709 57.7979C51.6969 57.7979 53.3188 56.2774 53.3188 54.2501C53.2174 52.2228 51.6969 50.7023 49.7709 50.7023ZM49.7709 55.6692C48.96 55.6692 48.2504 54.9597 48.2504 54.1487C48.2504 53.3378 48.96 52.6282 49.7709 52.6282C50.5819 52.6282 51.2914 53.3378 51.2914 54.1487C51.2914 54.9597 50.5819 55.6692 49.7709 55.6692Z" fill="#0EA5E9"/>
<path d="M7.60248 50.7023C5.67652 50.7023 4.05466 52.2228 4.05466 54.2501C4.05466 56.1761 5.57515 57.7979 7.60248 57.7979C9.62981 57.7979 11.1503 56.2774 11.1503 54.2501C11.1503 52.2228 9.52845 50.7023 7.60248 50.7023ZM7.60248 55.6692C6.79155 55.6692 6.08199 54.9597 6.08199 54.1487C6.08199 53.3378 6.79155 52.6282 7.60248 52.6282C8.41342 52.6282 9.12298 53.3378 9.12298 54.1487C9.12298 54.9597 8.41342 55.6692 7.60248 55.6692Z" fill="#0EA5E9"/>
<path d="M28.8894 50.7023C26.9635 50.7023 25.3416 52.2228 25.3416 54.2501C25.3416 56.1761 26.8621 57.7979 28.8894 57.7979C30.9168 57.7979 32.4373 56.2774 32.4373 54.2501C32.3359 52.2228 30.8154 50.7023 28.8894 50.7023ZM28.8894 55.6692C28.0785 55.6692 27.3689 54.9597 27.3689 54.1487C27.3689 53.3378 28.0785 52.6282 28.8894 52.6282C29.7004 52.6282 30.4099 53.3378 30.4099 54.1487C30.4099 54.9597 29.7004 55.6692 28.8894 55.6692Z" fill="#0EA5E9"/>
<path d="M72.8825 0.424438H62.0363C60.8199 0.424438 59.8062 1.7422 59.8062 3.5668V76.652C59.8062 78.4766 60.7185 79.7944 62.0363 79.7944H72.8825C74.0989 79.7944 75.1125 78.4766 75.1125 76.652V3.5668C75.1125 1.84357 74.0989 0.424438 72.8825 0.424438ZM61.8335 18.2649H73.0852V62.0553H61.8335V18.2649ZM73.0852 16.2376H61.8335V11.7775H73.0852V16.2376ZM61.8335 64.0826H73.0852V68.5427H61.8335V64.0826ZM62.1376 2.45177H72.7811C72.8825 2.55313 73.0852 2.9586 73.0852 3.5668V9.75016H61.8335V3.5668C61.8335 2.9586 62.0363 2.55313 62.1376 2.45177ZM72.7811 77.7671H62.1376C62.0363 77.6657 61.8335 77.2602 61.8335 76.652V70.57H73.0852V76.652C73.0852 77.2602 72.8825 77.6657 72.7811 77.7671Z" fill="#0EA5E9"/>
<path d="M55.1434 79.7944C56.3597 79.7944 57.3734 78.4766 57.3734 76.652V3.5668C57.3734 1.7422 56.4611 0.424438 55.1434 0.424438H44.2971C43.0807 0.424438 42.0671 1.7422 42.0671 3.5668V76.652C42.0671 78.4766 42.9794 79.7944 44.2971 79.7944H55.1434ZM44.0944 18.2649H55.3461V62.0553H44.0944V18.2649ZM55.3461 16.2376H44.0944V11.7775H55.3461V16.2376ZM44.0944 64.0826H55.3461V68.5427H44.0944V64.0826ZM44.3985 2.45177H55.042C55.1434 2.55313 55.3461 2.9586 55.3461 3.5668V9.75016H44.0944V3.5668C44.0944 2.9586 44.2971 2.55313 44.3985 2.45177ZM44.0944 70.57H55.3461V76.652C55.3461 77.2602 55.1434 77.6657 55.042 77.7671H44.3985C44.2971 77.6657 44.0944 77.2602 44.0944 76.652V70.57Z" fill="#0EA5E9"/>
<path d="M15.3063 76.6521V12.3857L24.5307 77.3616C24.6321 78.3753 25.1389 79.2876 25.8485 79.7944C26.1526 80.0985 26.558 80.1999 26.9635 80.1999C27.0649 80.1999 27.1662 80.1999 27.1662 80.1999L37.9111 78.6794C38.6206 78.578 39.1275 78.0712 39.4316 77.2603C39.6343 76.6521 39.7357 75.9425 39.6343 75.2329L29.3963 2.85727C29.2949 2.1477 28.9908 1.43814 28.5853 0.931304C28.0785 0.221739 27.3689 -0.0823603 26.6594 0.0190062L15.9145 1.5395C15.5091 1.64087 15.205 1.74224 14.9009 2.04634C14.4954 1.03267 13.7858 0.424472 12.9749 0.424472H2.23006C1.01366 0.424472 0 1.74224 0 3.56683V76.6521C0 78.4767 0.912298 79.7944 2.23006 79.7944H13.0763C14.2927 79.7944 15.3063 78.4767 15.3063 76.6521ZM2.02733 18.265H13.279V62.0553H2.02733V18.265ZM13.279 16.2376H2.02733V11.7775H13.279V16.2376ZM2.02733 64.0826H13.279V68.5427H2.02733V64.0826ZM36.4919 67.4277L25.3416 69.0496L24.7334 64.6908L35.8837 63.069L36.4919 67.4277ZM24.4293 62.6635L18.246 19.2786L29.3963 17.6568L35.5796 61.0416L24.4293 62.6635ZM29.1935 15.6294L18.0432 17.2513L17.435 12.8925L28.5853 11.2707L29.1935 15.6294ZM37.5056 76.6521L26.9635 78.1726C26.8621 78.0712 26.558 77.6657 26.558 77.0575L25.7471 70.9755L36.8974 69.3537L37.7083 75.4357C37.7083 76.1452 37.607 76.5507 37.5056 76.6521ZM16.32 3.56683L26.8621 2.04634C26.9635 2.1477 27.2676 2.55317 27.2676 3.16137L28.1799 9.24336L17.0296 10.8652L16.1173 4.78323C16.1173 4.17503 16.32 3.76957 16.32 3.56683ZM2.33143 2.4518H12.9749C13.0763 2.55317 13.279 2.95863 13.279 3.56683V9.75019H2.02733V3.56683C2.02733 2.95863 2.23006 2.55317 2.33143 2.4518ZM2.33143 77.7671C2.23006 77.6657 2.02733 77.2603 2.02733 76.6521V70.5701H13.279V76.6521C13.279 77.2603 13.0763 77.6657 12.9749 77.7671H2.33143Z" fill="#0EA5E9"/>
</svg>
