<svg width="116" height="91" viewBox="0 0 116 91" fill="none" xmlns="http://www.w3.org/2000/svg">
<path d="M115.649 39.8519V38.9606L115.395 38.8333L114.249 38.4514H114.121L109.665 37.0508L105.209 38.9606L104.318 39.2153L75.1608 52.7115L70.0679 55.1306L63.8291 57.8044H63.7018L63.3198 57.677L59.7548 56.7858L52.8794 54.8759L50.333 53.9847H50.2056L46.1313 52.8388L45.1127 52.5841L44.8581 52.4568L44.3488 52.3295H44.2215L39.5106 51.0563L19.139 45.4541L18.757 45.3268L13.6641 43.7989C13.6641 43.7989 13.6641 43.6716 13.5368 43.6716C9.08051 39.7246 10.0991 32.7218 12.2636 27.7563L34.0357 34.1224H34.163H34.2903L39.0013 35.5229H39.1286L39.6379 35.6503L44.7308 37.1781L45.3674 37.4328L46.8952 37.8147L52.2428 39.3426L53.0067 39.5973L53.3887 39.7246L56.4444 40.7432L58.8635 41.5071L60.6461 42.0164H60.7734L62.3013 42.3983L63.0652 42.653L63.5745 42.3983L66.7575 40.8705L67.2668 40.6158L67.5215 40.4885L74.1422 37.5601L84.328 32.9765L85.0919 32.7218L89.5482 30.812L108.392 22.4087L108.901 22.1541L113.867 19.9896V19.735L114.376 19.4803L114.121 15.788L60.1368 0L9.08051 22.918C8.4439 23.3 7.80729 23.9366 7.42532 24.4459C1.69581 29.6661 3.47833 41.1251 7.55264 46.6L5.26084 47.6186C4.62423 48.0005 3.98762 48.6371 3.60565 49.1464C-3.26976 55.6399 0.804558 71.0459 6.53406 73.847L61.1554 90.1442L112.084 67.3535V67.0989L111.957 64.4251V63.5339L111.702 63.4065L110.556 63.0246H110.429L105.845 61.624L60.0094 82.3776H59.8821L59.6275 82.2502L15.0647 70.1546L9.97177 68.6268C9.97177 68.6268 9.97177 68.6268 9.84445 68.4994C5.26084 64.6798 6.27942 57.5497 8.57122 52.4568L30.7253 59.0776L35.6909 60.6054L57.3357 67.0989H57.463L59.6275 67.7355L60.1368 67.4809L64.2111 65.6983L86.2379 55.8945L105.209 47.3639L105.718 47.1093L110.684 44.9448V44.8175L115.904 42.3983L115.649 39.8519ZM57.845 5.98415L98.8428 18.3344L92.0947 21.1355L51.9881 9.03989L57.845 5.98415ZM46.386 11.077L87.3838 23.4273L80.6357 26.2284L40.5291 14.1328L46.386 11.077Z" fill="#0EA5E9"/>
</svg>
