<svg width="120" height="104" viewBox="0 0 120 104" fill="none" xmlns="http://www.w3.org/2000/svg">
<path d="M119.845 22.8608V22.3495L119.691 22.2765L118.995 22.0574H118.917L116.21 21.254L113.503 22.3495L95.25 30.2376L92.1562 31.6253L88.3664 33.1591H88.2891L88.057 33.086L85.8914 32.5748L81.7149 31.4792L80.168 30.968H80.0906L77.6156 30.3106L76.9969 30.1645L76.8422 30.0915L76.5328 30.0185H76.4555L73.5938 29.2881L61.2188 26.0745L60.9867 26.0014L57.893 25.125C57.893 25.125 57.893 25.0519 57.8157 25.0519C55.1086 22.7878 55.7274 18.7707 57.0422 15.9222L70.268 19.5741H70.3453H70.4227L73.2844 20.3775H73.3617L73.6711 20.4506L76.7649 21.327L77.1516 21.4731L78.0797 21.6922L81.3281 22.5686L81.7922 22.7147L82.0242 22.7878L83.8805 23.3721L85.35 23.8103L86.4328 24.1024H86.5102L87.4383 24.3215L87.9024 24.4676L88.2117 24.3215L90.1453 23.4451L90.4547 23.299L90.6094 23.226L94.6312 21.5461L100.819 18.9168L101.283 18.7707L103.99 17.6751L115.437 12.8546L115.746 12.7086L118.763 11.4669V11.3209L119.072 11.1748L118.917 9.05668L86.1235 0L55.1086 13.1468C54.7219 13.3659 54.3352 13.7311 54.1032 14.0232C50.6227 17.0178 51.9773 24.3943 54.4523 27.5349L68.1202 31.4792L71.765 32.5748L84.7313 36.4263V36.4263C87.0731 36.8039 89.4699 36.6497 91.7439 35.975L92.1563 35.8527L101.979 32.0635L113.503 27.17L113.812 27.0239L116.829 25.7093L120 24.3215L119.845 22.8608Z" fill="#0EA5E9"/>
<path d="M119.845 22.8608V22.3495L119.691 22.2765L118.995 22.0574H118.917L116.21 21.254L113.503 22.3495L95.25 30.2376L92.1562 31.6253L88.3664 33.1591H88.2891L88.057 33.086L85.8914 32.5748L81.7149 31.4792L80.168 30.968H80.0906L77.6156 30.3106L76.9969 30.1645L76.8422 30.0915L76.5328 30.0185H76.4555L73.5938 29.2881L61.2188 26.0745L60.9867 26.0014L57.893 25.125C57.893 25.125 57.893 25.0519 57.8157 25.0519C55.1086 22.7878 55.7274 18.7707 57.0422 15.9222L70.268 19.5741H70.3453H70.4227L73.2844 20.3775H73.3617L73.6711 20.4506L76.7649 21.327L77.1516 21.4731L78.0797 21.6922L81.3281 22.5686L81.7922 22.7147L82.0242 22.7878L83.8805 23.3721L85.35 23.8103L86.4328 24.1024H86.5102L87.4383 24.3215L87.9024 24.4676L88.2117 24.3215L90.1453 23.4451L90.4547 23.299L90.6094 23.226L94.6312 21.5461L100.819 18.9168L101.283 18.7707L103.99 17.6751L115.437 12.8546L115.746 12.7086L118.763 11.4669V11.3209L119.072 11.1748L118.917 9.05668L86.1235 0L55.1086 13.1468C54.7219 13.3659 54.3352 13.7311 54.1032 14.0232C50.6227 17.0178 51.9773 24.3943 54.4523 27.5349L68.1202 31.4792L71.765 32.5748L84.7313 36.4263V36.4263C87.0731 36.8039 89.4699 36.6497 91.7439 35.975L92.1563 35.8527L101.979 32.0635L113.503 27.17L113.812 27.0239L116.829 25.7093L120 24.3215L119.845 22.8608Z" fill="white"/>
<path d="M119.845 22.8608V22.3495L119.691 22.2765L118.995 22.0574H118.917L116.21 21.254L113.503 22.3495L95.25 30.2376L92.1562 31.6253L88.3664 33.1591H88.2891L88.057 33.086L85.8914 32.5748L81.7149 31.4792L80.168 30.968H80.0906L77.6156 30.3106L76.9969 30.1645L76.8422 30.0915L76.5328 30.0185H76.4555L73.5938 29.2881L61.2188 26.0745L60.9867 26.0014L57.893 25.125C57.893 25.125 57.893 25.0519 57.8157 25.0519C55.1086 22.7878 55.7274 18.7707 57.0422 15.9222L70.268 19.5741H70.3453H70.4227L73.2844 20.3775H73.3617L73.6711 20.4506L76.7649 21.327L77.1516 21.4731L78.0797 21.6922L81.3281 22.5686L81.7922 22.7147L82.0242 22.7878L83.8805 23.3721L85.35 23.8103L86.4328 24.1024H86.5102L87.4383 24.3215L87.9024 24.4676L88.2117 24.3215L90.1453 23.4451L90.4547 23.299L90.6094 23.226L94.6312 21.5461L100.819 18.9168L101.283 18.7707L103.99 17.6751L115.437 12.8546L115.746 12.7086L118.763 11.4669V11.3209L119.072 11.1748L118.917 9.05668L86.1235 0L55.1086 13.1468C54.7219 13.3659 54.3352 13.7311 54.1032 14.0232C50.6227 17.0178 51.9773 24.3943 54.4523 27.5349L68.1202 31.4792L71.765 32.5748L84.7313 36.4263V36.4263C87.0731 36.8039 89.4699 36.6497 91.7439 35.975L92.1563 35.8527L101.979 32.0635L113.503 27.17L113.812 27.0239L116.829 25.7093L120 24.3215L119.845 22.8608Z" fill="#0EA5E9"/>
<path d="M111.337 9.66625L86.4328 2.58161L82.875 4.33452L107.238 11.2731L111.337 9.66625Z" fill="white"/>
<path d="M111.337 9.66625L86.4328 2.58161L82.875 4.33452L107.238 11.2731L111.337 9.66625Z" fill="white"/>
<path d="M104.918 12.3341L80.0133 5.24943L76.4554 7.00234L100.819 13.9409L104.918 12.3341Z" fill="white"/>
<path d="M104.918 12.3341L80.0133 5.24943L76.4554 7.00234L100.819 13.9409L104.918 12.3341Z" fill="white"/>
<path d="M119.845 22.8608V22.3495L119.691 22.2765L118.995 22.0574H118.917L116.21 21.254L113.503 22.3495L95.25 30.2376L92.1562 31.6253L88.3664 33.1591H88.2891L88.057 33.086L85.8914 32.5748L81.7149 31.4792L80.168 30.968H80.0906L77.6156 30.3106L76.9969 30.1645L76.8422 30.0915L76.5328 30.0185H76.4555L73.5938 29.2881L61.2188 26.0745L60.9867 26.0014L57.893 25.125C57.893 25.125 57.893 25.0519 57.8157 25.0519C55.1086 22.7878 55.7274 18.7707 57.0422 15.9222L70.268 19.5741H70.3453H70.4227L73.2844 20.3775H73.3617L73.6711 20.4506L76.7649 21.327L77.1516 21.4731L78.0797 21.6922L81.3281 22.5686L81.7922 22.7147L82.0242 22.7878L83.8805 23.3721L85.35 23.8103L86.4328 24.1024H86.5102L87.4383 24.3215L87.9024 24.4676L88.2117 24.3215L90.1453 23.4451L90.4547 23.299L90.6094 23.226L94.6312 21.5461L100.819 18.9168L101.283 18.7707L103.99 17.6751L115.437 12.8546L115.746 12.7086L118.763 11.4669V11.3209L119.072 11.1748L118.917 9.05668L86.1235 0L55.1086 13.1468C54.7219 13.3659 54.3352 13.7311 54.1032 14.0232C50.6227 17.0178 51.9773 24.3943 54.4523 27.5349L68.1202 31.4792L71.765 32.5748L84.7313 36.4263V36.4263C87.0731 36.8039 89.4699 36.6497 91.7439 35.975L92.1563 35.8527L101.979 32.0635L113.503 27.17L113.812 27.0239L116.829 25.7093L120 24.3215L119.845 22.8608ZM86.4328 2.58161L111.337 9.66625L107.238 11.2731L82.875 4.33452L86.4328 2.58161ZM80.0133 5.24943L104.918 12.3341L100.819 13.9409L76.4554 7.00234L80.0133 5.24943Z" stroke="#0EA5E9"/>
<path d="M67.8451 58.2429V57.7455L67.6908 57.6744L66.9947 57.4613H66.9169L64.21 56.6795L61.5032 57.7455L43.25 65.4204L40.1562 66.7706L36.3664 68.2629H36.2891L36.057 68.1918L33.8914 67.6944L29.7149 66.6284L28.168 66.131H28.0906L25.6156 65.4914L24.9969 65.3493L24.8422 65.2782L24.5328 65.2072H24.4555L21.5938 64.4966L9.21879 61.3697L8.98674 61.2987L5.89299 60.4459C5.89299 60.4459 5.89299 60.3749 5.81566 60.3749C3.10862 58.1719 3.72738 54.2633 5.04224 51.4919L18.268 55.0451H18.3453H18.4227L21.2844 55.8267H21.3617L21.6711 55.8979L24.7649 56.7506L25.1516 56.8927L26.0797 57.1059L29.3281 57.9587L29.7922 58.1008L30.0242 58.1719L31.8805 58.7404L33.35 59.1668L34.4328 59.451H34.5102L35.4383 59.6642L35.9024 59.8063L36.2117 59.6642L38.1453 58.8115L38.4547 58.6693L38.6094 58.5982L42.6312 56.9638L48.8187 54.4055L49.2828 54.2633L51.9898 53.1974L63.4367 48.5072L63.7459 48.3651L66.7626 47.157V47.0149L67.0718 46.8727L66.9169 44.8119L34.1235 36L3.10863 48.7915C2.72191 49.0047 2.33519 49.36 2.10316 49.6442C-1.37731 52.5578 -0.0227167 59.735 2.45228 62.7907L16.1202 66.6284L19.765 67.6944L32.7313 71.4418V71.4418C35.0747 71.8095 37.4701 71.6591 39.7491 71.0012L40.1563 70.8837L49.9789 67.1969L61.5032 62.4357L61.8124 62.2936L64.829 61.0144L68 59.6642L67.8451 58.2429Z" fill="#0EA5E9"/>
<path d="M67.8451 58.2429V57.7455L67.6908 57.6744L66.9947 57.4613H66.9169L64.21 56.6795L61.5032 57.7455L43.25 65.4204L40.1562 66.7706L36.3664 68.2629H36.2891L36.057 68.1918L33.8914 67.6944L29.7149 66.6284L28.168 66.131H28.0906L25.6156 65.4914L24.9969 65.3493L24.8422 65.2782L24.5328 65.2072H24.4555L21.5938 64.4966L9.21879 61.3697L8.98674 61.2987L5.89299 60.4459C5.89299 60.4459 5.89299 60.3749 5.81566 60.3749C3.10862 58.1719 3.72738 54.2633 5.04224 51.4919L18.268 55.0451H18.3453H18.4227L21.2844 55.8267H21.3617L21.6711 55.8979L24.7649 56.7506L25.1516 56.8927L26.0797 57.1059L29.3281 57.9587L29.7922 58.1008L30.0242 58.1719L31.8805 58.7404L33.35 59.1668L34.4328 59.451H34.5102L35.4383 59.6642L35.9024 59.8063L36.2117 59.6642L38.1453 58.8115L38.4547 58.6693L38.6094 58.5982L42.6312 56.9638L48.8187 54.4055L49.2828 54.2633L51.9898 53.1974L63.4367 48.5072L63.7459 48.3651L66.7626 47.157V47.0149L67.0718 46.8727L66.9169 44.8119L34.1235 36L3.10863 48.7915C2.72191 49.0047 2.33519 49.36 2.10316 49.6442C-1.37731 52.5578 -0.0227167 59.735 2.45228 62.7907L16.1202 66.6284L19.765 67.6944L32.7313 71.4418V71.4418C35.0747 71.8095 37.4701 71.6591 39.7491 71.0012L40.1563 70.8837L49.9789 67.1969L61.5032 62.4357L61.8124 62.2936L64.829 61.0144L68 59.6642L67.8451 58.2429Z" fill="white"/>
<path d="M67.8451 58.2429V57.7455L67.6908 57.6744L66.9947 57.4613H66.9169L64.21 56.6795L61.5032 57.7455L43.25 65.4204L40.1562 66.7706L36.3664 68.2629H36.2891L36.057 68.1918L33.8914 67.6944L29.7149 66.6284L28.168 66.131H28.0906L25.6156 65.4914L24.9969 65.3493L24.8422 65.2782L24.5328 65.2072H24.4555L21.5938 64.4966L9.21879 61.3697L8.98674 61.2987L5.89299 60.4459C5.89299 60.4459 5.89299 60.3749 5.81566 60.3749C3.10862 58.1719 3.72738 54.2633 5.04224 51.4919L18.268 55.0451H18.3453H18.4227L21.2844 55.8267H21.3617L21.6711 55.8979L24.7649 56.7506L25.1516 56.8927L26.0797 57.1059L29.3281 57.9587L29.7922 58.1008L30.0242 58.1719L31.8805 58.7404L33.35 59.1668L34.4328 59.451H34.5102L35.4383 59.6642L35.9024 59.8063L36.2117 59.6642L38.1453 58.8115L38.4547 58.6693L38.6094 58.5982L42.6312 56.9638L48.8187 54.4055L49.2828 54.2633L51.9898 53.1974L63.4367 48.5072L63.7459 48.3651L66.7626 47.157V47.0149L67.0718 46.8727L66.9169 44.8119L34.1235 36L3.10863 48.7915C2.72191 49.0047 2.33519 49.36 2.10316 49.6442C-1.37731 52.5578 -0.0227167 59.735 2.45228 62.7907L16.1202 66.6284L19.765 67.6944L32.7313 71.4418V71.4418C35.0747 71.8095 37.4701 71.6591 39.7491 71.0012L40.1563 70.8837L49.9789 67.1969L61.5032 62.4357L61.8124 62.2936L64.829 61.0144L68 59.6642L67.8451 58.2429Z" fill="#0EA5E9"/>
<path d="M59.3375 45.405L34.4328 38.5118L30.875 40.2174L55.2383 46.9684L59.3375 45.405Z" fill="white"/>
<path d="M59.3375 45.405L34.4328 38.5118L30.875 40.2174L55.2383 46.9684L59.3375 45.405Z" fill="white"/>
<path d="M52.9179 48.0007L28.0133 41.1076L24.4554 42.8131L48.8187 49.5641L52.9179 48.0007Z" fill="white"/>
<path d="M52.9179 48.0007L28.0133 41.1076L24.4554 42.8131L48.8187 49.5641L52.9179 48.0007Z" fill="white"/>
<path d="M67.8451 58.2429V57.7455L67.6908 57.6744L66.9947 57.4613H66.9169L64.21 56.6795L61.5032 57.7455L43.25 65.4204L40.1562 66.7706L36.3664 68.2629H36.2891L36.057 68.1918L33.8914 67.6944L29.7149 66.6284L28.168 66.131H28.0906L25.6156 65.4914L24.9969 65.3493L24.8422 65.2782L24.5328 65.2072H24.4555L21.5938 64.4966L9.21879 61.3697L8.98674 61.2987L5.89299 60.4459C5.89299 60.4459 5.89299 60.3749 5.81566 60.3749C3.10862 58.1719 3.72738 54.2633 5.04224 51.4919L18.268 55.0451H18.3453H18.4227L21.2844 55.8267H21.3617L21.6711 55.8979L24.7649 56.7506L25.1516 56.8927L26.0797 57.1059L29.3281 57.9587L29.7922 58.1008L30.0242 58.1719L31.8805 58.7404L33.35 59.1668L34.4328 59.451H34.5102L35.4383 59.6642L35.9024 59.8063L36.2117 59.6642L38.1453 58.8115L38.4547 58.6693L38.6094 58.5982L42.6312 56.9638L48.8187 54.4055L49.2828 54.2633L51.9898 53.1974L63.4367 48.5072L63.7459 48.3651L66.7626 47.157V47.0149L67.0718 46.8727L66.9169 44.8119L34.1235 36L3.10863 48.7915C2.72191 49.0047 2.33519 49.36 2.10316 49.6442C-1.37731 52.5578 -0.0227167 59.735 2.45228 62.7907L16.1202 66.6284L19.765 67.6944L32.7313 71.4418V71.4418C35.0747 71.8095 37.4701 71.6591 39.7491 71.0012L40.1563 70.8837L49.9789 67.1969L61.5032 62.4357L61.8124 62.2936L64.829 61.0144L68 59.6642L67.8451 58.2429ZM34.4328 38.5118L59.3375 45.405L55.2383 46.9684L30.875 40.2174L34.4328 38.5118ZM28.0133 41.1076L52.9179 48.0007L48.8187 49.5641L24.4554 42.8131L28.0133 41.1076Z" stroke="#0EA5E9"/>
<path d="M119.845 89.8608V89.3495L119.691 89.2765L118.995 89.0574H118.917L116.21 88.254L113.503 89.3495L95.25 97.2376L92.1562 98.6253L88.3664 100.159H88.2891L88.057 100.086L85.8914 99.5748L81.7149 98.4792L80.168 97.968H80.0906L77.6156 97.3106L76.9969 97.1645L76.8422 97.0915L76.5328 97.0185H76.4555L73.5938 96.2881L61.2188 93.0745L60.9867 93.0014L57.893 92.125C57.893 92.125 57.893 92.0519 57.8157 92.0519C55.1086 89.7878 55.7274 85.7707 57.0422 82.9222L70.268 86.5741H70.3453H70.4227L73.2844 87.3775H73.3617L73.6711 87.4506L76.7649 88.327L77.1516 88.4731L78.0797 88.6922L81.3281 89.5686L81.7922 89.7147L82.0242 89.7878L83.8805 90.3721L85.35 90.8103L86.4328 91.1024H86.5102L87.4383 91.3215L87.9024 91.4676L88.2117 91.3215L90.1453 90.4451L90.4547 90.299L90.6094 90.226L94.6312 88.5461L100.819 85.9168L101.283 85.7707L103.99 84.6751L115.437 79.8546L115.746 79.7086L118.763 78.4669V78.3209L119.072 78.1748L118.917 76.0567L86.1235 67L55.1086 80.1468C54.7219 80.3659 54.3352 80.7311 54.1032 81.0232C50.6227 84.0178 51.9773 91.3943 54.4523 94.5349L68.1202 98.4792L71.765 99.5748L84.7313 103.426V103.426C87.0731 103.804 89.4699 103.65 91.7439 102.975L92.1563 102.853L101.979 99.0635L113.503 94.17L113.812 94.0239L116.829 92.7093L120 91.3215L119.845 89.8608Z" fill="#0EA5E9"/>
<path d="M119.845 89.8608V89.3495L119.691 89.2765L118.995 89.0574H118.917L116.21 88.254L113.503 89.3495L95.25 97.2376L92.1562 98.6253L88.3664 100.159H88.2891L88.057 100.086L85.8914 99.5748L81.7149 98.4792L80.168 97.968H80.0906L77.6156 97.3106L76.9969 97.1645L76.8422 97.0915L76.5328 97.0185H76.4555L73.5938 96.2881L61.2188 93.0745L60.9867 93.0014L57.893 92.125C57.893 92.125 57.893 92.0519 57.8157 92.0519C55.1086 89.7878 55.7274 85.7707 57.0422 82.9222L70.268 86.5741H70.3453H70.4227L73.2844 87.3775H73.3617L73.6711 87.4506L76.7649 88.327L77.1516 88.4731L78.0797 88.6922L81.3281 89.5686L81.7922 89.7147L82.0242 89.7878L83.8805 90.3721L85.35 90.8103L86.4328 91.1024H86.5102L87.4383 91.3215L87.9024 91.4676L88.2117 91.3215L90.1453 90.4451L90.4547 90.299L90.6094 90.226L94.6312 88.5461L100.819 85.9168L101.283 85.7707L103.99 84.6751L115.437 79.8546L115.746 79.7086L118.763 78.4669V78.3209L119.072 78.1748L118.917 76.0567L86.1235 67L55.1086 80.1468C54.7219 80.3659 54.3352 80.7311 54.1032 81.0232C50.6227 84.0178 51.9773 91.3943 54.4523 94.5349L68.1202 98.4792L71.765 99.5748L84.7313 103.426V103.426C87.0731 103.804 89.4699 103.65 91.7439 102.975L92.1563 102.853L101.979 99.0635L113.503 94.17L113.812 94.0239L116.829 92.7093L120 91.3215L119.845 89.8608Z" fill="white"/>
<path d="M119.845 89.8608V89.3495L119.691 89.2765L118.995 89.0574H118.917L116.21 88.254L113.503 89.3495L95.25 97.2376L92.1562 98.6253L88.3664 100.159H88.2891L88.057 100.086L85.8914 99.5748L81.7149 98.4792L80.168 97.968H80.0906L77.6156 97.3106L76.9969 97.1645L76.8422 97.0915L76.5328 97.0185H76.4555L73.5938 96.2881L61.2188 93.0745L60.9867 93.0014L57.893 92.125C57.893 92.125 57.893 92.0519 57.8157 92.0519C55.1086 89.7878 55.7274 85.7707 57.0422 82.9222L70.268 86.5741H70.3453H70.4227L73.2844 87.3775H73.3617L73.6711 87.4506L76.7649 88.327L77.1516 88.4731L78.0797 88.6922L81.3281 89.5686L81.7922 89.7147L82.0242 89.7878L83.8805 90.3721L85.35 90.8103L86.4328 91.1024H86.5102L87.4383 91.3215L87.9024 91.4676L88.2117 91.3215L90.1453 90.4451L90.4547 90.299L90.6094 90.226L94.6312 88.5461L100.819 85.9168L101.283 85.7707L103.99 84.6751L115.437 79.8546L115.746 79.7086L118.763 78.4669V78.3209L119.072 78.1748L118.917 76.0567L86.1235 67L55.1086 80.1468C54.7219 80.3659 54.3352 80.7311 54.1032 81.0232C50.6227 84.0178 51.9773 91.3943 54.4523 94.5349L68.1202 98.4792L71.765 99.5748L84.7313 103.426V103.426C87.0731 103.804 89.4699 103.65 91.7439 102.975L92.1563 102.853L101.979 99.0635L113.503 94.17L113.812 94.0239L116.829 92.7093L120 91.3215L119.845 89.8608Z" fill="#0EA5E9"/>
<path d="M111.337 76.6663L86.4328 69.5816L82.875 71.3345L107.238 78.2731L111.337 76.6663Z" fill="white"/>
<path d="M111.337 76.6663L86.4328 69.5816L82.875 71.3345L107.238 78.2731L111.337 76.6663Z" fill="white"/>
<path d="M104.918 79.3341L80.0133 72.2494L76.4554 74.0023L100.819 80.9409L104.918 79.3341Z" fill="white"/>
<path d="M104.918 79.3341L80.0133 72.2494L76.4554 74.0023L100.819 80.9409L104.918 79.3341Z" fill="white"/>
<path d="M119.845 89.8608V89.3495L119.691 89.2765L118.995 89.0574H118.917L116.21 88.254L113.503 89.3495L95.25 97.2376L92.1562 98.6253L88.3664 100.159H88.2891L88.057 100.086L85.8914 99.5748L81.7149 98.4792L80.168 97.968H80.0906L77.6156 97.3106L76.9969 97.1645L76.8422 97.0915L76.5328 97.0185H76.4555L73.5938 96.2881L61.2188 93.0745L60.9867 93.0014L57.893 92.125C57.893 92.125 57.893 92.0519 57.8157 92.0519C55.1086 89.7878 55.7274 85.7707 57.0422 82.9222L70.268 86.5741H70.3453H70.4227L73.2844 87.3775H73.3617L73.6711 87.4506L76.7649 88.327L77.1516 88.4731L78.0797 88.6922L81.3281 89.5686L81.7922 89.7147L82.0242 89.7878L83.8805 90.3721L85.35 90.8103L86.4328 91.1024H86.5102L87.4383 91.3215L87.9024 91.4676L88.2117 91.3215L90.1453 90.4451L90.4547 90.299L90.6094 90.226L94.6312 88.5461L100.819 85.9168L101.283 85.7707L103.99 84.6751L115.437 79.8546L115.746 79.7086L118.763 78.4669V78.3209L119.072 78.1748L118.917 76.0567L86.1235 67L55.1086 80.1468C54.7219 80.3659 54.3352 80.7311 54.1032 81.0232C50.6227 84.0178 51.9773 91.3943 54.4523 94.5349L68.1202 98.4792L71.765 99.5748L84.7313 103.426V103.426C87.0731 103.804 89.4699 103.65 91.7439 102.975L92.1563 102.853L101.979 99.0635L113.503 94.17L113.812 94.0239L116.829 92.7093L120 91.3215L119.845 89.8608ZM86.4328 69.5816L111.337 76.6663L107.238 78.2731L82.875 71.3345L86.4328 69.5816ZM80.0133 72.2494L104.918 79.3341L100.819 80.9409L76.4554 74.0023L80.0133 72.2494Z" stroke="#0EA5E9"/>
<path d="M74.5 31L49 41.5M46.5 67L60 70.6174L74.5 75" stroke="#0EA5E9" stroke-width="4"/>
</svg>
